<?xml version="1.0" encoding="utf-8" standalone="no"?>
<!DOCTYPE svg PUBLIC "-//W3C//DTD SVG 1.1//EN"
  "http://www.w3.org/Graphics/SVG/1.1/DTD/svg11.dtd">
<svg xmlns:xlink="http://www.w3.org/1999/xlink" width="293.292813pt" height="164.979469pt" viewBox="0 0 293.292813 164.979469" xmlns="http://www.w3.org/2000/svg" version="1.1">
 <metadata>
  <rdf:RDF xmlns:dc="http://purl.org/dc/elements/1.1/" xmlns:cc="http://creativecommons.org/ns#" xmlns:rdf="http://www.w3.org/1999/02/22-rdf-syntax-ns#">
   <cc:Work>
    <dc:type rdf:resource="http://purl.org/dc/dcmitype/StillImage"/>
    <dc:date>2024-08-28T21:08:12.025994</dc:date>
    <dc:format>image/svg+xml</dc:format>
    <dc:creator>
     <cc:Agent>
      <dc:title>Matplotlib v3.8.4, https://matplotlib.org/</dc:title>
     </cc:Agent>
    </dc:creator>
   </cc:Work>
  </rdf:RDF>
 </metadata>
 <defs>
  <style type="text/css">*{stroke-linejoin: round; stroke-linecap: butt}</style>
 </defs>
 <g id="figure_1">
  <g id="patch_1">
   <path d="M 0 164.979469 
L 293.292813 164.979469 
L 293.292813 0 
L 0 0 
z
" style="fill: #ffffff"/>
  </g>
  <g id="axes_1">
   <g id="patch_2">
    <path d="M 43.78125 127.423219 
L 278.14125 127.423219 
L 278.14125 10.999219 
L 43.78125 10.999219 
z
" style="fill: #ffffff"/>
   </g>
   <g id="matplotlib.axis_1">
    <g id="xtick_1">
     <g id="line2d_1">
      <defs>
       <path id="m716e2aa514" d="M 0 0 
L 0 3.5 
" style="stroke: #000000; stroke-width: 0.8"/>
      </defs>
      <g>
       <use xlink:href="#m716e2aa514" x="43.78125" y="127.423219" style="stroke: #000000; stroke-width: 0.8"/>
      </g>
     </g>
     <g id="text_1">
      <!-- 0.0 -->
      <g transform="translate(35.829687 142.021656) scale(0.1 -0.1)">
       <defs>
        <path id="DejaVuSans-30" d="M 2034 4250 
Q 1547 4250 1301 3770 
Q 1056 3291 1056 2328 
Q 1056 1369 1301 889 
Q 1547 409 2034 409 
Q 2525 409 2770 889 
Q 3016 1369 3016 2328 
Q 3016 3291 2770 3770 
Q 2525 4250 2034 4250 
z
M 2034 4750 
Q 2819 4750 3233 4129 
Q 3647 3509 3647 2328 
Q 3647 1150 3233 529 
Q 2819 -91 2034 -91 
Q 1250 -91 836 529 
Q 422 1150 422 2328 
Q 422 3509 836 4129 
Q 1250 4750 2034 4750 
z
" transform="scale(0.015625)"/>
        <path id="DejaVuSans-2e" d="M 684 794 
L 1344 794 
L 1344 0 
L 684 0 
L 684 794 
z
" transform="scale(0.015625)"/>
       </defs>
       <use xlink:href="#DejaVuSans-30"/>
       <use xlink:href="#DejaVuSans-2e" x="63.623047"/>
       <use xlink:href="#DejaVuSans-30" x="95.410156"/>
      </g>
     </g>
    </g>
    <g id="xtick_2">
     <g id="line2d_2">
      <g>
       <use xlink:href="#m716e2aa514" x="102.37125" y="127.423219" style="stroke: #000000; stroke-width: 0.8"/>
      </g>
     </g>
     <g id="text_2">
      <!-- 0.1 -->
      <g transform="translate(94.419688 142.021656) scale(0.1 -0.1)">
       <defs>
        <path id="DejaVuSans-31" d="M 794 531 
L 1825 531 
L 1825 4091 
L 703 3866 
L 703 4441 
L 1819 4666 
L 2450 4666 
L 2450 531 
L 3481 531 
L 3481 0 
L 794 0 
L 794 531 
z
" transform="scale(0.015625)"/>
       </defs>
       <use xlink:href="#DejaVuSans-30"/>
       <use xlink:href="#DejaVuSans-2e" x="63.623047"/>
       <use xlink:href="#DejaVuSans-31" x="95.410156"/>
      </g>
     </g>
    </g>
    <g id="xtick_3">
     <g id="line2d_3">
      <g>
       <use xlink:href="#m716e2aa514" x="160.96125" y="127.423219" style="stroke: #000000; stroke-width: 0.8"/>
      </g>
     </g>
     <g id="text_3">
      <!-- 0.2 -->
      <g transform="translate(153.009688 142.021656) scale(0.1 -0.1)">
       <defs>
        <path id="DejaVuSans-32" d="M 1228 531 
L 3431 531 
L 3431 0 
L 469 0 
L 469 531 
Q 828 903 1448 1529 
Q 2069 2156 2228 2338 
Q 2531 2678 2651 2914 
Q 2772 3150 2772 3378 
Q 2772 3750 2511 3984 
Q 2250 4219 1831 4219 
Q 1534 4219 1204 4116 
Q 875 4013 500 3803 
L 500 4441 
Q 881 4594 1212 4672 
Q 1544 4750 1819 4750 
Q 2544 4750 2975 4387 
Q 3406 4025 3406 3419 
Q 3406 3131 3298 2873 
Q 3191 2616 2906 2266 
Q 2828 2175 2409 1742 
Q 1991 1309 1228 531 
z
" transform="scale(0.015625)"/>
       </defs>
       <use xlink:href="#DejaVuSans-30"/>
       <use xlink:href="#DejaVuSans-2e" x="63.623047"/>
       <use xlink:href="#DejaVuSans-32" x="95.410156"/>
      </g>
     </g>
    </g>
    <g id="xtick_4">
     <g id="line2d_4">
      <g>
       <use xlink:href="#m716e2aa514" x="219.55125" y="127.423219" style="stroke: #000000; stroke-width: 0.8"/>
      </g>
     </g>
     <g id="text_4">
      <!-- 0.3 -->
      <g transform="translate(211.599688 142.021656) scale(0.1 -0.1)">
       <defs>
        <path id="DejaVuSans-33" d="M 2597 2516 
Q 3050 2419 3304 2112 
Q 3559 1806 3559 1356 
Q 3559 666 3084 287 
Q 2609 -91 1734 -91 
Q 1441 -91 1130 -33 
Q 819 25 488 141 
L 488 750 
Q 750 597 1062 519 
Q 1375 441 1716 441 
Q 2309 441 2620 675 
Q 2931 909 2931 1356 
Q 2931 1769 2642 2001 
Q 2353 2234 1838 2234 
L 1294 2234 
L 1294 2753 
L 1863 2753 
Q 2328 2753 2575 2939 
Q 2822 3125 2822 3475 
Q 2822 3834 2567 4026 
Q 2313 4219 1838 4219 
Q 1578 4219 1281 4162 
Q 984 4106 628 3988 
L 628 4550 
Q 988 4650 1302 4700 
Q 1616 4750 1894 4750 
Q 2613 4750 3031 4423 
Q 3450 4097 3450 3541 
Q 3450 3153 3228 2886 
Q 3006 2619 2597 2516 
z
" transform="scale(0.015625)"/>
       </defs>
       <use xlink:href="#DejaVuSans-30"/>
       <use xlink:href="#DejaVuSans-2e" x="63.623047"/>
       <use xlink:href="#DejaVuSans-33" x="95.410156"/>
      </g>
     </g>
    </g>
    <g id="xtick_5">
     <g id="line2d_5">
      <g>
       <use xlink:href="#m716e2aa514" x="278.14125" y="127.423219" style="stroke: #000000; stroke-width: 0.8"/>
      </g>
     </g>
     <g id="text_5">
      <!-- 0.4 -->
      <g transform="translate(270.189687 142.021656) scale(0.1 -0.1)">
       <defs>
        <path id="DejaVuSans-34" d="M 2419 4116 
L 825 1625 
L 2419 1625 
L 2419 4116 
z
M 2253 4666 
L 3047 4666 
L 3047 1625 
L 3713 1625 
L 3713 1100 
L 3047 1100 
L 3047 0 
L 2419 0 
L 2419 1100 
L 313 1100 
L 313 1709 
L 2253 4666 
z
" transform="scale(0.015625)"/>
       </defs>
       <use xlink:href="#DejaVuSans-30"/>
       <use xlink:href="#DejaVuSans-2e" x="63.623047"/>
       <use xlink:href="#DejaVuSans-34" x="95.410156"/>
      </g>
     </g>
    </g>
    <g id="text_6">
     <!-- BCE Screenshot Difference -->
     <g transform="translate(93.958125 155.699781) scale(0.1 -0.1)">
      <defs>
       <path id="DejaVuSans-42" d="M 1259 2228 
L 1259 519 
L 2272 519 
Q 2781 519 3026 730 
Q 3272 941 3272 1375 
Q 3272 1813 3026 2020 
Q 2781 2228 2272 2228 
L 1259 2228 
z
M 1259 4147 
L 1259 2741 
L 2194 2741 
Q 2656 2741 2882 2914 
Q 3109 3088 3109 3444 
Q 3109 3797 2882 3972 
Q 2656 4147 2194 4147 
L 1259 4147 
z
M 628 4666 
L 2241 4666 
Q 2963 4666 3353 4366 
Q 3744 4066 3744 3513 
Q 3744 3084 3544 2831 
Q 3344 2578 2956 2516 
Q 3422 2416 3680 2098 
Q 3938 1781 3938 1306 
Q 3938 681 3513 340 
Q 3088 0 2303 0 
L 628 0 
L 628 4666 
z
" transform="scale(0.015625)"/>
       <path id="DejaVuSans-43" d="M 4122 4306 
L 4122 3641 
Q 3803 3938 3442 4084 
Q 3081 4231 2675 4231 
Q 1875 4231 1450 3742 
Q 1025 3253 1025 2328 
Q 1025 1406 1450 917 
Q 1875 428 2675 428 
Q 3081 428 3442 575 
Q 3803 722 4122 1019 
L 4122 359 
Q 3791 134 3420 21 
Q 3050 -91 2638 -91 
Q 1578 -91 968 557 
Q 359 1206 359 2328 
Q 359 3453 968 4101 
Q 1578 4750 2638 4750 
Q 3056 4750 3426 4639 
Q 3797 4528 4122 4306 
z
" transform="scale(0.015625)"/>
       <path id="DejaVuSans-45" d="M 628 4666 
L 3578 4666 
L 3578 4134 
L 1259 4134 
L 1259 2753 
L 3481 2753 
L 3481 2222 
L 1259 2222 
L 1259 531 
L 3634 531 
L 3634 0 
L 628 0 
L 628 4666 
z
" transform="scale(0.015625)"/>
       <path id="DejaVuSans-20" transform="scale(0.015625)"/>
       <path id="DejaVuSans-53" d="M 3425 4513 
L 3425 3897 
Q 3066 4069 2747 4153 
Q 2428 4238 2131 4238 
Q 1616 4238 1336 4038 
Q 1056 3838 1056 3469 
Q 1056 3159 1242 3001 
Q 1428 2844 1947 2747 
L 2328 2669 
Q 3034 2534 3370 2195 
Q 3706 1856 3706 1288 
Q 3706 609 3251 259 
Q 2797 -91 1919 -91 
Q 1588 -91 1214 -16 
Q 841 59 441 206 
L 441 856 
Q 825 641 1194 531 
Q 1563 422 1919 422 
Q 2459 422 2753 634 
Q 3047 847 3047 1241 
Q 3047 1584 2836 1778 
Q 2625 1972 2144 2069 
L 1759 2144 
Q 1053 2284 737 2584 
Q 422 2884 422 3419 
Q 422 4038 858 4394 
Q 1294 4750 2059 4750 
Q 2388 4750 2728 4690 
Q 3069 4631 3425 4513 
z
" transform="scale(0.015625)"/>
       <path id="DejaVuSans-63" d="M 3122 3366 
L 3122 2828 
Q 2878 2963 2633 3030 
Q 2388 3097 2138 3097 
Q 1578 3097 1268 2742 
Q 959 2388 959 1747 
Q 959 1106 1268 751 
Q 1578 397 2138 397 
Q 2388 397 2633 464 
Q 2878 531 3122 666 
L 3122 134 
Q 2881 22 2623 -34 
Q 2366 -91 2075 -91 
Q 1284 -91 818 406 
Q 353 903 353 1747 
Q 353 2603 823 3093 
Q 1294 3584 2113 3584 
Q 2378 3584 2631 3529 
Q 2884 3475 3122 3366 
z
" transform="scale(0.015625)"/>
       <path id="DejaVuSans-72" d="M 2631 2963 
Q 2534 3019 2420 3045 
Q 2306 3072 2169 3072 
Q 1681 3072 1420 2755 
Q 1159 2438 1159 1844 
L 1159 0 
L 581 0 
L 581 3500 
L 1159 3500 
L 1159 2956 
Q 1341 3275 1631 3429 
Q 1922 3584 2338 3584 
Q 2397 3584 2469 3576 
Q 2541 3569 2628 3553 
L 2631 2963 
z
" transform="scale(0.015625)"/>
       <path id="DejaVuSans-65" d="M 3597 1894 
L 3597 1613 
L 953 1613 
Q 991 1019 1311 708 
Q 1631 397 2203 397 
Q 2534 397 2845 478 
Q 3156 559 3463 722 
L 3463 178 
Q 3153 47 2828 -22 
Q 2503 -91 2169 -91 
Q 1331 -91 842 396 
Q 353 884 353 1716 
Q 353 2575 817 3079 
Q 1281 3584 2069 3584 
Q 2775 3584 3186 3129 
Q 3597 2675 3597 1894 
z
M 3022 2063 
Q 3016 2534 2758 2815 
Q 2500 3097 2075 3097 
Q 1594 3097 1305 2825 
Q 1016 2553 972 2059 
L 3022 2063 
z
" transform="scale(0.015625)"/>
       <path id="DejaVuSans-6e" d="M 3513 2113 
L 3513 0 
L 2938 0 
L 2938 2094 
Q 2938 2591 2744 2837 
Q 2550 3084 2163 3084 
Q 1697 3084 1428 2787 
Q 1159 2491 1159 1978 
L 1159 0 
L 581 0 
L 581 3500 
L 1159 3500 
L 1159 2956 
Q 1366 3272 1645 3428 
Q 1925 3584 2291 3584 
Q 2894 3584 3203 3211 
Q 3513 2838 3513 2113 
z
" transform="scale(0.015625)"/>
       <path id="DejaVuSans-73" d="M 2834 3397 
L 2834 2853 
Q 2591 2978 2328 3040 
Q 2066 3103 1784 3103 
Q 1356 3103 1142 2972 
Q 928 2841 928 2578 
Q 928 2378 1081 2264 
Q 1234 2150 1697 2047 
L 1894 2003 
Q 2506 1872 2764 1633 
Q 3022 1394 3022 966 
Q 3022 478 2636 193 
Q 2250 -91 1575 -91 
Q 1294 -91 989 -36 
Q 684 19 347 128 
L 347 722 
Q 666 556 975 473 
Q 1284 391 1588 391 
Q 1994 391 2212 530 
Q 2431 669 2431 922 
Q 2431 1156 2273 1281 
Q 2116 1406 1581 1522 
L 1381 1569 
Q 847 1681 609 1914 
Q 372 2147 372 2553 
Q 372 3047 722 3315 
Q 1072 3584 1716 3584 
Q 2034 3584 2315 3537 
Q 2597 3491 2834 3397 
z
" transform="scale(0.015625)"/>
       <path id="DejaVuSans-68" d="M 3513 2113 
L 3513 0 
L 2938 0 
L 2938 2094 
Q 2938 2591 2744 2837 
Q 2550 3084 2163 3084 
Q 1697 3084 1428 2787 
Q 1159 2491 1159 1978 
L 1159 0 
L 581 0 
L 581 4863 
L 1159 4863 
L 1159 2956 
Q 1366 3272 1645 3428 
Q 1925 3584 2291 3584 
Q 2894 3584 3203 3211 
Q 3513 2838 3513 2113 
z
" transform="scale(0.015625)"/>
       <path id="DejaVuSans-6f" d="M 1959 3097 
Q 1497 3097 1228 2736 
Q 959 2375 959 1747 
Q 959 1119 1226 758 
Q 1494 397 1959 397 
Q 2419 397 2687 759 
Q 2956 1122 2956 1747 
Q 2956 2369 2687 2733 
Q 2419 3097 1959 3097 
z
M 1959 3584 
Q 2709 3584 3137 3096 
Q 3566 2609 3566 1747 
Q 3566 888 3137 398 
Q 2709 -91 1959 -91 
Q 1206 -91 779 398 
Q 353 888 353 1747 
Q 353 2609 779 3096 
Q 1206 3584 1959 3584 
z
" transform="scale(0.015625)"/>
       <path id="DejaVuSans-74" d="M 1172 4494 
L 1172 3500 
L 2356 3500 
L 2356 3053 
L 1172 3053 
L 1172 1153 
Q 1172 725 1289 603 
Q 1406 481 1766 481 
L 2356 481 
L 2356 0 
L 1766 0 
Q 1100 0 847 248 
Q 594 497 594 1153 
L 594 3053 
L 172 3053 
L 172 3500 
L 594 3500 
L 594 4494 
L 1172 4494 
z
" transform="scale(0.015625)"/>
       <path id="DejaVuSans-44" d="M 1259 4147 
L 1259 519 
L 2022 519 
Q 2988 519 3436 956 
Q 3884 1394 3884 2338 
Q 3884 3275 3436 3711 
Q 2988 4147 2022 4147 
L 1259 4147 
z
M 628 4666 
L 1925 4666 
Q 3281 4666 3915 4102 
Q 4550 3538 4550 2338 
Q 4550 1131 3912 565 
Q 3275 0 1925 0 
L 628 0 
L 628 4666 
z
" transform="scale(0.015625)"/>
       <path id="DejaVuSans-69" d="M 603 3500 
L 1178 3500 
L 1178 0 
L 603 0 
L 603 3500 
z
M 603 4863 
L 1178 4863 
L 1178 4134 
L 603 4134 
L 603 4863 
z
" transform="scale(0.015625)"/>
       <path id="DejaVuSans-66" d="M 2375 4863 
L 2375 4384 
L 1825 4384 
Q 1516 4384 1395 4259 
Q 1275 4134 1275 3809 
L 1275 3500 
L 2222 3500 
L 2222 3053 
L 1275 3053 
L 1275 0 
L 697 0 
L 697 3053 
L 147 3053 
L 147 3500 
L 697 3500 
L 697 3744 
Q 697 4328 969 4595 
Q 1241 4863 1831 4863 
L 2375 4863 
z
" transform="scale(0.015625)"/>
      </defs>
      <use xlink:href="#DejaVuSans-42"/>
      <use xlink:href="#DejaVuSans-43" x="66.853516"/>
      <use xlink:href="#DejaVuSans-45" x="136.677734"/>
      <use xlink:href="#DejaVuSans-20" x="199.861328"/>
      <use xlink:href="#DejaVuSans-53" x="231.648438"/>
      <use xlink:href="#DejaVuSans-63" x="295.125"/>
      <use xlink:href="#DejaVuSans-72" x="350.105469"/>
      <use xlink:href="#DejaVuSans-65" x="388.96875"/>
      <use xlink:href="#DejaVuSans-65" x="450.492188"/>
      <use xlink:href="#DejaVuSans-6e" x="512.015625"/>
      <use xlink:href="#DejaVuSans-73" x="575.394531"/>
      <use xlink:href="#DejaVuSans-68" x="627.494141"/>
      <use xlink:href="#DejaVuSans-6f" x="690.873047"/>
      <use xlink:href="#DejaVuSans-74" x="752.054688"/>
      <use xlink:href="#DejaVuSans-20" x="791.263672"/>
      <use xlink:href="#DejaVuSans-44" x="823.050781"/>
      <use xlink:href="#DejaVuSans-69" x="900.052734"/>
      <use xlink:href="#DejaVuSans-66" x="927.835938"/>
      <use xlink:href="#DejaVuSans-66" x="963.041016"/>
      <use xlink:href="#DejaVuSans-65" x="998.246094"/>
      <use xlink:href="#DejaVuSans-72" x="1059.769531"/>
      <use xlink:href="#DejaVuSans-65" x="1098.632812"/>
      <use xlink:href="#DejaVuSans-6e" x="1160.15625"/>
      <use xlink:href="#DejaVuSans-63" x="1223.535156"/>
      <use xlink:href="#DejaVuSans-65" x="1278.515625"/>
     </g>
    </g>
   </g>
   <g id="matplotlib.axis_2">
    <g id="ytick_1">
     <g id="line2d_6">
      <defs>
       <path id="m7ee19ef30a" d="M 0 0 
L -3.5 0 
" style="stroke: #000000; stroke-width: 0.8"/>
      </defs>
      <g>
       <use xlink:href="#m7ee19ef30a" x="43.78125" y="127.423219" style="stroke: #000000; stroke-width: 0.8"/>
      </g>
     </g>
     <g id="text_7">
      <!-- 0.5 -->
      <g transform="translate(20.878125 131.222437) scale(0.1 -0.1)">
       <defs>
        <path id="DejaVuSans-35" d="M 691 4666 
L 3169 4666 
L 3169 4134 
L 1269 4134 
L 1269 2991 
Q 1406 3038 1543 3061 
Q 1681 3084 1819 3084 
Q 2600 3084 3056 2656 
Q 3513 2228 3513 1497 
Q 3513 744 3044 326 
Q 2575 -91 1722 -91 
Q 1428 -91 1123 -41 
Q 819 9 494 109 
L 494 744 
Q 775 591 1075 516 
Q 1375 441 1709 441 
Q 2250 441 2565 725 
Q 2881 1009 2881 1497 
Q 2881 1984 2565 2268 
Q 2250 2553 1709 2553 
Q 1456 2553 1204 2497 
Q 953 2441 691 2322 
L 691 4666 
z
" transform="scale(0.015625)"/>
       </defs>
       <use xlink:href="#DejaVuSans-30"/>
       <use xlink:href="#DejaVuSans-2e" x="63.623047"/>
       <use xlink:href="#DejaVuSans-35" x="95.410156"/>
      </g>
     </g>
    </g>
    <g id="ytick_2">
     <g id="line2d_7">
      <g>
       <use xlink:href="#m7ee19ef30a" x="43.78125" y="104.138419" style="stroke: #000000; stroke-width: 0.8"/>
      </g>
     </g>
     <g id="text_8">
      <!-- 0.6 -->
      <g transform="translate(20.878125 107.937637) scale(0.1 -0.1)">
       <defs>
        <path id="DejaVuSans-36" d="M 2113 2584 
Q 1688 2584 1439 2293 
Q 1191 2003 1191 1497 
Q 1191 994 1439 701 
Q 1688 409 2113 409 
Q 2538 409 2786 701 
Q 3034 994 3034 1497 
Q 3034 2003 2786 2293 
Q 2538 2584 2113 2584 
z
M 3366 4563 
L 3366 3988 
Q 3128 4100 2886 4159 
Q 2644 4219 2406 4219 
Q 1781 4219 1451 3797 
Q 1122 3375 1075 2522 
Q 1259 2794 1537 2939 
Q 1816 3084 2150 3084 
Q 2853 3084 3261 2657 
Q 3669 2231 3669 1497 
Q 3669 778 3244 343 
Q 2819 -91 2113 -91 
Q 1303 -91 875 529 
Q 447 1150 447 2328 
Q 447 3434 972 4092 
Q 1497 4750 2381 4750 
Q 2619 4750 2861 4703 
Q 3103 4656 3366 4563 
z
" transform="scale(0.015625)"/>
       </defs>
       <use xlink:href="#DejaVuSans-30"/>
       <use xlink:href="#DejaVuSans-2e" x="63.623047"/>
       <use xlink:href="#DejaVuSans-36" x="95.410156"/>
      </g>
     </g>
    </g>
    <g id="ytick_3">
     <g id="line2d_8">
      <g>
       <use xlink:href="#m7ee19ef30a" x="43.78125" y="80.853619" style="stroke: #000000; stroke-width: 0.8"/>
      </g>
     </g>
     <g id="text_9">
      <!-- 0.7 -->
      <g transform="translate(20.878125 84.652837) scale(0.1 -0.1)">
       <defs>
        <path id="DejaVuSans-37" d="M 525 4666 
L 3525 4666 
L 3525 4397 
L 1831 0 
L 1172 0 
L 2766 4134 
L 525 4134 
L 525 4666 
z
" transform="scale(0.015625)"/>
       </defs>
       <use xlink:href="#DejaVuSans-30"/>
       <use xlink:href="#DejaVuSans-2e" x="63.623047"/>
       <use xlink:href="#DejaVuSans-37" x="95.410156"/>
      </g>
     </g>
    </g>
    <g id="ytick_4">
     <g id="line2d_9">
      <g>
       <use xlink:href="#m7ee19ef30a" x="43.78125" y="57.568819" style="stroke: #000000; stroke-width: 0.8"/>
      </g>
     </g>
     <g id="text_10">
      <!-- 0.8 -->
      <g transform="translate(20.878125 61.368037) scale(0.1 -0.1)">
       <defs>
        <path id="DejaVuSans-38" d="M 2034 2216 
Q 1584 2216 1326 1975 
Q 1069 1734 1069 1313 
Q 1069 891 1326 650 
Q 1584 409 2034 409 
Q 2484 409 2743 651 
Q 3003 894 3003 1313 
Q 3003 1734 2745 1975 
Q 2488 2216 2034 2216 
z
M 1403 2484 
Q 997 2584 770 2862 
Q 544 3141 544 3541 
Q 544 4100 942 4425 
Q 1341 4750 2034 4750 
Q 2731 4750 3128 4425 
Q 3525 4100 3525 3541 
Q 3525 3141 3298 2862 
Q 3072 2584 2669 2484 
Q 3125 2378 3379 2068 
Q 3634 1759 3634 1313 
Q 3634 634 3220 271 
Q 2806 -91 2034 -91 
Q 1263 -91 848 271 
Q 434 634 434 1313 
Q 434 1759 690 2068 
Q 947 2378 1403 2484 
z
M 1172 3481 
Q 1172 3119 1398 2916 
Q 1625 2713 2034 2713 
Q 2441 2713 2670 2916 
Q 2900 3119 2900 3481 
Q 2900 3844 2670 4047 
Q 2441 4250 2034 4250 
Q 1625 4250 1398 4047 
Q 1172 3844 1172 3481 
z
" transform="scale(0.015625)"/>
       </defs>
       <use xlink:href="#DejaVuSans-30"/>
       <use xlink:href="#DejaVuSans-2e" x="63.623047"/>
       <use xlink:href="#DejaVuSans-38" x="95.410156"/>
      </g>
     </g>
    </g>
    <g id="ytick_5">
     <g id="line2d_10">
      <g>
       <use xlink:href="#m7ee19ef30a" x="43.78125" y="34.284019" style="stroke: #000000; stroke-width: 0.8"/>
      </g>
     </g>
     <g id="text_11">
      <!-- 0.9 -->
      <g transform="translate(20.878125 38.083237) scale(0.1 -0.1)">
       <defs>
        <path id="DejaVuSans-39" d="M 703 97 
L 703 672 
Q 941 559 1184 500 
Q 1428 441 1663 441 
Q 2288 441 2617 861 
Q 2947 1281 2994 2138 
Q 2813 1869 2534 1725 
Q 2256 1581 1919 1581 
Q 1219 1581 811 2004 
Q 403 2428 403 3163 
Q 403 3881 828 4315 
Q 1253 4750 1959 4750 
Q 2769 4750 3195 4129 
Q 3622 3509 3622 2328 
Q 3622 1225 3098 567 
Q 2575 -91 1691 -91 
Q 1453 -91 1209 -44 
Q 966 3 703 97 
z
M 1959 2075 
Q 2384 2075 2632 2365 
Q 2881 2656 2881 3163 
Q 2881 3666 2632 3958 
Q 2384 4250 1959 4250 
Q 1534 4250 1286 3958 
Q 1038 3666 1038 3163 
Q 1038 2656 1286 2365 
Q 1534 2075 1959 2075 
z
" transform="scale(0.015625)"/>
       </defs>
       <use xlink:href="#DejaVuSans-30"/>
       <use xlink:href="#DejaVuSans-2e" x="63.623047"/>
       <use xlink:href="#DejaVuSans-39" x="95.410156"/>
      </g>
     </g>
    </g>
    <g id="ytick_6">
     <g id="line2d_11">
      <g>
       <use xlink:href="#m7ee19ef30a" x="43.78125" y="10.999219" style="stroke: #000000; stroke-width: 0.8"/>
      </g>
     </g>
     <g id="text_12">
      <!-- 1.0 -->
      <g transform="translate(20.878125 14.798437) scale(0.1 -0.1)">
       <use xlink:href="#DejaVuSans-31"/>
       <use xlink:href="#DejaVuSans-2e" x="63.623047"/>
       <use xlink:href="#DejaVuSans-30" x="95.410156"/>
      </g>
     </g>
    </g>
    <g id="text_13">
     <!-- CDF -->
     <g transform="translate(14.798437 79.428406) rotate(-90) scale(0.1 -0.1)">
      <defs>
       <path id="DejaVuSans-46" d="M 628 4666 
L 3309 4666 
L 3309 4134 
L 1259 4134 
L 1259 2759 
L 3109 2759 
L 3109 2228 
L 1259 2228 
L 1259 0 
L 628 0 
L 628 4666 
z
" transform="scale(0.015625)"/>
      </defs>
      <use xlink:href="#DejaVuSans-43"/>
      <use xlink:href="#DejaVuSans-44" x="69.824219"/>
      <use xlink:href="#DejaVuSans-46" x="146.826172"/>
     </g>
    </g>
   </g>
   <g id="line2d_12">
    <path d="M 43.78125 125.028211 
L 43.879063 124.662307 
L 44.050053 119.207011 
L 44.126914 118.209091 
L 44.324756 114.283939 
L 44.359156 113.951299 
L 44.543305 111.356707 
L 44.617032 110.824483 
L 44.732386 109.427395 
L 44.815912 108.895171 
L 45.006166 107.498083 
L 45.124527 106.533427 
L 45.233501 105.269395 
L 45.536458 103.473139 
L 45.658489 102.608275 
L 45.833439 101.843203 
L 46.369969 99.215347 
L 47.354408 95.423251 
L 47.50125 94.791235 
L 47.636394 94.491859 
L 47.942472 93.560467 
L 48.065711 93.261091 
L 48.298393 92.629075 
L 48.643235 91.697683 
L 48.950681 90.533443 
L 49.101923 89.768371 
L 49.367476 89.003299 
L 49.861216 86.375443 
L 49.978207 86.042803 
L 50.088206 85.477315 
L 50.249924 85.244467 
L 50.375795 85.011619 
L 50.572307 84.479395 
L 50.868681 83.847379 
L 50.962621 83.647795 
L 51.105 83.348419 
L 51.202799 83.115571 
L 51.22125 82.982515 
L 51.327766 82.616611 
L 51.53125 82.217443 
L 51.634583 81.851539 
L 51.863773 81.119731 
L 52.093125 80.487715 
L 52.177119 80.288131 
L 53.098061 78.491875 
L 53.207859 78.325555 
L 53.70125 77.194579 
L 53.861486 77.028259 
L 53.984848 76.762147 
L 54.191948 76.329715 
L 54.32125 75.664435 
L 54.40321 75.498115 
L 54.489706 75.198739 
L 54.63125 75.032419 
L 54.722426 74.699779 
L 54.874821 74.500195 
L 55.022504 74.101027 
L 55.188153 73.302691 
L 55.280379 73.136371 
L 55.656635 72.138451 
L 55.742481 72.005395 
L 56.152383 71.306851 
L 56.249174 71.140531 
L 56.387917 70.841155 
L 56.686925 70.475251 
L 57.074134 69.577123 
L 57.206162 69.377539 
L 57.304175 69.111427 
L 57.501945 68.911843 
L 57.627917 68.712259 
L 57.901372 68.479411 
L 57.984886 68.213299 
L 58.171776 68.046979 
L 58.337772 67.814131 
L 59.475 65.951347 
L 59.694583 65.452387 
L 60.193015 64.554259 
L 60.402527 64.387939 
L 60.765237 63.722659 
L 61.007538 63.489811 
L 61.247104 62.857795 
L 61.63725 62.591683 
L 61.920554 62.358835 
L 62.475595 61.926403 
L 62.615291 61.627027 
L 62.806093 61.294387 
L 63.218263 60.895219 
L 63.31125 60.695635 
L 63.651533 60.263203 
L 63.722719 60.163411 
L 63.994272 59.930563 
L 64.655153 58.999171 
L 65.082559 58.799587 
L 65.204464 58.666531 
L 65.4587 58.400419 
L 65.580816 58.234099 
L 68.374583 55.074019 
L 68.531706 54.641587 
L 68.738032 54.442003 
L 69.253377 54.042835 
L 69.35625 53.909779 
L 70.136397 53.444083 
L 70.240513 53.377555 
L 70.539036 53.078179 
L 70.822166 52.878595 
L 70.8358 52.812067 
L 71.06125 52.679011 
L 71.252019 52.479427 
L 71.517872 52.346371 
L 71.706777 52.146787 
L 72.235492 51.780883 
L 72.251627 51.747619 
L 72.617562 51.581299 
L 72.96815 51.049075 
L 73.444885 50.683171 
L 73.525594 50.483587 
L 73.785542 50.250739 
L 75.014728 49.153027 
L 75.041015 49.086499 
L 75.40125 48.886915 
L 75.641997 48.487747 
L 75.811892 48.354691 
L 75.86625 48.221635 
L 76.345781 48.055315 
L 77.477377 46.924339 
L 77.486972 46.891075 
L 77.817047 46.724755 
L 78.300671 46.425379 
L 78.96625 46.259059 
L 80.316964 45.360931 
L 80.660149 45.294403 
L 80.774583 45.094819 
L 81.512679 44.828707 
L 82.160098 44.429539 
L 82.342875 44.263219 
L 83.30625 43.431619 
L 83.750735 43.232035 
L 83.874583 43.032451 
L 84.08125 42.866131 
L 84.169821 42.733075 
L 84.602354 42.500227 
L 85.525707 41.968003 
L 85.985683 41.801683 
L 88.022912 40.670707 
L 88.13924 40.604179 
L 88.302547 40.437859 
L 88.49588 40.271539 
L 89.106288 40.005427 
L 89.66125 39.606259 
L 90.308209 39.373411 
L 90.514178 39.240355 
L 91.031002 39.040771 
L 91.076806 38.940979 
L 91.875536 38.641603 
L 92.053759 38.541811 
L 93.189406 37.843267 
L 93.274024 37.710211 
L 93.435462 37.543891 
L 93.6525 37.444099 
L 94.043107 37.244515 
L 95.419894 36.279859 
L 95.936286 35.980483 
L 96.151068 35.814163 
L 96.437027 35.647843 
L 96.63625 35.414995 
L 97.53525 35.082355 
L 97.72125 34.949299 
L 98.267541 34.782979 
L 98.65125 34.550131 
L 99.243572 34.284019 
L 99.600173 34.117699 
L 101.15138 33.452419 
L 101.241415 33.352627 
L 102.347722 33.019987 
L 102.37125 32.953459 
L 102.915586 32.687347 
L 103.020039 32.620819 
L 103.378405 32.454499 
L 105.872246 31.390051 
L 106.556023 31.223731 
L 106.747674 31.057411 
L 107.049312 30.891091 
L 107.95125 30.491923 
L 108.26817 30.425395 
L 108.650197 30.292339 
L 108.706875 30.225811 
L 109.65625 29.826643 
L 111.112591 29.660323 
L 111.414603 29.593795 
L 112.689703 29.360947 
L 113.402351 29.194627 
L 116.358953 28.363027 
L 117.08477 28.229971 
L 117.708623 27.930595 
L 117.736509 27.864067 
L 119.411417 27.564691 
L 119.627917 27.431635 
L 120.148558 27.265315 
L 120.873355 27.098995 
L 122.185292 26.766355 
L 125.440868 26.167603 
L 125.501008 26.134339 
L 126.352859 26.001283 
L 126.450616 25.934755 
L 127.48125 25.668643 
L 127.585829 25.602115 
L 128.20584 25.369267 
L 128.41125 25.302739 
L 129.171414 25.036627 
L 129.935062 24.870307 
L 129.953794 24.837043 
L 131.132214 24.537667 
L 131.358795 24.471139 
L 134.020313 23.938915 
L 134.063779 23.905651 
L 137.219297 23.506483 
L 138.498535 23.373427 
L 138.64125 23.340163 
L 138.64125 23.207107 
L 139.380267 23.007523 
L 140.366945 22.874467 
L 140.815105 22.741411 
L 141.732273 22.575091 
L 142.161493 22.475299 
L 142.765598 22.342243 
L 142.832209 22.308979 
L 146.77875 21.843283 
L 148.282754 21.543907 
L 150.256723 21.311059 
L 150.46711 21.211267 
L 151.835612 21.044947 
L 152.279145 20.945155 
L 154.518473 20.712307 
L 154.56757 20.679043 
L 156.530074 20.446195 
L 156.682411 20.346403 
L 156.903068 20.279875 
L 160.49625 19.747651 
L 162.41205 19.514803 
L 162.439546 19.481539 
L 167.721635 18.816259 
L 170.625451 18.616675 
L 170.635704 18.583411 
L 172.12125 18.383827 
L 172.986621 18.217507 
L 176.077044 18.017923 
L 176.140661 17.984659 
L 184.268482 17.219587 
L 188.006002 17.053267 
L 188.038214 17.020003 
L 189.08445 16.953475 
L 198.53325 16.155139 
L 201.302794 16.022083 
L 214.66875 15.323539 
L 224.678187 15.090691 
L 225.700598 14.957635 
L 230.01375 14.724787 
L 242.300517 14.059507 
L 259.547312 13.494019 
L 263.329403 13.327699 
L 266.46572 13.227907 
L 281.101979 12.995059 
L 281.101979 12.995059 
" clip-path="url(#p5e4a448e34)" style="fill: none; stroke: #1f77b4; stroke-opacity: 0.8; stroke-width: 1.5; stroke-linecap: square"/>
   </g>
   <g id="line2d_13">
    <path d="M 43.78125 126.362642 
L 43.86593 126.191581 
L 44.036433 118.59648 
L 44.390294 111.788259 
L 44.48125 110.214499 
L 44.597981 108.948649 
L 44.611872 108.469679 
L 44.79943 105.869554 
L 44.948646 104.672129 
L 45.073983 103.303642 
L 45.307068 101.661458 
L 45.599454 99.129758 
L 45.644231 98.958697 
L 45.87375 97.350725 
L 45.941648 97.11124 
L 46.12485 95.742753 
L 46.256381 94.955873 
L 46.539725 93.621599 
L 46.583773 93.416326 
L 46.696175 93.039992 
L 48.66375 84.931709 
L 48.779665 84.726436 
L 48.899817 84.247466 
L 48.98925 83.871132 
L 49.08225 83.665859 
L 49.17614 83.357949 
L 49.36125 82.776342 
L 49.464583 82.502645 
L 49.68679 81.236795 
L 50.017419 79.73146 
L 50.074926 79.491975 
L 50.200661 79.115641 
L 50.29125 78.876156 
L 50.394583 78.534034 
L 50.500621 78.191912 
L 50.648942 77.610305 
L 50.819659 77.233972 
L 51.639543 75.420727 
L 51.796293 74.975969 
L 51.886586 74.770696 
L 52.027245 74.462786 
L 52.209375 73.949604 
L 52.351584 73.744331 
L 52.476113 73.539058 
L 52.703391 72.923239 
L 52.827936 72.546905 
L 52.965 72.273208 
L 53.672134 71.21263 
L 54.207468 70.425751 
L 54.32125 69.980992 
L 55.571389 68.270384 
L 55.653071 68.133536 
L 55.801565 67.962475 
L 55.998749 67.586141 
L 56.139077 67.41508 
L 56.38125 67.038746 
L 58.664309 63.822803 
L 58.863401 63.583317 
L 59.12625 63.412257 
L 59.216549 63.138559 
L 59.964985 62.146407 
L 60.034116 61.975346 
L 60.255536 61.735861 
L 60.456571 61.496375 
L 61.345439 60.538435 
L 61.45125 60.333162 
L 62.58463 59.238372 
L 62.663518 59.067312 
L 62.981239 58.862039 
L 63.095671 58.690978 
L 63.827917 57.733037 
L 64.041482 57.561976 
L 64.18947 57.390915 
L 64.297292 57.15143 
L 64.494886 56.809309 
L 64.70625 56.638248 
L 64.70625 56.535611 
L 64.932081 56.364551 
L 65.274583 55.988217 
L 65.368096 55.88558 
L 65.894583 55.40661 
L 66.018379 55.235549 
L 66.204583 55.0987 
L 66.364119 54.859215 
L 66.528213 54.61973 
L 66.838192 54.311821 
L 67.03125 54.106548 
L 67.12425 53.901275 
L 67.444583 53.559153 
L 67.830381 53.319668 
L 67.947114 53.148607 
L 68.19375 52.943334 
L 68.254275 52.806485 
L 68.387248 52.669637 
L 69.24 52.053818 
L 69.419832 51.848545 
L 69.589446 51.745908 
L 69.734836 51.437999 
L 69.982626 50.959028 
L 70.93725 49.830027 
L 71.1 49.693178 
L 71.424496 49.419481 
L 71.637656 49.282632 
L 72.171385 48.76945 
L 72.491448 48.529965 
L 73.638632 47.811509 
L 73.891743 47.67466 
L 75.907337 45.895628 
L 76.434583 45.724567 
L 76.559597 45.587718 
L 76.95125 45.45087 
L 77.096231 45.279809 
L 77.44725 45.074536 
L 78.532802 44.595566 
L 79.224583 44.013959 
L 79.278197 43.945534 
L 79.888613 43.740261 
L 83.284873 41.34541 
L 83.4225 41.174349 
L 84.44124 40.490106 
L 85.111457 39.703226 
L 85.490999 39.566377 
L 85.63222 39.361104 
L 85.94125 39.190043 
L 85.94125 39.155831 
L 86.332236 39.018982 
L 86.613001 38.779497 
L 87.562788 38.02683 
L 88.04925 37.855769 
L 88.083068 37.71892 
L 88.32464 37.547859 
L 88.524583 37.411011 
L 89.129022 37.137313 
L 89.16525 37.068889 
L 89.719443 36.829404 
L 89.90925 36.658343 
L 90.365795 36.247797 
L 91.319931 35.9741 
L 91.55625 35.734615 
L 91.827719 35.597766 
L 91.937046 35.495129 
L 92.19058 35.358281 
L 93.503512 34.913523 
L 93.693263 34.810886 
L 94.732754 34.434552 
L 95.288942 34.160855 
L 96.12151 33.681885 
L 97.325037 33.168702 
L 97.434985 32.963429 
L 97.856055 32.758156 
L 98.03125 32.689732 
L 98.46525 32.518671 
L 99.029632 32.244974 
L 99.534122 32.039701 
L 99.666612 31.937064 
L 100.235694 31.663367 
L 100.522326 31.458094 
L 101.027917 31.184397 
L 101.570493 31.013336 
L 102.536378 30.671214 
L 102.68125 30.60279 
L 103.508783 30.431729 
L 105.021407 30.021183 
L 105.170838 29.918546 
L 105.987917 29.644849 
L 106.009311 29.610637 
L 106.973873 29.302727 
L 107.02125 29.097454 
L 108.142644 28.686908 
L 108.474555 28.413211 
L 110.829665 27.489483 
L 111.531412 27.352634 
L 111.538393 27.318422 
L 112.27676 27.113149 
L 112.420581 27.044724 
L 113.698306 26.360481 
L 113.76375 26.326269 
L 114.561116 26.155208 
L 116.262528 25.573601 
L 116.888202 25.436753 
L 117.146676 25.265692 
L 119.156248 24.92357 
L 119.46 24.718297 
L 120.544801 24.581449 
L 125.62125 23.760357 
L 127.200496 23.247174 
L 127.310971 23.17875 
L 128.9925 22.939265 
L 131.605482 22.255021 
L 132.157655 22.08396 
L 133.390747 21.639202 
L 134.596049 21.433929 
L 135.104614 21.262868 
L 135.163201 21.228656 
L 139.57125 20.681262 
L 139.837481 20.544413 
L 141.761891 20.099655 
L 141.970753 20.031231 
L 146.08125 19.586472 
L 146.792426 19.346987 
L 148.909225 19.141714 
L 148.942788 19.107502 
L 151.282573 18.970653 
L 152.36805 18.833805 
L 153.99808 18.59432 
L 156.196534 18.354834 
L 156.330039 18.28641 
L 157.403486 18.115349 
L 157.61325 18.046925 
L 159.705098 17.875864 
L 162.664448 17.533742 
L 164.723911 17.362682 
L 165.187585 17.328469 
L 169.500341 17.191621 
L 169.535943 17.157409 
L 171.266493 16.952136 
L 171.369963 16.917923 
L 176.845192 16.438953 
L 176.883798 16.404741 
L 178.939517 16.199468 
L 181.895121 15.788922 
L 182.751061 15.720498 
L 189.437954 15.515225 
L 244.19625 13.291434 
L 256.20471 13.120373 
L 256.431211 13.086161 
L 272.233015 12.880888 
L 272.576337 12.812464 
L 284.523469 12.607191 
L 284.523469 12.607191 
" clip-path="url(#p5e4a448e34)" style="fill: none; stroke: #ff7f0e; stroke-opacity: 0.8; stroke-width: 1.5; stroke-linecap: square"/>
   </g>
   <g id="line2d_14">
    <path d="M 43.78125 122.397848 
L 43.874546 122.257768 
L 44.125694 111.261487 
L 44.582803 102.646567 
L 44.607917 102.261347 
L 44.751283 100.265206 
L 44.866823 99.284646 
L 44.982485 98.339106 
L 45.109821 97.253486 
L 45.21963 96.342966 
L 45.552105 93.996626 
L 45.65015 93.436306 
L 45.721316 93.121126 
L 46.441535 89.409005 
L 46.476473 89.163865 
L 46.67921 88.078245 
L 46.827524 87.658005 
L 46.984038 86.747485 
L 47.161692 86.187165 
L 47.207566 85.977045 
L 47.499413 84.611265 
L 47.617714 83.630705 
L 47.68725 83.315525 
L 47.950005 82.159865 
L 48.071552 81.634565 
L 48.267872 81.004205 
L 48.366366 80.724045 
L 48.5221 80.268785 
L 48.739727 79.918585 
L 48.863315 79.533365 
L 49.168499 78.552805 
L 49.567917 76.661724 
L 49.780226 75.891284 
L 50.05875 75.015784 
L 50.158393 74.595544 
L 50.301905 73.965184 
L 50.410953 73.720044 
L 50.512041 73.544944 
L 50.883589 72.739484 
L 51.108982 72.389284 
L 51.368559 71.723904 
L 51.493432 71.548804 
L 51.809659 70.953464 
L 52.46125 69.902864 
L 52.558778 69.657724 
L 54.053523 66.786084 
L 54.223534 66.330824 
L 54.38509 66.120703 
L 54.59493 65.945603 
L 54.776692 65.455323 
L 54.85619 65.280223 
L 54.982279 64.930023 
L 55.136008 64.719903 
L 55.249044 64.544803 
L 55.411084 64.334683 
L 55.916332 63.319103 
L 56.010662 63.249063 
L 56.079236 63.073963 
L 56.18125 62.933883 
L 56.404143 62.793803 
L 56.533931 62.478623 
L 56.86484 61.988343 
L 57.001438 61.848263 
L 57.100179 61.673163 
L 57.214515 61.498063 
L 57.382055 61.393003 
L 57.595813 61.217903 
L 57.707442 61.042803 
L 58.23774 60.447463 
L 58.35125 60.272363 
L 58.917366 59.677023 
L 59.051051 59.501923 
L 59.259553 59.221763 
L 59.774881 58.766503 
L 59.991922 58.416303 
L 60.315242 58.241203 
L 60.614769 58.031083 
L 60.682212 57.926023 
L 60.888349 57.750923 
L 61.347917 57.190603 
L 61.509375 56.945463 
L 62.350007 56.210043 
L 62.470245 55.929883 
L 62.797496 55.614703 
L 63.080435 55.264503 
L 63.332964 55.019363 
L 63.576964 54.809243 
L 63.724583 54.634142 
L 63.938702 54.459042 
L 64.23056 54.108842 
L 64.35961 53.898722 
L 65.205871 53.023222 
L 65.604545 52.708042 
L 65.918059 52.357842 
L 66.10125 52.217762 
L 66.328467 51.867562 
L 66.625786 51.692462 
L 66.841472 51.342262 
L 67.325501 50.922022 
L 67.413312 50.746922 
L 68.510795 50.291662 
L 68.646874 50.221622 
L 68.89125 50.046522 
L 68.991229 49.836402 
L 69.219444 49.591262 
L 69.688393 49.206042 
L 70.028302 48.960902 
L 70.234583 48.750782 
L 70.815186 48.505642 
L 70.896735 48.365562 
L 71.629501 48.050382 
L 71.956913 47.875282 
L 72.089328 47.735202 
L 75.154228 45.739062 
L 75.297917 45.528942 
L 75.606345 45.318822 
L 75.693234 45.213762 
L 76.028751 45.003642 
L 76.233032 44.863562 
L 76.841774 44.618422 
L 79.391774 42.727341 
L 79.464914 42.657301 
L 79.965338 42.482201 
L 80.245491 42.237061 
L 80.36125 42.096981 
L 81.469815 41.606701 
L 81.589327 41.501641 
L 82.725 40.976341 
L 82.84125 40.766221 
L 83.733322 40.345981 
L 84.031453 40.100841 
L 84.188147 39.890721 
L 84.435536 39.645581 
L 84.80334 39.435461 
L 85.015447 39.225341 
L 85.744078 38.980201 
L 86.722411 38.384861 
L 87.130292 38.174741 
L 88.113152 37.544381 
L 88.55841 37.369281 
L 89.144583 37.054101 
L 89.484701 36.914021 
L 89.665329 36.738921 
L 89.953475 36.528801 
L 90.091318 36.458761 
L 90.580706 36.318681 
L 90.642198 36.213621 
L 92.037578 35.723341 
L 92.14125 35.653301 
L 92.417336 35.408161 
L 92.543973 35.303101 
L 93.53625 34.812821 
L 93.99448 34.637721 
L 94.122554 34.532661 
L 94.470556 34.357561 
L 94.472196 34.322541 
L 94.70625 34.147441 
L 94.938388 33.972341 
L 95.69356 33.797241 
L 97.445223 32.746641 
L 97.53525 32.641581 
L 97.72125 32.501501 
L 97.830078 32.361421 
L 98.065915 32.291381 
L 99.2325 32.081261 
L 99.58125 31.836121 
L 99.656412 31.766081 
L 100.506442 31.485921 
L 102.474583 30.68046 
L 102.618118 30.61042 
L 106.506682 29.10456 
L 106.917917 28.75436 
L 107.154107 28.4742 
L 107.200264 28.40416 
L 108.038601 28.124 
L 108.044695 28.08898 
L 108.488176 27.91388 
L 109.17308 27.4236 
L 110.354698 27.17846 
L 110.729657 26.96834 
L 111.806208 26.68818 
L 112.06956 26.51308 
L 112.704583 26.26794 
L 112.710662 26.23292 
L 113.20122 26.05782 
L 114.284867 25.91774 
L 115.39125 25.70762 
L 116.031048 25.39244 
L 116.78625 25.21734 
L 117.370052 24.7971 
L 118.912332 24.41188 
L 118.946053 24.34184 
L 119.393068 24.20176 
L 119.465955 24.13172 
L 119.741876 23.99164 
L 120.015995 23.85156 
L 120.961158 23.71148 
L 122.075753 23.50136 
L 123.676705 23.25622 
L 124.425536 23.01108 
L 125.001835 22.83598 
L 125.086019 22.76594 
L 125.385521 22.6959 
L 128.513656 22.1706 
L 128.543435 22.10056 
L 130.258104 21.8204 
L 130.594916 21.71534 
L 133.221737 21.40016 
L 134.06184 21.15502 
L 136.07437 20.9449 
L 136.135913 20.90988 
L 138.623261 20.62972 
L 138.64125 20.55968 
L 139.912701 20.38458 
L 139.917968 20.34956 
L 141.43125 20.13944 
L 143.20734 19.85928 
L 145.201851 19.579119 
L 147.01125 19.404019 
L 147.527917 19.298959 
L 149.363603 19.053819 
L 150.870178 18.878719 
L 152.122927 18.773659 
L 153.973917 18.633579 
L 154.009894 18.563539 
L 159.152944 18.143299 
L 160.96125 17.968199 
L 163.234583 17.793099 
L 163.302641 17.723059 
L 166.511817 17.547959 
L 166.619264 17.512939 
L 171.201356 17.162739 
L 171.260529 17.127719 
L 173.274113 16.917599 
L 173.368049 16.882579 
L 180.120522 16.392299 
L 180.136159 16.357279 
L 181.019733 16.217199 
L 188.056926 15.621859 
L 189.264706 15.551819 
L 189.784511 15.411739 
L 189.83478 15.341699 
L 190.931347 15.166599 
L 198.372337 14.956479 
L 212.491109 14.291099 
L 228.937966 13.835839 
L 229.329359 13.765799 
L 233.102679 13.625719 
L 233.50125 13.590699 
L 239.08125 13.415599 
L 244.013068 13.275519 
L 257.819785 13.065399 
L 257.878477 13.030379 
L 266.42325 12.820259 
L 266.834408 12.750219 
L 279.07125 12.610139 
L 279.07125 12.610139 
" clip-path="url(#p5e4a448e34)" style="fill: none; stroke: #2ca02c; stroke-opacity: 0.8; stroke-width: 1.5; stroke-linecap: square"/>
   </g>
   <g id="line2d_15">
    <path d="M 43.78125 115.291612 
L 43.884748 114.610665 
L 43.995043 107.765357 
L 44.093231 103.536318 
L 44.216217 100.597495 
L 44.311957 98.662172 
L 44.481668 95.615831 
L 44.612314 93.859705 
L 44.763747 91.888542 
L 44.812537 91.458471 
L 44.932072 90.024898 
L 45.016641 89.630666 
L 45.135619 88.412129 
L 45.236215 87.731182 
L 46.26125 81.423464 
L 46.366756 80.634999 
L 46.524228 80.097409 
L 46.708408 79.308944 
L 46.87144 78.735516 
L 48.791031 72.141082 
L 49.552527 70.134081 
L 49.699432 69.453134 
L 50.189998 68.270437 
L 50.318435 67.625329 
L 50.469606 67.302775 
L 50.75625 66.765186 
L 50.8725 66.514311 
L 51.105 66.335114 
L 51.717851 65.080738 
L 51.865909 64.865702 
L 51.962453 64.686506 
L 52.110867 64.435631 
L 52.30625 64.113077 
L 52.46125 63.898041 
L 52.568705 63.647166 
L 52.767446 63.109576 
L 52.874583 63.002058 
L 53.073487 62.751183 
L 53.201447 62.571986 
L 53.387639 62.39279 
L 53.54625 62.141915 
L 53.895924 61.747682 
L 54.268776 60.923378 
L 54.494135 60.708342 
L 54.649871 60.564985 
L 55.01256 60.206592 
L 55.079137 60.063235 
L 55.169939 59.884038 
L 55.393329 59.525645 
L 55.617614 59.382288 
L 55.772314 59.167252 
L 55.964272 58.808859 
L 56.16578 58.593823 
L 56.629934 57.805358 
L 56.947542 57.482804 
L 57.476702 56.909375 
L 57.644345 56.69434 
L 57.737914 56.371786 
L 58.0824 56.15675 
L 58.166281 56.049232 
L 58.42875 55.798357 
L 58.497283 55.726678 
L 58.740399 55.439964 
L 59.60225 54.185588 
L 59.826533 54.042231 
L 59.976078 53.647998 
L 60.157337 53.504641 
L 60.569945 53.03873 
L 60.83697 52.931212 
L 61.052261 52.644497 
L 61.308173 52.429462 
L 61.63725 52.142747 
L 61.950862 51.891872 
L 62.084888 51.748515 
L 62.585919 51.49764 
L 62.703858 51.318443 
L 62.899005 51.139246 
L 63.282798 50.995889 
L 63.549809 50.780853 
L 63.71104 50.565817 
L 64.69862 49.454799 
L 64.8225 49.275602 
L 65.241658 48.809691 
L 65.41318 48.666334 
L 65.596496 48.487137 
L 65.702679 48.37962 
L 65.803767 48.200423 
L 66.013141 47.913709 
L 66.290819 47.626994 
L 66.366964 47.483637 
L 66.626022 47.34028 
L 66.6825 47.232762 
L 66.84525 47.089404 
L 67.96125 46.229261 
L 68.17002 46.050064 
L 68.297874 45.978386 
L 68.58125 45.691671 
L 68.758393 45.512475 
L 69.305293 45.082403 
L 69.591721 44.903206 
L 69.689447 44.831528 
L 69.925375 44.616492 
L 70.292846 44.437295 
L 70.51875 44.258099 
L 70.657397 44.078902 
L 70.75125 43.971384 
L 71.094385 43.792188 
L 71.258292 43.68467 
L 72.101683 43.254598 
L 72.606111 42.967884 
L 72.61125 42.896205 
L 73.009821 42.717008 
L 73.07625 42.609491 
L 73.572775 42.322776 
L 73.77375 42.251097 
L 74.522917 41.892704 
L 74.564162 41.821026 
L 75.369309 41.641829 
L 75.99221 41.0684 
L 76.33125 40.925043 
L 77.161342 40.494971 
L 77.461165 40.279935 
L 77.783636 40.100739 
L 78.604583 39.670667 
L 79.327917 39.455631 
L 79.534583 39.348113 
L 79.80948 39.061399 
L 79.836635 39.02556 
L 80.138046 38.882202 
L 80.621039 38.774684 
L 81.246964 38.559648 
L 81.25318 38.48797 
L 82.014583 38.237095 
L 82.427917 37.878702 
L 83.76056 37.269433 
L 83.898607 37.161915 
L 84.403117 36.731844 
L 84.898754 36.516808 
L 84.93375 36.480968 
L 85.697784 36.301772 
L 85.944094 36.086736 
L 86.385962 35.728343 
L 87.60787 35.226593 
L 88.47705 35.047396 
L 88.693229 34.760682 
L 89.203038 34.545646 
L 90.165 34.33061 
L 90.193393 34.258931 
L 90.571846 34.079735 
L 90.582047 34.043895 
L 91.205092 33.82886 
L 91.259833 33.721342 
L 92.406964 33.219591 
L 93.252782 32.968716 
L 93.330618 32.825359 
L 93.6525 32.646162 
L 94.123194 32.395287 
L 95.397692 32.001055 
L 95.97742 31.535144 
L 96.338097 31.320108 
L 97.455979 30.818357 
L 97.969647 30.639161 
L 99.2325 29.994053 
L 99.91304 29.743178 
L 100.298497 29.528142 
L 101.14157 29.241428 
L 101.821934 28.954713 
L 102.60375 28.703838 
L 103.489817 28.524642 
L 104.48372 28.166248 
L 104.644583 27.987052 
L 104.875645 27.843695 
L 105.141242 27.736177 
L 107.95125 26.947712 
L 107.954453 26.911873 
L 108.562022 26.732676 
L 108.584955 26.660997 
L 108.848181 26.589319 
L 109.06725 26.230926 
L 109.20406 26.159247 
L 110.43125 25.872533 
L 110.487132 25.765015 
L 111.538393 25.514139 
L 112.189034 25.227425 
L 114.22875 24.761514 
L 115.524107 24.259764 
L 116.991351 23.973049 
L 117.135 23.829692 
L 117.572511 23.686335 
L 117.633966 23.650495 
L 118.693455 23.507138 
L 119.111748 23.327942 
L 120.183186 23.184584 
L 120.655397 22.969548 
L 123.050997 22.324441 
L 123.360493 22.216923 
L 123.998381 22.037726 
L 124.020199 22.001887 
L 125.103409 21.786851 
L 125.189959 21.715173 
L 127.257801 21.500137 
L 127.617348 21.32094 
L 129.10875 21.177583 
L 130.233888 20.81919 
L 131.245321 20.604154 
L 131.268958 20.532475 
L 132.337917 20.389118 
L 132.891516 20.245761 
L 132.904067 20.209922 
L 134.129507 20.066564 
L 134.811838 19.923207 
L 136.877623 19.744011 
L 138.64125 19.528975 
L 138.64125 19.493135 
L 139.623612 19.349778 
L 141.400924 19.206421 
L 141.560469 19.098903 
L 142.916358 18.919706 
L 143.066676 18.812188 
L 144.118977 18.668831 
L 144.151637 18.632992 
L 146.370887 18.346277 
L 146.652141 18.274599 
L 148.481769 18.059563 
L 149.094921 17.880366 
L 153.52125 17.70117 
L 153.660222 17.66533 
L 155.129627 17.486134 
L 156.768223 17.271098 
L 160.96125 16.876866 
L 160.96125 16.841026 
L 165.77225 16.446794 
L 168.77325 16.160079 
L 169.732207 16.016722 
L 170.732601 15.945044 
L 173.98125 15.765847 
L 180.422643 15.479133 
L 183.183143 15.192418 
L 185.14125 15.049061 
L 185.45797 14.977382 
L 191.65125 14.654828 
L 213.455212 13.902203 
L 216.220646 13.794685 
L 223.611943 13.615488 
L 227.860072 13.436292 
L 239.08125 13.185417 
L 254.438923 13.00622 
L 266.05125 12.719506 
L 267.961102 12.611988 
L 279.53625 12.50447 
L 279.53625 12.50447 
" clip-path="url(#p5e4a448e34)" style="fill: none; stroke: #d62728; stroke-opacity: 0.8; stroke-width: 1.5; stroke-linecap: square"/>
   </g>
   <g id="line2d_16">
    <path d="M 43.78125 108.677137 
L 43.884748 108.05288 
L 43.995043 100.965722 
L 44.01412 100.231302 
L 44.136557 96.449037 
L 44.17856 95.714616 
L 44.358491 91.638583 
L 44.675949 87.709434 
L 44.702476 87.525828 
L 44.8805 85.249125 
L 45.153421 83.302911 
L 45.289358 82.458327 
L 46.064825 78.015084 
L 46.224625 77.243942 
L 46.339145 76.619685 
L 46.91776 73.718724 
L 47.0441 73.20463 
L 47.252063 72.433488 
L 47.451103 71.699068 
L 47.50125 71.515463 
L 47.779604 70.597437 
L 47.880139 70.156785 
L 48.139133 69.018433 
L 48.243289 68.687944 
L 48.374543 68.17385 
L 48.747013 66.962056 
L 48.829821 66.668288 
L 48.96138 66.484683 
L 49.139483 66.00731 
L 49.347996 65.640099 
L 49.884375 64.391585 
L 50.006655 64.171258 
L 50.232223 63.693885 
L 50.331712 63.51028 
L 50.518934 63.179791 
L 50.685795 62.886023 
L 51.088604 62.004718 
L 51.324583 61.600787 
L 51.500143 61.196856 
L 51.681701 61.049972 
L 51.798491 60.792924 
L 52.047917 60.388993 
L 52.44841 59.838178 
L 52.564583 59.397526 
L 52.875326 59.067036 
L 52.977917 58.84671 
L 53.292614 58.332616 
L 53.705547 57.928685 
L 53.842752 57.781801 
L 54.01125 57.598196 
L 54.114583 57.194264 
L 54.276964 57.010659 
L 54.641911 56.496565 
L 54.726123 56.423123 
L 54.833732 56.239518 
L 54.94125 56.019192 
L 55.269617 55.651981 
L 55.40625 55.505097 
L 55.87125 54.88084 
L 55.924255 54.770677 
L 56.11117 54.550351 
L 56.59196 53.926093 
L 56.703953 53.705767 
L 56.804941 53.485441 
L 56.926442 53.118231 
L 57.797996 52.310368 
L 57.844775 52.126763 
L 58.04125 51.979879 
L 58.18302 51.796274 
L 58.318511 51.539227 
L 59.102138 50.878249 
L 59.21925 50.694643 
L 59.90125 49.960223 
L 60.21125 49.776618 
L 60.553197 49.262524 
L 60.808022 49.078918 
L 61.185536 48.601545 
L 61.527065 48.344498 
L 61.562649 48.197614 
L 61.836402 48.014009 
L 62.021663 47.68352 
L 62.266114 47.463194 
L 62.955836 46.581889 
L 63.18333 46.324842 
L 63.419664 46.104516 
L 63.806576 45.920911 
L 64.083422 45.774027 
L 64.19374 45.700584 
L 65.702679 44.341907 
L 66.10125 44.158302 
L 66.10125 44.121581 
L 66.526036 43.937975 
L 66.714205 43.827812 
L 67.114885 43.644207 
L 68.049297 42.909787 
L 68.336513 42.726182 
L 68.58125 42.505856 
L 69.074613 42.212087 
L 69.246921 42.028482 
L 69.751782 41.771435 
L 69.880924 41.697993 
L 70.024348 41.551109 
L 71.146275 41.147178 
L 71.30925 41.000294 
L 71.410901 40.816689 
L 71.44875 40.743247 
L 71.778398 40.596362 
L 71.887917 40.486199 
L 72.197886 40.302594 
L 72.213139 40.265873 
L 73.11756 39.935384 
L 73.134957 39.898663 
L 73.624147 39.751779 
L 74.046949 39.568174 
L 74.267104 39.494732 
L 75.40125 38.797032 
L 75.508687 38.576706 
L 75.5175 38.539985 
L 75.814583 38.393101 
L 75.99093 38.025891 
L 76.02125 37.98917 
L 76.382999 37.842286 
L 77.22734 37.585239 
L 77.26125 37.475076 
L 77.526964 37.29147 
L 77.867252 37.107865 
L 78.12776 36.92426 
L 78.245956 36.630492 
L 78.891362 36.446887 
L 79.7025 35.932793 
L 80.066804 35.785909 
L 80.179488 35.712467 
L 81.505194 35.088209 
L 81.600695 35.014767 
L 81.958048 34.831162 
L 82.044107 34.610836 
L 82.388426 34.463952 
L 82.634583 34.353789 
L 82.956581 34.133463 
L 83.480492 33.802973 
L 83.775745 33.619368 
L 83.874583 33.545926 
L 84.347532 33.3256 
L 84.39125 33.215437 
L 86.074632 32.481017 
L 86.826964 32.26069 
L 86.834605 32.223969 
L 87.49125 31.930201 
L 87.496657 31.89348 
L 88.937917 31.452828 
L 88.952679 31.416107 
L 89.461028 31.195781 
L 89.89375 30.828571 
L 91.934583 29.947266 
L 92.690795 29.763661 
L 93.01505 29.653498 
L 94.289871 29.433172 
L 97.511676 28.147936 
L 98.857917 27.854168 
L 99.6975 27.523679 
L 100.20125 27.340074 
L 101.971453 26.789258 
L 102.067106 26.679095 
L 103.386256 26.532211 
L 103.404583 26.49549 
L 104.747917 26.165001 
L 104.831954 26.091559 
L 106.78875 25.393859 
L 107.101422 25.100091 
L 108.26125 24.843044 
L 108.467917 24.732881 
L 110.400426 24.108624 
L 111.507328 23.888297 
L 111.567917 23.814855 
L 112.128409 23.63125 
L 112.191004 23.594529 
L 113.079302 23.410924 
L 113.53125 23.190598 
L 114.92625 22.970272 
L 115.030819 22.89683 
L 116.444822 22.456178 
L 117.01875 22.309294 
L 118.33772 21.978804 
L 118.87875 21.83192 
L 122.029468 21.024058 
L 123.570157 20.767011 
L 124.09009 20.620126 
L 125.488393 20.289637 
L 127.66725 20.03259 
L 129.370313 19.628659 
L 130.787917 19.445054 
L 131.006953 19.371612 
L 136.62625 18.563749 
L 137.01375 18.490307 
L 140.26052 18.306702 
L 141.43125 18.159818 
L 142.906326 18.012934 
L 143.121346 17.976213 
L 147.348836 17.719166 
L 147.355694 17.682445 
L 149.443565 17.351956 
L 151.28925 17.205071 
L 152.995189 16.984745 
L 153.591137 16.874582 
L 156.23253 16.654256 
L 159.202451 16.360488 
L 160.96125 16.213604 
L 162.68587 15.919836 
L 165.257491 15.736231 
L 165.981987 15.662789 
L 172.18007 15.258857 
L 172.386058 15.148694 
L 190.25625 14.340832 
L 190.72125 14.26739 
L 205.91125 14.010343 
L 214.051828 13.716574 
L 214.914297 13.679853 
L 230.035721 13.422806 
L 233.50125 13.312643 
L 266.05125 12.578223 
L 279.53625 12.541502 
L 279.53625 12.541502 
" clip-path="url(#p5e4a448e34)" style="fill: none; stroke: #9467bd; stroke-opacity: 0.8; stroke-width: 1.5; stroke-linecap: square"/>
   </g>
   <g id="line2d_17">
    <path d="M 43.78125 105.271335 
L 43.884748 105.008738 
L 43.996526 97.656038 
L 44.757765 83.175721 
L 44.812764 82.913125 
L 44.952359 80.962409 
L 45.552679 76.723352 
L 45.631339 76.460756 
L 45.65015 75.860535 
L 45.78978 75.297829 
L 45.915676 74.960205 
L 46.317634 72.971975 
L 46.38525 72.746892 
L 47.450291 69.14557 
L 47.548431 68.920487 
L 47.787404 68.170212 
L 47.902479 67.832588 
L 48.841295 65.16911 
L 48.968339 65.019054 
L 49.20625 64.68143 
L 50.822679 60.479888 
L 50.946153 60.292319 
L 51.056387 59.992209 
L 51.22125 59.842154 
L 51.331508 59.467016 
L 51.488236 59.166906 
L 51.618573 58.904309 
L 51.847145 58.454144 
L 52.054672 58.229061 
L 52.785951 57.403758 
L 52.935938 57.178675 
L 53.61717 56.12829 
L 53.768467 55.940721 
L 54.085157 55.453042 
L 54.357062 54.927849 
L 54.527917 54.74028 
L 54.675962 54.515197 
L 55.351332 53.577353 
L 55.738393 53.202215 
L 55.848567 53.05216 
L 56.10375 52.526967 
L 56.471847 52.226857 
L 56.56875 52.001775 
L 56.706885 51.851719 
L 57.73125 51.176472 
L 58.142575 50.76382 
L 58.434034 50.501224 
L 58.66125 50.351168 
L 59.115979 49.901003 
L 59.28125 49.638407 
L 59.74625 49.225755 
L 59.808355 49.150728 
L 59.989821 48.963159 
L 60.21125 48.700562 
L 60.584659 48.287911 
L 60.727917 48.137856 
L 61.27268 47.837746 
L 61.92937 46.974929 
L 62.154421 46.78736 
L 62.254547 46.712332 
L 62.463103 46.48725 
L 62.484583 46.412222 
L 62.84625 46.262167 
L 63.184432 46.037084 
L 63.235912 45.924543 
L 63.464161 45.774488 
L 63.779532 45.39935 
L 64.125 45.249295 
L 64.24125 45.061726 
L 64.617339 44.874157 
L 64.694884 44.761616 
L 65.447304 44.161396 
L 65.692774 43.936313 
L 67.49625 42.660845 
L 67.49625 42.585817 
L 68.025226 42.210679 
L 68.281565 42.098138 
L 68.663881 41.835542 
L 68.846366 41.572945 
L 69.664591 40.935211 
L 70.051882 40.747642 
L 70.17 40.597587 
L 71.007125 40.109908 
L 71.481415 39.959853 
L 71.486225 39.922339 
L 72.14625 39.697256 
L 72.689634 39.284605 
L 72.825865 39.209577 
L 73.044205 39.059522 
L 73.13125 38.946981 
L 73.479627 38.721898 
L 73.608486 38.609357 
L 74.640341 38.384274 
L 74.65129 38.346761 
L 75.102321 38.196705 
L 75.106022 38.159192 
L 75.417112 38.009137 
L 75.975596 37.671513 
L 76.211769 37.521458 
L 76.79625 37.333889 
L 77.290013 37.071292 
L 77.470354 36.996265 
L 78.084685 36.696154 
L 78.19125 36.508586 
L 78.679507 36.245989 
L 79.290341 36.05842 
L 80.504527 35.608255 
L 80.925628 35.4582 
L 80.98125 35.345659 
L 81.497917 35.15809 
L 81.58125 35.083062 
L 82.148633 34.895493 
L 82.210496 34.820466 
L 82.383642 34.632897 
L 82.68625 34.520356 
L 83.001293 34.332787 
L 83.483957 34.182732 
L 84.93375 33.732566 
L 85.114861 33.620025 
L 85.460562 33.46997 
L 85.63348 33.319915 
L 85.790572 33.207373 
L 86.83078 32.757208 
L 87.661372 32.607153 
L 87.6855 32.569639 
L 88.698862 32.232015 
L 89.536122 31.78185 
L 89.990625 31.631795 
L 90.54475 31.406712 
L 93.156806 30.281299 
L 94.488328 29.906161 
L 95.62875 29.380968 
L 96.461334 29.155886 
L 96.658393 29.005831 
L 97.284489 28.743234 
L 97.459106 28.630693 
L 97.960312 28.480638 
L 97.98913 28.443124 
L 98.46525 28.255555 
L 98.766858 28.1055 
L 99.190346 27.917931 
L 99.6975 27.730362 
L 99.97136 27.580307 
L 100.032875 27.467766 
L 101.403323 27.130142 
L 101.983237 26.980087 
L 102.973474 26.679977 
L 103.06875 26.567435 
L 103.85925 26.41738 
L 105.025152 26.042242 
L 105.38125 25.854674 
L 107.20725 25.366994 
L 108.58998 25.104398 
L 109.08125 24.879315 
L 109.25325 24.804288 
L 109.99725 24.616719 
L 110.104233 24.579205 
L 111.439392 24.391636 
L 113.91404 23.566333 
L 114.686346 23.303737 
L 118.2975 22.253351 
L 120.04125 22.028269 
L 122.338427 21.615617 
L 122.371852 21.578103 
L 123.494405 21.390534 
L 123.585408 21.240479 
L 124.448641 21.090424 
L 125.047106 20.902855 
L 125.922826 20.790314 
L 125.93125 20.715286 
L 128.692048 20.115066 
L 128.707236 20.077552 
L 130.048735 19.85247 
L 130.477425 19.702414 
L 131.759844 19.589873 
L 133.52625 19.364791 
L 133.657172 19.214735 
L 140.104062 18.389432 
L 141.43125 18.051808 
L 141.43125 18.014295 
L 143.662898 17.826726 
L 151.28925 17.339047 
L 153.537912 17.038936 
L 156.77082 16.813854 
L 156.802884 16.77634 
L 158.03175 16.626285 
L 162.35625 16.47623 
L 163.352679 16.288661 
L 168.399179 15.951037 
L 168.40125 15.913523 
L 168.793577 15.838496 
L 172.6002 15.688441 
L 173.671579 15.613413 
L 175.972837 15.425844 
L 176.662061 15.313303 
L 180.615645 15.163248 
L 186.170328 14.863138 
L 190.02375 14.713082 
L 190.498883 14.563027 
L 191.34125 14.450486 
L 203.04375 14.262917 
L 203.085591 14.225403 
L 214.9365 13.925293 
L 216.14125 13.850266 
L 217.817448 13.775238 
L 226.29375 13.587669 
L 230.8513 13.437614 
L 241.165705 13.250045 
L 241.425536 13.175018 
L 259.048023 12.724852 
L 278.279493 12.574797 
L 278.279493 12.574797 
" clip-path="url(#p5e4a448e34)" style="fill: none; stroke: #8c564b; stroke-opacity: 0.8; stroke-width: 1.5; stroke-linecap: square"/>
   </g>
   <g id="patch_3">
    <path d="M 43.78125 127.423219 
L 43.78125 10.999219 
" style="fill: none; stroke: #000000; stroke-width: 0.8; stroke-linejoin: miter; stroke-linecap: square"/>
   </g>
   <g id="patch_4">
    <path d="M 278.14125 127.423219 
L 278.14125 10.999219 
" style="fill: none; stroke: #000000; stroke-width: 0.8; stroke-linejoin: miter; stroke-linecap: square"/>
   </g>
   <g id="patch_5">
    <path d="M 43.78125 127.423219 
L 278.14125 127.423219 
" style="fill: none; stroke: #000000; stroke-width: 0.8; stroke-linejoin: miter; stroke-linecap: square"/>
   </g>
   <g id="patch_6">
    <path d="M 43.78125 10.999219 
L 278.14125 10.999219 
" style="fill: none; stroke: #000000; stroke-width: 0.8; stroke-linejoin: miter; stroke-linecap: square"/>
   </g>
   <g id="legend_1">
    <g id="text_14">
     <!-- Clickstream Length -->
     <g transform="translate(172.60375 28.274781) scale(0.1 -0.1)">
      <defs>
       <path id="DejaVuSans-6c" d="M 603 4863 
L 1178 4863 
L 1178 0 
L 603 0 
L 603 4863 
z
" transform="scale(0.015625)"/>
       <path id="DejaVuSans-6b" d="M 581 4863 
L 1159 4863 
L 1159 1991 
L 2875 3500 
L 3609 3500 
L 1753 1863 
L 3688 0 
L 2938 0 
L 1159 1709 
L 1159 0 
L 581 0 
L 581 4863 
z
" transform="scale(0.015625)"/>
       <path id="DejaVuSans-61" d="M 2194 1759 
Q 1497 1759 1228 1600 
Q 959 1441 959 1056 
Q 959 750 1161 570 
Q 1363 391 1709 391 
Q 2188 391 2477 730 
Q 2766 1069 2766 1631 
L 2766 1759 
L 2194 1759 
z
M 3341 1997 
L 3341 0 
L 2766 0 
L 2766 531 
Q 2569 213 2275 61 
Q 1981 -91 1556 -91 
Q 1019 -91 701 211 
Q 384 513 384 1019 
Q 384 1609 779 1909 
Q 1175 2209 1959 2209 
L 2766 2209 
L 2766 2266 
Q 2766 2663 2505 2880 
Q 2244 3097 1772 3097 
Q 1472 3097 1187 3025 
Q 903 2953 641 2809 
L 641 3341 
Q 956 3463 1253 3523 
Q 1550 3584 1831 3584 
Q 2591 3584 2966 3190 
Q 3341 2797 3341 1997 
z
" transform="scale(0.015625)"/>
       <path id="DejaVuSans-6d" d="M 3328 2828 
Q 3544 3216 3844 3400 
Q 4144 3584 4550 3584 
Q 5097 3584 5394 3201 
Q 5691 2819 5691 2113 
L 5691 0 
L 5113 0 
L 5113 2094 
Q 5113 2597 4934 2840 
Q 4756 3084 4391 3084 
Q 3944 3084 3684 2787 
Q 3425 2491 3425 1978 
L 3425 0 
L 2847 0 
L 2847 2094 
Q 2847 2600 2669 2842 
Q 2491 3084 2119 3084 
Q 1678 3084 1418 2786 
Q 1159 2488 1159 1978 
L 1159 0 
L 581 0 
L 581 3500 
L 1159 3500 
L 1159 2956 
Q 1356 3278 1631 3431 
Q 1906 3584 2284 3584 
Q 2666 3584 2933 3390 
Q 3200 3197 3328 2828 
z
" transform="scale(0.015625)"/>
       <path id="DejaVuSans-4c" d="M 628 4666 
L 1259 4666 
L 1259 531 
L 3531 531 
L 3531 0 
L 628 0 
L 628 4666 
z
" transform="scale(0.015625)"/>
       <path id="DejaVuSans-67" d="M 2906 1791 
Q 2906 2416 2648 2759 
Q 2391 3103 1925 3103 
Q 1463 3103 1205 2759 
Q 947 2416 947 1791 
Q 947 1169 1205 825 
Q 1463 481 1925 481 
Q 2391 481 2648 825 
Q 2906 1169 2906 1791 
z
M 3481 434 
Q 3481 -459 3084 -895 
Q 2688 -1331 1869 -1331 
Q 1566 -1331 1297 -1286 
Q 1028 -1241 775 -1147 
L 775 -588 
Q 1028 -725 1275 -790 
Q 1522 -856 1778 -856 
Q 2344 -856 2625 -561 
Q 2906 -266 2906 331 
L 2906 616 
Q 2728 306 2450 153 
Q 2172 0 1784 0 
Q 1141 0 747 490 
Q 353 981 353 1791 
Q 353 2603 747 3093 
Q 1141 3584 1784 3584 
Q 2172 3584 2450 3431 
Q 2728 3278 2906 2969 
L 2906 3500 
L 3481 3500 
L 3481 434 
z
" transform="scale(0.015625)"/>
      </defs>
      <use xlink:href="#DejaVuSans-43"/>
      <use xlink:href="#DejaVuSans-6c" x="69.824219"/>
      <use xlink:href="#DejaVuSans-69" x="97.607422"/>
      <use xlink:href="#DejaVuSans-63" x="125.390625"/>
      <use xlink:href="#DejaVuSans-6b" x="180.371094"/>
      <use xlink:href="#DejaVuSans-73" x="238.28125"/>
      <use xlink:href="#DejaVuSans-74" x="290.380859"/>
      <use xlink:href="#DejaVuSans-72" x="329.589844"/>
      <use xlink:href="#DejaVuSans-65" x="368.453125"/>
      <use xlink:href="#DejaVuSans-61" x="429.976562"/>
      <use xlink:href="#DejaVuSans-6d" x="491.255859"/>
      <use xlink:href="#DejaVuSans-20" x="588.667969"/>
      <use xlink:href="#DejaVuSans-4c" x="620.455078"/>
      <use xlink:href="#DejaVuSans-65" x="674.417969"/>
      <use xlink:href="#DejaVuSans-6e" x="735.941406"/>
      <use xlink:href="#DejaVuSans-67" x="799.320312"/>
      <use xlink:href="#DejaVuSans-74" x="862.796875"/>
      <use xlink:href="#DejaVuSans-68" x="902.005859"/>
     </g>
    </g>
    <g id="line2d_18">
     <path d="M 203.69125 39.452906 
L 213.69125 39.452906 
L 223.69125 39.452906 
" style="fill: none; stroke: #1f77b4; stroke-opacity: 0.8; stroke-width: 1.5; stroke-linecap: square"/>
    </g>
    <g id="text_15">
     <!-- 0 -->
     <g transform="translate(231.69125 42.952906) scale(0.1 -0.1)">
      <use xlink:href="#DejaVuSans-30"/>
     </g>
    </g>
    <g id="line2d_19">
     <path d="M 203.69125 54.131031 
L 213.69125 54.131031 
L 223.69125 54.131031 
" style="fill: none; stroke: #ff7f0e; stroke-opacity: 0.8; stroke-width: 1.5; stroke-linecap: square"/>
    </g>
    <g id="text_16">
     <!-- 1 -->
     <g transform="translate(231.69125 57.631031) scale(0.1 -0.1)">
      <use xlink:href="#DejaVuSans-31"/>
     </g>
    </g>
    <g id="line2d_20">
     <path d="M 203.69125 68.809156 
L 213.69125 68.809156 
L 223.69125 68.809156 
" style="fill: none; stroke: #2ca02c; stroke-opacity: 0.8; stroke-width: 1.5; stroke-linecap: square"/>
    </g>
    <g id="text_17">
     <!-- 2 -->
     <g transform="translate(231.69125 72.309156) scale(0.1 -0.1)">
      <use xlink:href="#DejaVuSans-32"/>
     </g>
    </g>
    <g id="line2d_21">
     <path d="M 203.69125 83.487281 
L 213.69125 83.487281 
L 223.69125 83.487281 
" style="fill: none; stroke: #d62728; stroke-opacity: 0.8; stroke-width: 1.5; stroke-linecap: square"/>
    </g>
    <g id="text_18">
     <!-- 3 -->
     <g transform="translate(231.69125 86.987281) scale(0.1 -0.1)">
      <use xlink:href="#DejaVuSans-33"/>
     </g>
    </g>
    <g id="line2d_22">
     <path d="M 203.69125 98.165406 
L 213.69125 98.165406 
L 223.69125 98.165406 
" style="fill: none; stroke: #9467bd; stroke-opacity: 0.8; stroke-width: 1.5; stroke-linecap: square"/>
    </g>
    <g id="text_19">
     <!-- 4 -->
     <g transform="translate(231.69125 101.665406) scale(0.1 -0.1)">
      <use xlink:href="#DejaVuSans-34"/>
     </g>
    </g>
    <g id="line2d_23">
     <path d="M 203.69125 112.843531 
L 213.69125 112.843531 
L 223.69125 112.843531 
" style="fill: none; stroke: #8c564b; stroke-opacity: 0.8; stroke-width: 1.5; stroke-linecap: square"/>
    </g>
    <g id="text_20">
     <!-- 5 -->
     <g transform="translate(231.69125 116.343531) scale(0.1 -0.1)">
      <use xlink:href="#DejaVuSans-35"/>
     </g>
    </g>
   </g>
  </g>
 </g>
 <defs>
  <clipPath id="p5e4a448e34">
   <rect x="43.78125" y="10.999219" width="234.36" height="116.424"/>
  </clipPath>
 </defs>
</svg>
