<?xml version="1.0" encoding="utf-8" standalone="no"?>
<!DOCTYPE svg PUBLIC "-//W3C//DTD SVG 1.1//EN"
  "http://www.w3.org/Graphics/SVG/1.1/DTD/svg11.dtd">
<svg xmlns:xlink="http://www.w3.org/1999/xlink" width="294.986562pt" height="143.035469pt" viewBox="0 0 294.986562 143.035469" xmlns="http://www.w3.org/2000/svg" version="1.1">
 <metadata>
  <rdf:RDF xmlns:dc="http://purl.org/dc/elements/1.1/" xmlns:cc="http://creativecommons.org/ns#" xmlns:rdf="http://www.w3.org/1999/02/22-rdf-syntax-ns#">
   <cc:Work>
    <dc:type rdf:resource="http://purl.org/dc/dcmitype/StillImage"/>
    <dc:date>2024-08-28T21:08:13.685128</dc:date>
    <dc:format>image/svg+xml</dc:format>
    <dc:creator>
     <cc:Agent>
      <dc:title>Matplotlib v3.8.4, https://matplotlib.org/</dc:title>
     </cc:Agent>
    </dc:creator>
   </cc:Work>
  </rdf:RDF>
 </metadata>
 <defs>
  <style type="text/css">*{stroke-linejoin: round; stroke-linecap: butt}</style>
 </defs>
 <g id="figure_1">
  <g id="patch_1">
   <path d="M 0 143.035469 
L 294.986562 143.035469 
L 294.986562 0 
L 0 0 
z
" style="fill: #ffffff"/>
  </g>
  <g id="axes_1">
   <g id="patch_2">
    <path d="M 50.14375 105.479219 
L 276.65375 105.479219 
L 276.65375 10.999219 
L 50.14375 10.999219 
z
" style="fill: #ffffff"/>
   </g>
   <g id="matplotlib.axis_1">
    <g id="xtick_1">
     <g id="line2d_1">
      <defs>
       <path id="mac23986321" d="M 0 0 
L 0 3.5 
" style="stroke: #000000; stroke-width: 0.8"/>
      </defs>
      <g>
       <use xlink:href="#mac23986321" x="50.14375" y="105.479219" style="stroke: #000000; stroke-width: 0.8"/>
      </g>
     </g>
     <g id="text_1">
      <!-- −0.10 -->
      <g transform="translate(34.821094 120.077656) scale(0.1 -0.1)">
       <defs>
        <path id="DejaVuSans-2212" d="M 678 2272 
L 4684 2272 
L 4684 1741 
L 678 1741 
L 678 2272 
z
" transform="scale(0.015625)"/>
        <path id="DejaVuSans-30" d="M 2034 4250 
Q 1547 4250 1301 3770 
Q 1056 3291 1056 2328 
Q 1056 1369 1301 889 
Q 1547 409 2034 409 
Q 2525 409 2770 889 
Q 3016 1369 3016 2328 
Q 3016 3291 2770 3770 
Q 2525 4250 2034 4250 
z
M 2034 4750 
Q 2819 4750 3233 4129 
Q 3647 3509 3647 2328 
Q 3647 1150 3233 529 
Q 2819 -91 2034 -91 
Q 1250 -91 836 529 
Q 422 1150 422 2328 
Q 422 3509 836 4129 
Q 1250 4750 2034 4750 
z
" transform="scale(0.015625)"/>
        <path id="DejaVuSans-2e" d="M 684 794 
L 1344 794 
L 1344 0 
L 684 0 
L 684 794 
z
" transform="scale(0.015625)"/>
        <path id="DejaVuSans-31" d="M 794 531 
L 1825 531 
L 1825 4091 
L 703 3866 
L 703 4441 
L 1819 4666 
L 2450 4666 
L 2450 531 
L 3481 531 
L 3481 0 
L 794 0 
L 794 531 
z
" transform="scale(0.015625)"/>
       </defs>
       <use xlink:href="#DejaVuSans-2212"/>
       <use xlink:href="#DejaVuSans-30" x="83.789062"/>
       <use xlink:href="#DejaVuSans-2e" x="147.412109"/>
       <use xlink:href="#DejaVuSans-31" x="179.199219"/>
       <use xlink:href="#DejaVuSans-30" x="242.822266"/>
      </g>
     </g>
    </g>
    <g id="xtick_2">
     <g id="line2d_2">
      <g>
       <use xlink:href="#mac23986321" x="106.77125" y="105.479219" style="stroke: #000000; stroke-width: 0.8"/>
      </g>
     </g>
     <g id="text_2">
      <!-- −0.05 -->
      <g transform="translate(91.448594 120.077656) scale(0.1 -0.1)">
       <defs>
        <path id="DejaVuSans-35" d="M 691 4666 
L 3169 4666 
L 3169 4134 
L 1269 4134 
L 1269 2991 
Q 1406 3038 1543 3061 
Q 1681 3084 1819 3084 
Q 2600 3084 3056 2656 
Q 3513 2228 3513 1497 
Q 3513 744 3044 326 
Q 2575 -91 1722 -91 
Q 1428 -91 1123 -41 
Q 819 9 494 109 
L 494 744 
Q 775 591 1075 516 
Q 1375 441 1709 441 
Q 2250 441 2565 725 
Q 2881 1009 2881 1497 
Q 2881 1984 2565 2268 
Q 2250 2553 1709 2553 
Q 1456 2553 1204 2497 
Q 953 2441 691 2322 
L 691 4666 
z
" transform="scale(0.015625)"/>
       </defs>
       <use xlink:href="#DejaVuSans-2212"/>
       <use xlink:href="#DejaVuSans-30" x="83.789062"/>
       <use xlink:href="#DejaVuSans-2e" x="147.412109"/>
       <use xlink:href="#DejaVuSans-30" x="179.199219"/>
       <use xlink:href="#DejaVuSans-35" x="242.822266"/>
      </g>
     </g>
    </g>
    <g id="xtick_3">
     <g id="line2d_3">
      <g>
       <use xlink:href="#mac23986321" x="163.39875" y="105.479219" style="stroke: #000000; stroke-width: 0.8"/>
      </g>
     </g>
     <g id="text_3">
      <!-- 0.00 -->
      <g transform="translate(152.265938 120.077656) scale(0.1 -0.1)">
       <use xlink:href="#DejaVuSans-30"/>
       <use xlink:href="#DejaVuSans-2e" x="63.623047"/>
       <use xlink:href="#DejaVuSans-30" x="95.410156"/>
       <use xlink:href="#DejaVuSans-30" x="159.033203"/>
      </g>
     </g>
    </g>
    <g id="xtick_4">
     <g id="line2d_4">
      <g>
       <use xlink:href="#mac23986321" x="220.02625" y="105.479219" style="stroke: #000000; stroke-width: 0.8"/>
      </g>
     </g>
     <g id="text_4">
      <!-- 0.05 -->
      <g transform="translate(208.893438 120.077656) scale(0.1 -0.1)">
       <use xlink:href="#DejaVuSans-30"/>
       <use xlink:href="#DejaVuSans-2e" x="63.623047"/>
       <use xlink:href="#DejaVuSans-30" x="95.410156"/>
       <use xlink:href="#DejaVuSans-35" x="159.033203"/>
      </g>
     </g>
    </g>
    <g id="xtick_5">
     <g id="line2d_5">
      <g>
       <use xlink:href="#mac23986321" x="276.65375" y="105.479219" style="stroke: #000000; stroke-width: 0.8"/>
      </g>
     </g>
     <g id="text_5">
      <!-- 0.10 -->
      <g transform="translate(265.520938 120.077656) scale(0.1 -0.1)">
       <use xlink:href="#DejaVuSans-30"/>
       <use xlink:href="#DejaVuSans-2e" x="63.623047"/>
       <use xlink:href="#DejaVuSans-31" x="95.410156"/>
       <use xlink:href="#DejaVuSans-30" x="159.033203"/>
      </g>
     </g>
    </g>
    <g id="text_6">
     <!-- Difference in Distance -->
     <g transform="translate(107.950312 133.755781) scale(0.1 -0.1)">
      <defs>
       <path id="DejaVuSans-44" d="M 1259 4147 
L 1259 519 
L 2022 519 
Q 2988 519 3436 956 
Q 3884 1394 3884 2338 
Q 3884 3275 3436 3711 
Q 2988 4147 2022 4147 
L 1259 4147 
z
M 628 4666 
L 1925 4666 
Q 3281 4666 3915 4102 
Q 4550 3538 4550 2338 
Q 4550 1131 3912 565 
Q 3275 0 1925 0 
L 628 0 
L 628 4666 
z
" transform="scale(0.015625)"/>
       <path id="DejaVuSans-69" d="M 603 3500 
L 1178 3500 
L 1178 0 
L 603 0 
L 603 3500 
z
M 603 4863 
L 1178 4863 
L 1178 4134 
L 603 4134 
L 603 4863 
z
" transform="scale(0.015625)"/>
       <path id="DejaVuSans-66" d="M 2375 4863 
L 2375 4384 
L 1825 4384 
Q 1516 4384 1395 4259 
Q 1275 4134 1275 3809 
L 1275 3500 
L 2222 3500 
L 2222 3053 
L 1275 3053 
L 1275 0 
L 697 0 
L 697 3053 
L 147 3053 
L 147 3500 
L 697 3500 
L 697 3744 
Q 697 4328 969 4595 
Q 1241 4863 1831 4863 
L 2375 4863 
z
" transform="scale(0.015625)"/>
       <path id="DejaVuSans-65" d="M 3597 1894 
L 3597 1613 
L 953 1613 
Q 991 1019 1311 708 
Q 1631 397 2203 397 
Q 2534 397 2845 478 
Q 3156 559 3463 722 
L 3463 178 
Q 3153 47 2828 -22 
Q 2503 -91 2169 -91 
Q 1331 -91 842 396 
Q 353 884 353 1716 
Q 353 2575 817 3079 
Q 1281 3584 2069 3584 
Q 2775 3584 3186 3129 
Q 3597 2675 3597 1894 
z
M 3022 2063 
Q 3016 2534 2758 2815 
Q 2500 3097 2075 3097 
Q 1594 3097 1305 2825 
Q 1016 2553 972 2059 
L 3022 2063 
z
" transform="scale(0.015625)"/>
       <path id="DejaVuSans-72" d="M 2631 2963 
Q 2534 3019 2420 3045 
Q 2306 3072 2169 3072 
Q 1681 3072 1420 2755 
Q 1159 2438 1159 1844 
L 1159 0 
L 581 0 
L 581 3500 
L 1159 3500 
L 1159 2956 
Q 1341 3275 1631 3429 
Q 1922 3584 2338 3584 
Q 2397 3584 2469 3576 
Q 2541 3569 2628 3553 
L 2631 2963 
z
" transform="scale(0.015625)"/>
       <path id="DejaVuSans-6e" d="M 3513 2113 
L 3513 0 
L 2938 0 
L 2938 2094 
Q 2938 2591 2744 2837 
Q 2550 3084 2163 3084 
Q 1697 3084 1428 2787 
Q 1159 2491 1159 1978 
L 1159 0 
L 581 0 
L 581 3500 
L 1159 3500 
L 1159 2956 
Q 1366 3272 1645 3428 
Q 1925 3584 2291 3584 
Q 2894 3584 3203 3211 
Q 3513 2838 3513 2113 
z
" transform="scale(0.015625)"/>
       <path id="DejaVuSans-63" d="M 3122 3366 
L 3122 2828 
Q 2878 2963 2633 3030 
Q 2388 3097 2138 3097 
Q 1578 3097 1268 2742 
Q 959 2388 959 1747 
Q 959 1106 1268 751 
Q 1578 397 2138 397 
Q 2388 397 2633 464 
Q 2878 531 3122 666 
L 3122 134 
Q 2881 22 2623 -34 
Q 2366 -91 2075 -91 
Q 1284 -91 818 406 
Q 353 903 353 1747 
Q 353 2603 823 3093 
Q 1294 3584 2113 3584 
Q 2378 3584 2631 3529 
Q 2884 3475 3122 3366 
z
" transform="scale(0.015625)"/>
       <path id="DejaVuSans-20" transform="scale(0.015625)"/>
       <path id="DejaVuSans-73" d="M 2834 3397 
L 2834 2853 
Q 2591 2978 2328 3040 
Q 2066 3103 1784 3103 
Q 1356 3103 1142 2972 
Q 928 2841 928 2578 
Q 928 2378 1081 2264 
Q 1234 2150 1697 2047 
L 1894 2003 
Q 2506 1872 2764 1633 
Q 3022 1394 3022 966 
Q 3022 478 2636 193 
Q 2250 -91 1575 -91 
Q 1294 -91 989 -36 
Q 684 19 347 128 
L 347 722 
Q 666 556 975 473 
Q 1284 391 1588 391 
Q 1994 391 2212 530 
Q 2431 669 2431 922 
Q 2431 1156 2273 1281 
Q 2116 1406 1581 1522 
L 1381 1569 
Q 847 1681 609 1914 
Q 372 2147 372 2553 
Q 372 3047 722 3315 
Q 1072 3584 1716 3584 
Q 2034 3584 2315 3537 
Q 2597 3491 2834 3397 
z
" transform="scale(0.015625)"/>
       <path id="DejaVuSans-74" d="M 1172 4494 
L 1172 3500 
L 2356 3500 
L 2356 3053 
L 1172 3053 
L 1172 1153 
Q 1172 725 1289 603 
Q 1406 481 1766 481 
L 2356 481 
L 2356 0 
L 1766 0 
Q 1100 0 847 248 
Q 594 497 594 1153 
L 594 3053 
L 172 3053 
L 172 3500 
L 594 3500 
L 594 4494 
L 1172 4494 
z
" transform="scale(0.015625)"/>
       <path id="DejaVuSans-61" d="M 2194 1759 
Q 1497 1759 1228 1600 
Q 959 1441 959 1056 
Q 959 750 1161 570 
Q 1363 391 1709 391 
Q 2188 391 2477 730 
Q 2766 1069 2766 1631 
L 2766 1759 
L 2194 1759 
z
M 3341 1997 
L 3341 0 
L 2766 0 
L 2766 531 
Q 2569 213 2275 61 
Q 1981 -91 1556 -91 
Q 1019 -91 701 211 
Q 384 513 384 1019 
Q 384 1609 779 1909 
Q 1175 2209 1959 2209 
L 2766 2209 
L 2766 2266 
Q 2766 2663 2505 2880 
Q 2244 3097 1772 3097 
Q 1472 3097 1187 3025 
Q 903 2953 641 2809 
L 641 3341 
Q 956 3463 1253 3523 
Q 1550 3584 1831 3584 
Q 2591 3584 2966 3190 
Q 3341 2797 3341 1997 
z
" transform="scale(0.015625)"/>
      </defs>
      <use xlink:href="#DejaVuSans-44"/>
      <use xlink:href="#DejaVuSans-69" x="77.001953"/>
      <use xlink:href="#DejaVuSans-66" x="104.785156"/>
      <use xlink:href="#DejaVuSans-66" x="139.990234"/>
      <use xlink:href="#DejaVuSans-65" x="175.195312"/>
      <use xlink:href="#DejaVuSans-72" x="236.71875"/>
      <use xlink:href="#DejaVuSans-65" x="275.582031"/>
      <use xlink:href="#DejaVuSans-6e" x="337.105469"/>
      <use xlink:href="#DejaVuSans-63" x="400.484375"/>
      <use xlink:href="#DejaVuSans-65" x="455.464844"/>
      <use xlink:href="#DejaVuSans-20" x="516.988281"/>
      <use xlink:href="#DejaVuSans-69" x="548.775391"/>
      <use xlink:href="#DejaVuSans-6e" x="576.558594"/>
      <use xlink:href="#DejaVuSans-20" x="639.9375"/>
      <use xlink:href="#DejaVuSans-44" x="671.724609"/>
      <use xlink:href="#DejaVuSans-69" x="748.726562"/>
      <use xlink:href="#DejaVuSans-73" x="776.509766"/>
      <use xlink:href="#DejaVuSans-74" x="828.609375"/>
      <use xlink:href="#DejaVuSans-61" x="867.818359"/>
      <use xlink:href="#DejaVuSans-6e" x="929.097656"/>
      <use xlink:href="#DejaVuSans-63" x="992.476562"/>
      <use xlink:href="#DejaVuSans-65" x="1047.457031"/>
     </g>
    </g>
   </g>
   <g id="matplotlib.axis_2">
    <g id="ytick_1">
     <g id="line2d_6">
      <defs>
       <path id="m65e971a965" d="M 0 0 
L -3.5 0 
" style="stroke: #000000; stroke-width: 0.8"/>
      </defs>
      <g>
       <use xlink:href="#m65e971a965" x="50.14375" y="105.479219" style="stroke: #000000; stroke-width: 0.8"/>
      </g>
     </g>
     <g id="text_7">
      <!-- 0.00 -->
      <g transform="translate(20.878125 109.278437) scale(0.1 -0.1)">
       <use xlink:href="#DejaVuSans-30"/>
       <use xlink:href="#DejaVuSans-2e" x="63.623047"/>
       <use xlink:href="#DejaVuSans-30" x="95.410156"/>
       <use xlink:href="#DejaVuSans-30" x="159.033203"/>
      </g>
     </g>
    </g>
    <g id="ytick_2">
     <g id="line2d_7">
      <g>
       <use xlink:href="#m65e971a965" x="50.14375" y="81.859219" style="stroke: #000000; stroke-width: 0.8"/>
      </g>
     </g>
     <g id="text_8">
      <!-- 0.25 -->
      <g transform="translate(20.878125 85.658437) scale(0.1 -0.1)">
       <defs>
        <path id="DejaVuSans-32" d="M 1228 531 
L 3431 531 
L 3431 0 
L 469 0 
L 469 531 
Q 828 903 1448 1529 
Q 2069 2156 2228 2338 
Q 2531 2678 2651 2914 
Q 2772 3150 2772 3378 
Q 2772 3750 2511 3984 
Q 2250 4219 1831 4219 
Q 1534 4219 1204 4116 
Q 875 4013 500 3803 
L 500 4441 
Q 881 4594 1212 4672 
Q 1544 4750 1819 4750 
Q 2544 4750 2975 4387 
Q 3406 4025 3406 3419 
Q 3406 3131 3298 2873 
Q 3191 2616 2906 2266 
Q 2828 2175 2409 1742 
Q 1991 1309 1228 531 
z
" transform="scale(0.015625)"/>
       </defs>
       <use xlink:href="#DejaVuSans-30"/>
       <use xlink:href="#DejaVuSans-2e" x="63.623047"/>
       <use xlink:href="#DejaVuSans-32" x="95.410156"/>
       <use xlink:href="#DejaVuSans-35" x="159.033203"/>
      </g>
     </g>
    </g>
    <g id="ytick_3">
     <g id="line2d_8">
      <g>
       <use xlink:href="#m65e971a965" x="50.14375" y="58.239219" style="stroke: #000000; stroke-width: 0.8"/>
      </g>
     </g>
     <g id="text_9">
      <!-- 0.50 -->
      <g transform="translate(20.878125 62.038437) scale(0.1 -0.1)">
       <use xlink:href="#DejaVuSans-30"/>
       <use xlink:href="#DejaVuSans-2e" x="63.623047"/>
       <use xlink:href="#DejaVuSans-35" x="95.410156"/>
       <use xlink:href="#DejaVuSans-30" x="159.033203"/>
      </g>
     </g>
    </g>
    <g id="ytick_4">
     <g id="line2d_9">
      <g>
       <use xlink:href="#m65e971a965" x="50.14375" y="34.619219" style="stroke: #000000; stroke-width: 0.8"/>
      </g>
     </g>
     <g id="text_10">
      <!-- 0.75 -->
      <g transform="translate(20.878125 38.418437) scale(0.1 -0.1)">
       <defs>
        <path id="DejaVuSans-37" d="M 525 4666 
L 3525 4666 
L 3525 4397 
L 1831 0 
L 1172 0 
L 2766 4134 
L 525 4134 
L 525 4666 
z
" transform="scale(0.015625)"/>
       </defs>
       <use xlink:href="#DejaVuSans-30"/>
       <use xlink:href="#DejaVuSans-2e" x="63.623047"/>
       <use xlink:href="#DejaVuSans-37" x="95.410156"/>
       <use xlink:href="#DejaVuSans-35" x="159.033203"/>
      </g>
     </g>
    </g>
    <g id="ytick_5">
     <g id="line2d_10">
      <g>
       <use xlink:href="#m65e971a965" x="50.14375" y="10.999219" style="stroke: #000000; stroke-width: 0.8"/>
      </g>
     </g>
     <g id="text_11">
      <!-- 1.00 -->
      <g transform="translate(20.878125 14.798437) scale(0.1 -0.1)">
       <use xlink:href="#DejaVuSans-31"/>
       <use xlink:href="#DejaVuSans-2e" x="63.623047"/>
       <use xlink:href="#DejaVuSans-30" x="95.410156"/>
       <use xlink:href="#DejaVuSans-30" x="159.033203"/>
      </g>
     </g>
    </g>
    <g id="text_12">
     <!-- CDF -->
     <g transform="translate(14.798438 68.456406) rotate(-90) scale(0.1 -0.1)">
      <defs>
       <path id="DejaVuSans-43" d="M 4122 4306 
L 4122 3641 
Q 3803 3938 3442 4084 
Q 3081 4231 2675 4231 
Q 1875 4231 1450 3742 
Q 1025 3253 1025 2328 
Q 1025 1406 1450 917 
Q 1875 428 2675 428 
Q 3081 428 3442 575 
Q 3803 722 4122 1019 
L 4122 359 
Q 3791 134 3420 21 
Q 3050 -91 2638 -91 
Q 1578 -91 968 557 
Q 359 1206 359 2328 
Q 359 3453 968 4101 
Q 1578 4750 2638 4750 
Q 3056 4750 3426 4639 
Q 3797 4528 4122 4306 
z
" transform="scale(0.015625)"/>
       <path id="DejaVuSans-46" d="M 628 4666 
L 3309 4666 
L 3309 4134 
L 1259 4134 
L 1259 2759 
L 3109 2759 
L 3109 2228 
L 1259 2228 
L 1259 0 
L 628 0 
L 628 4666 
z
" transform="scale(0.015625)"/>
      </defs>
      <use xlink:href="#DejaVuSans-43"/>
      <use xlink:href="#DejaVuSans-44" x="69.824219"/>
      <use xlink:href="#DejaVuSans-46" x="146.826172"/>
     </g>
    </g>
   </g>
   <g id="line2d_11">
    <path d="M 49.516487 103.687563 
L 56.350607 103.515033 
L 64.879957 103.169973 
L 71.688899 102.957629 
L 74.691336 102.70547 
L 75.091669 102.652384 
L 80.090909 102.493125 
L 84.63398 102.18788 
L 86.212819 102.041893 
L 89.299278 101.856092 
L 89.311706 101.84282 
L 92.924119 101.537575 
L 93.149413 101.511032 
L 97.522874 101.325231 
L 108.890216 100.422767 
L 111.539717 99.971535 
L 112.55646 99.825548 
L 112.933664 99.785734 
L 125.927062 97.834819 
L 126.642751 97.516303 
L 127.62 97.277415 
L 133.272242 96.136064 
L 135.713454 95.193785 
L 137.658977 94.636381 
L 138.159259 94.477123 
L 139.036356 94.185149 
L 140.875564 93.481758 
L 141.214951 93.3225 
L 141.342856 93.229599 
L 142.007813 93.003983 
L 142.268996 92.831454 
L 142.613041 92.645652 
L 142.746896 92.53948 
L 143.032027 92.36695 
L 143.203636 92.300593 
L 143.475338 92.154606 
L 143.994659 91.875904 
L 146.069081 90.654923 
L 146.167019 90.535479 
L 146.536421 90.336407 
L 149.137338 88.62438 
L 149.368731 88.491664 
L 149.779864 88.292591 
L 149.992627 88.159876 
L 150.448926 87.84136 
L 150.587842 87.748459 
L 151.8396 87.018525 
L 151.982821 86.912353 
L 152.155166 86.726551 
L 152.306301 86.646922 
L 152.603287 86.500935 
L 153.620758 85.797544 
L 154.020809 85.532114 
L 154.723301 84.961438 
L 154.984156 84.815451 
L 155.148676 84.709279 
L 155.33148 84.523478 
L 155.448886 84.364219 
L 155.628253 84.204961 
L 156.197669 83.6741 
L 156.325333 83.541385 
L 156.853991 83.010524 
L 157.008769 82.944166 
L 157.150497 82.784908 
L 157.580931 82.386762 
L 157.903804 82.187689 
L 157.992852 82.094788 
L 158.143164 81.922259 
L 158.233801 81.776272 
L 158.447725 81.617013 
L 158.694492 81.351583 
L 158.855837 81.165781 
L 159.053019 80.993252 
L 159.430387 80.595106 
L 159.751246 80.342947 
L 159.926006 80.117331 
L 160.063467 79.904986 
L 160.233283 79.732457 
L 160.358206 79.58647 
L 160.513053 79.387397 
L 160.911432 78.89635 
L 161.041084 78.684006 
L 161.258248 78.272589 
L 161.399235 78.073516 
L 161.778446 77.396668 
L 161.888524 77.184323 
L 161.971041 77.038337 
L 162.117008 76.905621 
L 163.009681 74.357488 
L 163.126134 73.932799 
L 163.398742 72.154415 
L 163.507471 51.941879 
L 163.531072 51.782621 
L 163.645892 51.026144 
L 163.668813 50.787256 
L 163.922635 49.592819 
L 164.106594 48.969057 
L 164.246809 48.398382 
L 164.716301 47.124315 
L 164.788815 46.978328 
L 164.922257 46.686355 
L 164.986137 46.487282 
L 165.112754 46.12895 
L 166.546082 43.713533 
L 166.725624 43.541003 
L 167.610396 42.479281 
L 167.773641 42.240393 
L 168.538045 41.377744 
L 168.748176 41.178671 
L 168.860036 41.019413 
L 169.071762 40.860154 
L 169.278754 40.714167 
L 169.56801 40.554909 
L 169.746003 40.408922 
L 169.944475 40.249664 
L 170.161938 39.984233 
L 170.476819 39.785161 
L 171.081247 39.095041 
L 171.263373 38.962326 
L 171.80795 38.418193 
L 172.853963 37.502458 
L 173.247011 37.237027 
L 173.352849 37.117584 
L 173.671312 36.878696 
L 173.774831 36.785796 
L 174.055257 36.599994 
L 174.172429 36.440736 
L 174.387246 36.228391 
L 174.52245 36.04259 
L 177.532166 33.613901 
L 177.861798 33.467914 
L 178.805428 32.751251 
L 178.903359 32.631808 
L 179.413338 32.459278 
L 179.45293 32.39292 
L 179.640761 32.260205 
L 180.17163 31.888602 
L 180.3386 31.716072 
L 181.257958 31.025953 
L 181.436625 30.893238 
L 181.673864 30.680893 
L 181.794472 30.601264 
L 183.266904 29.566085 
L 183.508563 29.380284 
L 183.610269 29.313926 
L 183.990656 29.061767 
L 184.210718 28.862694 
L 184.335967 28.729979 
L 184.603272 28.491091 
L 184.974577 28.185846 
L 185.886793 27.774429 
L 185.989272 27.721343 
L 186.187015 27.575356 
L 186.288868 27.52227 
L 186.538015 27.389554 
L 186.988224 27.084309 
L 187.005247 27.044495 
L 187.574006 26.858693 
L 187.737982 26.752521 
L 188.310055 26.540177 
L 188.990835 26.208389 
L 189.336212 26.04913 
L 190.538185 25.518269 
L 191.06847 25.345739 
L 192.425477 24.894507 
L 192.645756 24.867964 
L 193.168145 24.735249 
L 193.338823 24.65562 
L 194.136852 24.350375 
L 194.377833 24.230931 
L 197.011096 23.222295 
L 197.145975 23.169209 
L 197.738324 23.009951 
L 197.995025 22.943593 
L 198.542711 22.638348 
L 198.661979 22.585262 
L 199.380702 22.412732 
L 199.484637 22.372917 
L 199.924225 22.213659 
L 200.049178 22.173844 
L 200.616594 22.001315 
L 200.753862 21.948228 
L 205.013664 20.859963 
L 205.210029 20.780334 
L 206.529731 20.554718 
L 206.737052 20.475089 
L 209.803467 19.970771 
L 211.518652 19.625711 
L 212.705851 19.413367 
L 213.924146 19.187751 
L 220.959286 18.006585 
L 221.707307 17.847327 
L 221.863392 17.780969 
L 226.674522 17.18375 
L 229.358192 16.905048 
L 229.763312 16.851962 
L 234.040149 16.506902 
L 235.855443 16.2282 
L 237.907056 16.095485 
L 237.956267 16.068942 
L 242.514412 15.79024 
L 243.621042 15.710611 
L 244.981905 15.551352 
L 244.992676 15.538081 
L 257.876179 14.635617 
L 261.881359 14.476359 
L 262.840236 14.423273 
L 268.018029 14.171114 
L 269.380259 14.091485 
L 276.41931 13.905683 
L 276.818367 13.892412 
L 276.818367 13.892412 
" clip-path="url(#p1381ba65c7)" style="fill: none; stroke: #1f77b4; stroke-opacity: 0.8; stroke-width: 1.5; stroke-linecap: square"/>
   </g>
   <g id="line2d_12">
    <path d="M 49.601228 104.842185 
L 89.898331 104.072437 
L 90.116999 104.032622 
L 95.632429 103.886636 
L 95.733655 103.860092 
L 103.62161 103.515033 
L 107.97483 103.329231 
L 108.730399 103.276145 
L 111.343201 103.14343 
L 111.374149 103.130158 
L 115.036782 102.904543 
L 129.519031 101.484489 
L 130.627758 101.325231 
L 132.418218 101.179244 
L 137.378266 100.648383 
L 139.260616 100.290052 
L 139.728795 100.223694 
L 140.635357 100.037893 
L 141.036912 99.878634 
L 141.594785 99.679561 
L 141.873677 99.520303 
L 142.443043 99.241601 
L 142.555597 99.161972 
L 142.714601 99.108886 
L 143.262434 98.936356 
L 143.509928 98.777098 
L 144.232538 98.498396 
L 144.44687 98.378952 
L 144.937623 98.219694 
L 145.115908 98.153336 
L 145.464569 98.007349 
L 145.605945 97.967535 
L 146.13118 97.834819 
L 146.166036 97.808276 
L 146.638416 97.622475 
L 148.857377 96.945627 
L 149.020747 96.879269 
L 149.949139 96.640382 
L 150.079063 96.587296 
L 150.821963 96.321865 
L 152.794053 95.684832 
L 153.149422 95.605203 
L 153.49661 95.445944 
L 153.685766 95.366315 
L 154.139878 95.114156 
L 154.280614 95.021256 
L 156.776401 93.986076 
L 156.960824 93.84009 
L 158.029503 93.083613 
L 158.255558 92.871268 
L 158.810677 92.499665 
L 158.958451 92.393493 
L 159.214956 92.154606 
L 159.411104 91.968804 
L 159.694215 91.822818 
L 159.862982 91.676831 
L 161.179723 89.871903 
L 161.30314 89.67283 
L 161.577245 89.274684 
L 161.698224 88.969439 
L 162.718948 85.996617 
L 162.882594 85.41267 
L 163.036049 84.669465 
L 163.30806 82.784908 
L 163.398654 81.670099 
L 163.509425 44.841612 
L 163.744074 42.718168 
L 163.805937 42.359837 
L 164.086 40.700896 
L 164.779998 37.874061 
L 164.897137 37.383014 
L 165.04479 36.945054 
L 165.153366 36.759252 
L 165.276659 36.241663 
L 165.468607 35.790431 
L 165.748931 35.206484 
L 165.933678 34.755252 
L 166.052091 34.47655 
L 166.109519 34.343835 
L 166.222077 34.065133 
L 166.292606 33.905874 
L 166.404904 33.69353 
L 166.553362 33.454642 
L 166.730186 33.242298 
L 166.893469 32.923781 
L 167.046319 32.751251 
L 167.177973 32.485821 
L 167.479215 32.154033 
L 167.593947 31.994774 
L 167.977404 31.503728 
L 168.800419 30.773794 
L 169.309407 30.096946 
L 169.435887 29.950959 
L 169.621685 29.778429 
L 170.0308 29.446641 
L 171.153128 28.292018 
L 171.781172 27.96023 
L 172.0134 27.721343 
L 172.297358 27.575356 
L 173.629965 26.699435 
L 176.00673 25.451912 
L 176.327157 25.319196 
L 176.468841 25.279382 
L 179.29095 24.13803 
L 179.718493 23.978772 
L 180.198585 23.70007 
L 180.796233 23.554083 
L 180.860148 23.487726 
L 181.551822 23.248838 
L 181.832037 23.08958 
L 182.138443 22.956864 
L 182.962859 22.518904 
L 183.493051 22.200387 
L 183.993776 21.696069 
L 184.248283 21.510268 
L 184.683562 21.151937 
L 185.14371 20.913049 
L 185.786744 20.501632 
L 186.043416 20.368917 
L 186.140635 20.236201 
L 186.584158 20.0504 
L 186.841247 19.917685 
L 187.399533 19.731883 
L 187.672065 19.572625 
L 188.400362 19.307195 
L 188.637102 19.201022 
L 196.674583 17.289923 
L 197.55427 17.104121 
L 197.979614 16.984677 
L 204.788158 15.922955 
L 207.042385 15.61771 
L 209.904426 15.27265 
L 211.161911 15.100121 
L 211.718831 15.047034 
L 213.876712 14.861233 
L 237.282568 13.255378 
L 242.96539 13.043034 
L 266.357841 12.326371 
L 277.272055 12.193656 
L 277.272055 12.193656 
" clip-path="url(#p1381ba65c7)" style="fill: none; stroke: #ff7f0e; stroke-opacity: 0.8; stroke-width: 1.5; stroke-linecap: square"/>
   </g>
   <g id="line2d_13">
    <path d="M 49.330653 104.895272 
L 76.935844 104.337867 
L 100.810461 103.541576 
L 101.270859 103.515033 
L 114.198583 102.904543 
L 130.311999 101.285416 
L 131.317299 101.086343 
L 132.221359 100.913813 
L 137.511893 99.958264 
L 138.507541 99.812277 
L 138.687964 99.745919 
L 140.102578 99.334502 
L 140.522061 99.254873 
L 141.280516 98.843455 
L 141.574486 98.763826 
L 141.618942 98.604568 
L 141.953858 98.524939 
L 142.229805 98.339137 
L 142.366502 98.325866 
L 142.526832 98.060435 
L 143.016395 97.901177 
L 143.231842 97.834819 
L 145.082577 97.250872 
L 145.18227 97.171243 
L 145.950501 96.879269 
L 146.946971 96.587296 
L 147.570768 96.441309 
L 148.182646 96.122792 
L 149.719275 95.724646 
L 150.826303 95.379587 
L 151.269956 95.193785 
L 151.683281 95.021256 
L 152.213071 94.822183 
L 152.527666 94.662924 
L 152.773164 94.543481 
L 153.200977 94.198421 
L 153.311862 94.118792 
L 153.833294 93.959533 
L 153.894834 93.93299 
L 154.285227 93.787004 
L 154.469633 93.601202 
L 155.533819 93.017255 
L 156.103742 92.619109 
L 157.598898 91.557387 
L 157.857103 91.424672 
L 158.168876 91.225599 
L 158.309995 91.066341 
L 158.765049 90.641652 
L 159.009021 90.416036 
L 159.136965 90.256777 
L 159.237411 90.137334 
L 159.518786 89.938261 
L 159.624216 89.779002 
L 159.812902 89.619744 
L 159.999699 89.447214 
L 160.278968 89.221598 
L 160.780627 88.54475 
L 160.90472 88.358949 
L 161.041641 88.199691 
L 161.456126 87.469757 
L 161.87343 86.673465 
L 162.509052 85.492299 
L 162.616058 85.279955 
L 163.39875 83.23614 
L 163.496538 39.2543 
L 163.591795 39.068498 
L 163.73003 38.803068 
L 163.829869 38.550909 
L 163.979346 38.272207 
L 164.881616 36.162034 
L 165.189343 35.724073 
L 165.284448 35.551544 
L 165.619436 34.994139 
L 165.72298 34.834881 
L 166.423723 33.560814 
L 166.66757 33.255569 
L 166.786073 33.069768 
L 167.054818 32.605265 
L 167.150765 32.419463 
L 167.34092 32.233662 
L 167.602965 31.835516 
L 167.81415 31.556814 
L 167.977793 31.211754 
L 168.057644 31.052496 
L 168.149105 30.933052 
L 168.366075 30.720708 
L 168.482472 30.534906 
L 168.666424 30.335833 
L 168.782232 30.203118 
L 169.0901 29.964231 
L 169.391078 29.685529 
L 169.504141 29.605899 
L 170.246539 29.08831 
L 170.389799 28.929052 
L 170.750462 28.716707 
L 171.282124 28.331833 
L 171.614868 28.13276 
L 171.728991 27.973502 
L 172.052651 27.827515 
L 172.762315 27.376283 
L 173.065525 27.190482 
L 173.204378 27.071038 
L 173.67902 26.898508 
L 173.993586 26.699435 
L 174.103671 26.65962 
L 174.532169 26.407461 
L 174.627877 26.367647 
L 175.167619 26.181846 
L 175.382435 26.115488 
L 175.695064 25.95623 
L 176.653443 25.571355 
L 177.0049 25.332468 
L 177.022819 25.305925 
L 177.419726 25.173209 
L 178.256002 24.801607 
L 179.266552 24.430004 
L 179.742445 24.257474 
L 180.869443 23.713342 
L 181.746726 23.275381 
L 182.425195 23.116123 
L 183.464455 22.611805 
L 183.897393 22.372917 
L 184.762383 21.842056 
L 184.850313 21.642983 
L 185.10015 21.550083 
L 185.313436 21.364281 
L 185.538319 21.271381 
L 185.664002 21.125394 
L 185.981021 20.966135 
L 186.285295 20.727248 
L 186.512015 20.634347 
L 186.587044 20.448546 
L 186.94562 20.329102 
L 187.174526 20.156572 
L 189.173836 19.426638 
L 189.976283 19.26738 
L 190.368581 19.09485 
L 191.774118 18.789605 
L 194.858472 18.059671 
L 194.858472 18.0464 
L 196.328539 17.780969 
L 196.665807 17.727883 
L 197.804919 17.542082 
L 204.296389 16.533445 
L 206.055594 16.347644 
L 208.70075 15.96277 
L 209.383357 15.830055 
L 211.174871 15.591167 
L 212.283944 15.365551 
L 214.714112 15.100121 
L 214.733922 15.086849 
L 216.639408 14.887776 
L 222.364813 14.449816 
L 225.369962 14.277286 
L 247.529978 13.162478 
L 250.368754 13.016491 
L 250.967049 12.950133 
L 256.65146 12.75106 
L 262.369969 12.605074 
L 270.447672 12.392729 
L 272.297788 12.326371 
L 276.65375 12.286557 
L 278.010492 12.273285 
L 278.010492 12.273285 
" clip-path="url(#p1381ba65c7)" style="fill: none; stroke: #2ca02c; stroke-opacity: 0.8; stroke-width: 1.5; stroke-linecap: square"/>
   </g>
   <g id="line2d_14">
    <path d="M 49.528334 105.05453 
L 58.370321 104.974901 
L 92.861087 104.563483 
L 92.946426 104.550212 
L 96.911142 104.390954 
L 112.24224 103.820278 
L 116.811587 103.634477 
L 119.217964 103.369046 
L 121.397845 103.183245 
L 122.012724 103.130158 
L 124.668262 102.944357 
L 125.343637 102.851456 
L 128.548357 102.678927 
L 131.060608 102.519668 
L 132.200395 102.347138 
L 132.224564 102.333867 
L 133.553328 102.174609 
L 133.559109 102.161337 
L 136.070607 101.935721 
L 141.177832 101.152701 
L 141.191887 101.086343 
L 141.672281 100.927085 
L 142.425602 100.595297 
L 142.534256 100.475853 
L 144.436796 99.891906 
L 145.496634 99.66629 
L 145.689563 99.586661 
L 147.054333 99.241601 
L 147.17268 99.188515 
L 148.972726 98.750555 
L 149.576691 98.604568 
L 149.821838 98.53821 
L 151.056859 98.286051 
L 152.508846 97.75519 
L 152.978538 97.609203 
L 153.342672 97.436673 
L 153.397529 97.383587 
L 154.454179 97.184514 
L 154.64216 97.1447 
L 155.224461 96.892541 
L 159.071911 94.901812 
L 159.236055 94.729282 
L 159.599121 94.516938 
L 159.701014 94.437308 
L 159.994113 94.198421 
L 160.312854 93.919719 
L 160.517823 93.627745 
L 160.760311 93.375586 
L 160.863643 93.295957 
L 161.332053 92.725281 
L 161.698899 92.154606 
L 161.807112 91.995347 
L 162.025962 91.58393 
L 162.165035 91.384857 
L 162.588464 90.163877 
L 162.650397 89.898446 
L 162.854811 89.181784 
L 162.899634 89.035797 
L 163.393963 86.527478 
L 163.509784 39.095041 
L 163.689287 37.794432 
L 163.786079 37.290114 
L 163.919808 36.719438 
L 163.992664 36.414193 
L 164.128181 35.710802 
L 164.223022 35.25957 
L 164.470254 34.370378 
L 164.60912 33.95896 
L 164.733412 33.653715 
L 164.888132 33.109583 
L 165.022665 32.618536 
L 165.453262 31.755887 
L 165.579957 31.516999 
L 165.77072 31.079039 
L 166.489396 29.765158 
L 166.604866 29.605899 
L 166.868205 29.221025 
L 167.169865 28.822879 
L 167.298716 28.663621 
L 167.413431 28.530906 
L 167.684396 28.265475 
L 168.157363 27.7877 
L 168.643779 27.243568 
L 169.069549 26.991409 
L 171.126204 25.385554 
L 171.349646 25.213024 
L 171.474743 25.106852 
L 178.508674 21.908414 
L 179.737176 21.550083 
L 180.143863 21.364281 
L 180.4976 21.205023 
L 181.57102 20.753791 
L 182.156123 20.554718 
L 182.247208 20.514904 
L 182.868735 20.329102 
L 183.133237 20.156572 
L 183.665434 19.944228 
L 183.873375 19.771698 
L 184.366012 19.652254 
L 184.469626 19.453181 
L 184.750283 19.347009 
L 184.881651 19.201022 
L 185.602724 18.816148 
L 185.711216 18.709976 
L 186.047138 18.577261 
L 186.097902 18.444545 
L 186.575935 18.245472 
L 186.778483 18.126029 
L 187.754726 17.688068 
L 188.108932 17.515538 
L 188.538595 17.382823 
L 188.638759 17.316466 
L 189.870526 17.064307 
L 189.880162 17.051035 
L 191.437123 16.891777 
L 192.33539 16.74579 
L 193.377564 16.599803 
L 193.885702 16.467088 
L 195.80346 16.148571 
L 195.807257 16.1353 
L 197.718447 15.922955 
L 198.246639 15.856598 
L 199.144524 15.710611 
L 199.147646 15.697339 
L 200.151609 15.551352 
L 202.117647 15.246107 
L 204.574082 14.980677 
L 205.550047 14.861233 
L 207.470831 14.609074 
L 217.329702 13.693339 
L 228.818264 12.976676 
L 232.738546 12.804146 
L 234.498685 12.777603 
L 246.077625 12.432544 
L 247.301148 12.379458 
L 248.71978 12.326371 
L 257.788212 12.100755 
L 257.936432 12.087484 
L 273.433248 11.861868 
L 275.403549 11.835325 
L 281.883418 11.808782 
L 281.883418 11.808782 
" clip-path="url(#p1381ba65c7)" style="fill: none; stroke: #d62728; stroke-opacity: 0.8; stroke-width: 1.5; stroke-linecap: square"/>
   </g>
   <g id="patch_3">
    <path d="M 50.14375 105.479219 
L 50.14375 10.999219 
" style="fill: none; stroke: #000000; stroke-width: 0.8; stroke-linejoin: miter; stroke-linecap: square"/>
   </g>
   <g id="patch_4">
    <path d="M 276.65375 105.479219 
L 276.65375 10.999219 
" style="fill: none; stroke: #000000; stroke-width: 0.8; stroke-linejoin: miter; stroke-linecap: square"/>
   </g>
   <g id="patch_5">
    <path d="M 50.14375 105.479219 
L 276.65375 105.479219 
" style="fill: none; stroke: #000000; stroke-width: 0.8; stroke-linejoin: miter; stroke-linecap: square"/>
   </g>
   <g id="patch_6">
    <path d="M 50.14375 10.999219 
L 276.65375 10.999219 
" style="fill: none; stroke: #000000; stroke-width: 0.8; stroke-linejoin: miter; stroke-linecap: square"/>
   </g>
   <g id="legend_1">
    <g id="line2d_15">
     <path d="M 59.14375 24.097656 
L 69.14375 24.097656 
L 79.14375 24.097656 
" style="fill: none; stroke: #1f77b4; stroke-opacity: 0.8; stroke-width: 1.5; stroke-linecap: square"/>
    </g>
    <g id="text_13">
     <!-- Image Shingles -->
     <g transform="translate(87.14375 27.597656) scale(0.1 -0.1)">
      <defs>
       <path id="DejaVuSans-49" d="M 628 4666 
L 1259 4666 
L 1259 0 
L 628 0 
L 628 4666 
z
" transform="scale(0.015625)"/>
       <path id="DejaVuSans-6d" d="M 3328 2828 
Q 3544 3216 3844 3400 
Q 4144 3584 4550 3584 
Q 5097 3584 5394 3201 
Q 5691 2819 5691 2113 
L 5691 0 
L 5113 0 
L 5113 2094 
Q 5113 2597 4934 2840 
Q 4756 3084 4391 3084 
Q 3944 3084 3684 2787 
Q 3425 2491 3425 1978 
L 3425 0 
L 2847 0 
L 2847 2094 
Q 2847 2600 2669 2842 
Q 2491 3084 2119 3084 
Q 1678 3084 1418 2786 
Q 1159 2488 1159 1978 
L 1159 0 
L 581 0 
L 581 3500 
L 1159 3500 
L 1159 2956 
Q 1356 3278 1631 3431 
Q 1906 3584 2284 3584 
Q 2666 3584 2933 3390 
Q 3200 3197 3328 2828 
z
" transform="scale(0.015625)"/>
       <path id="DejaVuSans-67" d="M 2906 1791 
Q 2906 2416 2648 2759 
Q 2391 3103 1925 3103 
Q 1463 3103 1205 2759 
Q 947 2416 947 1791 
Q 947 1169 1205 825 
Q 1463 481 1925 481 
Q 2391 481 2648 825 
Q 2906 1169 2906 1791 
z
M 3481 434 
Q 3481 -459 3084 -895 
Q 2688 -1331 1869 -1331 
Q 1566 -1331 1297 -1286 
Q 1028 -1241 775 -1147 
L 775 -588 
Q 1028 -725 1275 -790 
Q 1522 -856 1778 -856 
Q 2344 -856 2625 -561 
Q 2906 -266 2906 331 
L 2906 616 
Q 2728 306 2450 153 
Q 2172 0 1784 0 
Q 1141 0 747 490 
Q 353 981 353 1791 
Q 353 2603 747 3093 
Q 1141 3584 1784 3584 
Q 2172 3584 2450 3431 
Q 2728 3278 2906 2969 
L 2906 3500 
L 3481 3500 
L 3481 434 
z
" transform="scale(0.015625)"/>
       <path id="DejaVuSans-53" d="M 3425 4513 
L 3425 3897 
Q 3066 4069 2747 4153 
Q 2428 4238 2131 4238 
Q 1616 4238 1336 4038 
Q 1056 3838 1056 3469 
Q 1056 3159 1242 3001 
Q 1428 2844 1947 2747 
L 2328 2669 
Q 3034 2534 3370 2195 
Q 3706 1856 3706 1288 
Q 3706 609 3251 259 
Q 2797 -91 1919 -91 
Q 1588 -91 1214 -16 
Q 841 59 441 206 
L 441 856 
Q 825 641 1194 531 
Q 1563 422 1919 422 
Q 2459 422 2753 634 
Q 3047 847 3047 1241 
Q 3047 1584 2836 1778 
Q 2625 1972 2144 2069 
L 1759 2144 
Q 1053 2284 737 2584 
Q 422 2884 422 3419 
Q 422 4038 858 4394 
Q 1294 4750 2059 4750 
Q 2388 4750 2728 4690 
Q 3069 4631 3425 4513 
z
" transform="scale(0.015625)"/>
       <path id="DejaVuSans-68" d="M 3513 2113 
L 3513 0 
L 2938 0 
L 2938 2094 
Q 2938 2591 2744 2837 
Q 2550 3084 2163 3084 
Q 1697 3084 1428 2787 
Q 1159 2491 1159 1978 
L 1159 0 
L 581 0 
L 581 4863 
L 1159 4863 
L 1159 2956 
Q 1366 3272 1645 3428 
Q 1925 3584 2291 3584 
Q 2894 3584 3203 3211 
Q 3513 2838 3513 2113 
z
" transform="scale(0.015625)"/>
       <path id="DejaVuSans-6c" d="M 603 4863 
L 1178 4863 
L 1178 0 
L 603 0 
L 603 4863 
z
" transform="scale(0.015625)"/>
      </defs>
      <use xlink:href="#DejaVuSans-49"/>
      <use xlink:href="#DejaVuSans-6d" x="29.492188"/>
      <use xlink:href="#DejaVuSans-61" x="126.904297"/>
      <use xlink:href="#DejaVuSans-67" x="188.183594"/>
      <use xlink:href="#DejaVuSans-65" x="251.660156"/>
      <use xlink:href="#DejaVuSans-20" x="313.183594"/>
      <use xlink:href="#DejaVuSans-53" x="344.970703"/>
      <use xlink:href="#DejaVuSans-68" x="408.447266"/>
      <use xlink:href="#DejaVuSans-69" x="471.826172"/>
      <use xlink:href="#DejaVuSans-6e" x="499.609375"/>
      <use xlink:href="#DejaVuSans-67" x="562.988281"/>
      <use xlink:href="#DejaVuSans-6c" x="626.464844"/>
      <use xlink:href="#DejaVuSans-65" x="654.248047"/>
      <use xlink:href="#DejaVuSans-73" x="715.771484"/>
     </g>
    </g>
    <g id="line2d_16">
     <path d="M 59.14375 38.775781 
L 69.14375 38.775781 
L 79.14375 38.775781 
" style="fill: none; stroke: #ff7f0e; stroke-opacity: 0.8; stroke-width: 1.5; stroke-linecap: square"/>
    </g>
    <g id="text_14">
     <!-- Inner Text -->
     <g transform="translate(87.14375 42.275781) scale(0.1 -0.1)">
      <defs>
       <path id="DejaVuSans-54" d="M -19 4666 
L 3928 4666 
L 3928 4134 
L 2272 4134 
L 2272 0 
L 1638 0 
L 1638 4134 
L -19 4134 
L -19 4666 
z
" transform="scale(0.015625)"/>
       <path id="DejaVuSans-78" d="M 3513 3500 
L 2247 1797 
L 3578 0 
L 2900 0 
L 1881 1375 
L 863 0 
L 184 0 
L 1544 1831 
L 300 3500 
L 978 3500 
L 1906 2253 
L 2834 3500 
L 3513 3500 
z
" transform="scale(0.015625)"/>
      </defs>
      <use xlink:href="#DejaVuSans-49"/>
      <use xlink:href="#DejaVuSans-6e" x="29.492188"/>
      <use xlink:href="#DejaVuSans-6e" x="92.871094"/>
      <use xlink:href="#DejaVuSans-65" x="156.25"/>
      <use xlink:href="#DejaVuSans-72" x="217.773438"/>
      <use xlink:href="#DejaVuSans-20" x="258.886719"/>
      <use xlink:href="#DejaVuSans-54" x="290.673828"/>
      <use xlink:href="#DejaVuSans-65" x="334.757812"/>
      <use xlink:href="#DejaVuSans-78" x="394.53125"/>
      <use xlink:href="#DejaVuSans-74" x="453.710938"/>
     </g>
    </g>
    <g id="line2d_17">
     <path d="M 59.14375 53.453906 
L 69.14375 53.453906 
L 79.14375 53.453906 
" style="fill: none; stroke: #2ca02c; stroke-opacity: 0.8; stroke-width: 1.5; stroke-linecap: square"/>
    </g>
    <g id="text_15">
     <!-- Images -->
     <g transform="translate(87.14375 56.953906) scale(0.1 -0.1)">
      <use xlink:href="#DejaVuSans-49"/>
      <use xlink:href="#DejaVuSans-6d" x="29.492188"/>
      <use xlink:href="#DejaVuSans-61" x="126.904297"/>
      <use xlink:href="#DejaVuSans-67" x="188.183594"/>
      <use xlink:href="#DejaVuSans-65" x="251.660156"/>
      <use xlink:href="#DejaVuSans-73" x="313.183594"/>
     </g>
    </g>
    <g id="line2d_18">
     <path d="M 59.14375 68.132031 
L 69.14375 68.132031 
L 79.14375 68.132031 
" style="fill: none; stroke: #d62728; stroke-opacity: 0.8; stroke-width: 1.5; stroke-linecap: square"/>
    </g>
    <g id="text_16">
     <!-- Links -->
     <g transform="translate(87.14375 71.632031) scale(0.1 -0.1)">
      <defs>
       <path id="DejaVuSans-4c" d="M 628 4666 
L 1259 4666 
L 1259 531 
L 3531 531 
L 3531 0 
L 628 0 
L 628 4666 
z
" transform="scale(0.015625)"/>
       <path id="DejaVuSans-6b" d="M 581 4863 
L 1159 4863 
L 1159 1991 
L 2875 3500 
L 3609 3500 
L 1753 1863 
L 3688 0 
L 2938 0 
L 1159 1709 
L 1159 0 
L 581 0 
L 581 4863 
z
" transform="scale(0.015625)"/>
      </defs>
      <use xlink:href="#DejaVuSans-4c"/>
      <use xlink:href="#DejaVuSans-69" x="55.712891"/>
      <use xlink:href="#DejaVuSans-6e" x="83.496094"/>
      <use xlink:href="#DejaVuSans-6b" x="146.875"/>
      <use xlink:href="#DejaVuSans-73" x="204.785156"/>
     </g>
    </g>
   </g>
  </g>
 </g>
 <defs>
  <clipPath id="p1381ba65c7">
   <rect x="50.14375" y="10.999219" width="226.51" height="94.48"/>
  </clipPath>
 </defs>
</svg>
