<?xml version="1.0" encoding="utf-8" standalone="no"?>
<!DOCTYPE svg PUBLIC "-//W3C//DTD SVG 1.1//EN"
  "http://www.w3.org/Graphics/SVG/1.1/DTD/svg11.dtd">
<svg xmlns:xlink="http://www.w3.org/1999/xlink" width="679.5175pt" height="120.634375pt" viewBox="0 0 679.5175 120.634375" xmlns="http://www.w3.org/2000/svg" version="1.1">
 <metadata>
  <rdf:RDF xmlns:dc="http://purl.org/dc/elements/1.1/" xmlns:cc="http://creativecommons.org/ns#" xmlns:rdf="http://www.w3.org/1999/02/22-rdf-syntax-ns#">
   <cc:Work>
    <dc:type rdf:resource="http://purl.org/dc/dcmitype/StillImage"/>
    <dc:date>2024-08-28T21:08:15.207469</dc:date>
    <dc:format>image/svg+xml</dc:format>
    <dc:creator>
     <cc:Agent>
      <dc:title>Matplotlib v3.8.4, https://matplotlib.org/</dc:title>
     </cc:Agent>
    </dc:creator>
   </cc:Work>
  </rdf:RDF>
 </metadata>
 <defs>
  <style type="text/css">*{stroke-linejoin: round; stroke-linecap: butt}</style>
 </defs>
 <g id="figure_1">
  <g id="patch_1">
   <path d="M 0 120.634375 
L 679.5175 120.634375 
L 679.5175 0 
L 0 0 
z
" style="fill: #ffffff"/>
  </g>
  <g id="axes_1">
   <g id="patch_2">
    <path d="M 40.603125 83.078125 
L 161.777799 83.078125 
L 161.777799 22.318125 
L 40.603125 22.318125 
z
" style="fill: #ffffff"/>
   </g>
   <g id="patch_3">
    <path d="M -302.725118 83.078125 
L -286.568495 83.078125 
L -286.568495 83.072791 
L -302.725118 83.072791 
z
" clip-path="url(#p0a845fec93)" style="fill: #1f77b4"/>
   </g>
   <g id="patch_4">
    <path d="M -286.568495 83.078125 
L -270.411871 83.078125 
L -270.411871 83.078125 
L -286.568495 83.078125 
z
" clip-path="url(#p0a845fec93)" style="fill: #1f77b4"/>
   </g>
   <g id="patch_5">
    <path d="M -270.411871 83.078125 
L -254.255248 83.078125 
L -254.255248 83.078125 
L -270.411871 83.078125 
z
" clip-path="url(#p0a845fec93)" style="fill: #1f77b4"/>
   </g>
   <g id="patch_6">
    <path d="M -254.255248 83.078125 
L -238.098625 83.078125 
L -238.098625 83.072791 
L -254.255248 83.072791 
z
" clip-path="url(#p0a845fec93)" style="fill: #1f77b4"/>
   </g>
   <g id="patch_7">
    <path d="M -238.098625 83.078125 
L -221.942002 83.078125 
L -221.942002 83.078125 
L -238.098625 83.078125 
z
" clip-path="url(#p0a845fec93)" style="fill: #1f77b4"/>
   </g>
   <g id="patch_8">
    <path d="M -221.942002 83.078125 
L -205.785379 83.078125 
L -205.785379 83.078125 
L -221.942002 83.078125 
z
" clip-path="url(#p0a845fec93)" style="fill: #1f77b4"/>
   </g>
   <g id="patch_9">
    <path d="M -205.785379 83.078125 
L -189.628755 83.078125 
L -189.628755 83.078125 
L -205.785379 83.078125 
z
" clip-path="url(#p0a845fec93)" style="fill: #1f77b4"/>
   </g>
   <g id="patch_10">
    <path d="M -189.628755 83.078125 
L -173.472132 83.078125 
L -173.472132 83.078125 
L -189.628755 83.078125 
z
" clip-path="url(#p0a845fec93)" style="fill: #1f77b4"/>
   </g>
   <g id="patch_11">
    <path d="M -173.472132 83.078125 
L -157.315509 83.078125 
L -157.315509 83.078125 
L -173.472132 83.078125 
z
" clip-path="url(#p0a845fec93)" style="fill: #1f77b4"/>
   </g>
   <g id="patch_12">
    <path d="M -157.315509 83.078125 
L -141.158886 83.078125 
L -141.158886 83.078125 
L -157.315509 83.078125 
z
" clip-path="url(#p0a845fec93)" style="fill: #1f77b4"/>
   </g>
   <g id="patch_13">
    <path d="M -141.158886 83.078125 
L -125.002263 83.078125 
L -125.002263 83.078125 
L -141.158886 83.078125 
z
" clip-path="url(#p0a845fec93)" style="fill: #1f77b4"/>
   </g>
   <g id="patch_14">
    <path d="M -125.002263 83.078125 
L -108.845639 83.078125 
L -108.845639 83.072791 
L -125.002263 83.072791 
z
" clip-path="url(#p0a845fec93)" style="fill: #1f77b4"/>
   </g>
   <g id="patch_15">
    <path d="M -108.845639 83.078125 
L -92.689016 83.078125 
L -92.689016 83.078125 
L -108.845639 83.078125 
z
" clip-path="url(#p0a845fec93)" style="fill: #1f77b4"/>
   </g>
   <g id="patch_16">
    <path d="M -92.689016 83.078125 
L -76.532393 83.078125 
L -76.532393 83.072791 
L -92.689016 83.072791 
z
" clip-path="url(#p0a845fec93)" style="fill: #1f77b4"/>
   </g>
   <g id="patch_17">
    <path d="M -76.532393 83.078125 
L -60.37577 83.078125 
L -60.37577 83.062122 
L -76.532393 83.062122 
z
" clip-path="url(#p0a845fec93)" style="fill: #1f77b4"/>
   </g>
   <g id="patch_18">
    <path d="M -60.37577 83.078125 
L -44.219147 83.078125 
L -44.219147 83.051453 
L -60.37577 83.051453 
z
" clip-path="url(#p0a845fec93)" style="fill: #1f77b4"/>
   </g>
   <g id="patch_19">
    <path d="M -44.219147 83.078125 
L -28.062524 83.078125 
L -28.062524 83.056788 
L -44.219147 83.056788 
z
" clip-path="url(#p0a845fec93)" style="fill: #1f77b4"/>
   </g>
   <g id="patch_20">
    <path d="M -28.062524 83.078125 
L -11.9059 83.078125 
L -11.9059 83.056788 
L -28.062524 83.056788 
z
" clip-path="url(#p0a845fec93)" style="fill: #1f77b4"/>
   </g>
   <g id="patch_21">
    <path d="M -11.9059 83.078125 
L 4.250723 83.078125 
L 4.250723 83.051453 
L -11.9059 83.051453 
z
" clip-path="url(#p0a845fec93)" style="fill: #1f77b4"/>
   </g>
   <g id="patch_22">
    <path d="M 4.250723 83.078125 
L 20.407346 83.078125 
L 20.407346 83.019448 
L 4.250723 83.019448 
z
" clip-path="url(#p0a845fec93)" style="fill: #1f77b4"/>
   </g>
   <g id="patch_23">
    <path d="M 20.407346 83.078125 
L 36.563969 83.078125 
L 36.563969 82.96077 
L 20.407346 82.96077 
z
" clip-path="url(#p0a845fec93)" style="fill: #1f77b4"/>
   </g>
   <g id="patch_24">
    <path d="M 36.563969 83.078125 
L 52.720592 83.078125 
L 52.720592 82.88609 
L 36.563969 82.88609 
z
" clip-path="url(#p0a845fec93)" style="fill: #1f77b4"/>
   </g>
   <g id="patch_25">
    <path d="M 52.720592 83.078125 
L 68.877216 83.078125 
L 68.877216 82.523356 
L 52.720592 82.523356 
z
" clip-path="url(#p0a845fec93)" style="fill: #1f77b4"/>
   </g>
   <g id="patch_26">
    <path d="M 68.877216 83.078125 
L 85.033839 83.078125 
L 85.033839 81.547176 
L 68.877216 81.547176 
z
" clip-path="url(#p0a845fec93)" style="fill: #1f77b4"/>
   </g>
   <g id="patch_27">
    <path d="M 85.033839 83.078125 
L 101.190462 83.078125 
L 101.190462 72.2708 
L 85.033839 72.2708 
z
" clip-path="url(#p0a845fec93)" style="fill: #1f77b4"/>
   </g>
   <g id="patch_28">
    <path d="M 101.190462 83.078125 
L 117.347085 83.078125 
L 117.347085 62.19961 
L 101.190462 62.19961 
z
" clip-path="url(#p0a845fec93)" style="fill: #1f77b4"/>
   </g>
   <g id="patch_29">
    <path d="M 117.347085 83.078125 
L 133.503708 83.078125 
L 133.503708 80.93373 
L 117.347085 80.93373 
z
" clip-path="url(#p0a845fec93)" style="fill: #1f77b4"/>
   </g>
   <g id="patch_30">
    <path d="M 133.503708 83.078125 
L 149.660332 83.078125 
L 149.660332 82.400667 
L 133.503708 82.400667 
z
" clip-path="url(#p0a845fec93)" style="fill: #1f77b4"/>
   </g>
   <g id="patch_31">
    <path d="M 149.660332 83.078125 
L 165.816955 83.078125 
L 165.816955 82.694054 
L 149.660332 82.694054 
z
" clip-path="url(#p0a845fec93)" style="fill: #1f77b4"/>
   </g>
   <g id="patch_32">
    <path d="M 165.816955 83.078125 
L 181.973578 83.078125 
L 181.973578 82.944767 
L 165.816955 82.944767 
z
" clip-path="url(#p0a845fec93)" style="fill: #1f77b4"/>
   </g>
   <g id="patch_33">
    <path d="M 181.973578 83.078125 
L 198.130201 83.078125 
L 198.130201 82.966104 
L 181.973578 82.966104 
z
" clip-path="url(#p0a845fec93)" style="fill: #1f77b4"/>
   </g>
   <g id="patch_34">
    <path d="M 198.130201 83.078125 
L 214.286824 83.078125 
L 214.286824 83.008779 
L 198.130201 83.008779 
z
" clip-path="url(#p0a845fec93)" style="fill: #1f77b4"/>
   </g>
   <g id="patch_35">
    <path d="M 214.286824 83.078125 
L 230.443447 83.078125 
L 230.443447 83.014113 
L 214.286824 83.014113 
z
" clip-path="url(#p0a845fec93)" style="fill: #1f77b4"/>
   </g>
   <g id="patch_36">
    <path d="M 230.443447 83.078125 
L 246.600071 83.078125 
L 246.600071 83.062122 
L 230.443447 83.062122 
z
" clip-path="url(#p0a845fec93)" style="fill: #1f77b4"/>
   </g>
   <g id="patch_37">
    <path d="M 246.600071 83.078125 
L 262.756694 83.078125 
L 262.756694 83.067456 
L 246.600071 83.067456 
z
" clip-path="url(#p0a845fec93)" style="fill: #1f77b4"/>
   </g>
   <g id="patch_38">
    <path d="M 262.756694 83.078125 
L 278.913317 83.078125 
L 278.913317 83.067456 
L 262.756694 83.067456 
z
" clip-path="url(#p0a845fec93)" style="fill: #1f77b4"/>
   </g>
   <g id="patch_39">
    <path d="M 278.913317 83.078125 
L 295.06994 83.078125 
L 295.06994 83.062122 
L 278.913317 83.062122 
z
" clip-path="url(#p0a845fec93)" style="fill: #1f77b4"/>
   </g>
   <g id="patch_40">
    <path d="M 295.06994 83.078125 
L 311.226563 83.078125 
L 311.226563 83.056788 
L 295.06994 83.056788 
z
" clip-path="url(#p0a845fec93)" style="fill: #1f77b4"/>
   </g>
   <g id="patch_41">
    <path d="M 311.226563 83.078125 
L 327.383187 83.078125 
L 327.383187 83.067456 
L 311.226563 83.067456 
z
" clip-path="url(#p0a845fec93)" style="fill: #1f77b4"/>
   </g>
   <g id="patch_42">
    <path d="M 327.383187 83.078125 
L 343.53981 83.078125 
L 343.53981 83.078125 
L 327.383187 83.078125 
z
" clip-path="url(#p0a845fec93)" style="fill: #1f77b4"/>
   </g>
   <g id="patch_43">
    <path d="M 343.53981 83.078125 
L 359.696433 83.078125 
L 359.696433 83.072791 
L 343.53981 83.072791 
z
" clip-path="url(#p0a845fec93)" style="fill: #1f77b4"/>
   </g>
   <g id="patch_44">
    <path d="M 359.696433 83.078125 
L 375.853056 83.078125 
L 375.853056 83.078125 
L 359.696433 83.078125 
z
" clip-path="url(#p0a845fec93)" style="fill: #1f77b4"/>
   </g>
   <g id="patch_45">
    <path d="M 375.853056 83.078125 
L 392.009679 83.078125 
L 392.009679 83.078125 
L 375.853056 83.078125 
z
" clip-path="url(#p0a845fec93)" style="fill: #1f77b4"/>
   </g>
   <g id="patch_46">
    <path d="M 392.009679 83.078125 
L 408.166303 83.078125 
L 408.166303 83.078125 
L 392.009679 83.078125 
z
" clip-path="url(#p0a845fec93)" style="fill: #1f77b4"/>
   </g>
   <g id="patch_47">
    <path d="M 408.166303 83.078125 
L 424.322926 83.078125 
L 424.322926 83.078125 
L 408.166303 83.078125 
z
" clip-path="url(#p0a845fec93)" style="fill: #1f77b4"/>
   </g>
   <g id="patch_48">
    <path d="M 424.322926 83.078125 
L 440.479549 83.078125 
L 440.479549 83.072791 
L 424.322926 83.072791 
z
" clip-path="url(#p0a845fec93)" style="fill: #1f77b4"/>
   </g>
   <g id="patch_49">
    <path d="M 440.479549 83.078125 
L 456.636172 83.078125 
L 456.636172 83.078125 
L 440.479549 83.078125 
z
" clip-path="url(#p0a845fec93)" style="fill: #1f77b4"/>
   </g>
   <g id="patch_50">
    <path d="M 456.636172 83.078125 
L 472.792795 83.078125 
L 472.792795 83.072791 
L 456.636172 83.072791 
z
" clip-path="url(#p0a845fec93)" style="fill: #1f77b4"/>
   </g>
   <g id="patch_51">
    <path d="M 472.792795 83.078125 
L 488.949418 83.078125 
L 488.949418 83.072791 
L 472.792795 83.072791 
z
" clip-path="url(#p0a845fec93)" style="fill: #1f77b4"/>
   </g>
   <g id="patch_52">
    <path d="M 488.949418 83.078125 
L 505.106042 83.078125 
L 505.106042 83.067456 
L 488.949418 83.067456 
z
" clip-path="url(#p0a845fec93)" style="fill: #1f77b4"/>
   </g>
   <g id="matplotlib.axis_1">
    <g id="xtick_1">
     <g id="line2d_1">
      <defs>
       <path id="m9f8ca5073a" d="M 0 0 
L 0 3.5 
" style="stroke: #000000; stroke-width: 0.8"/>
      </defs>
      <g>
       <use xlink:href="#m9f8ca5073a" x="60.798904" y="83.078125" style="stroke: #000000; stroke-width: 0.8"/>
      </g>
     </g>
     <g id="text_1">
      <!-- −0.1 -->
      <g transform="translate(48.657498 97.676563) scale(0.1 -0.1)">
       <defs>
        <path id="DejaVuSans-2212" d="M 678 2272 
L 4684 2272 
L 4684 1741 
L 678 1741 
L 678 2272 
z
" transform="scale(0.015625)"/>
        <path id="DejaVuSans-30" d="M 2034 4250 
Q 1547 4250 1301 3770 
Q 1056 3291 1056 2328 
Q 1056 1369 1301 889 
Q 1547 409 2034 409 
Q 2525 409 2770 889 
Q 3016 1369 3016 2328 
Q 3016 3291 2770 3770 
Q 2525 4250 2034 4250 
z
M 2034 4750 
Q 2819 4750 3233 4129 
Q 3647 3509 3647 2328 
Q 3647 1150 3233 529 
Q 2819 -91 2034 -91 
Q 1250 -91 836 529 
Q 422 1150 422 2328 
Q 422 3509 836 4129 
Q 1250 4750 2034 4750 
z
" transform="scale(0.015625)"/>
        <path id="DejaVuSans-2e" d="M 684 794 
L 1344 794 
L 1344 0 
L 684 0 
L 684 794 
z
" transform="scale(0.015625)"/>
        <path id="DejaVuSans-31" d="M 794 531 
L 1825 531 
L 1825 4091 
L 703 3866 
L 703 4441 
L 1819 4666 
L 2450 4666 
L 2450 531 
L 3481 531 
L 3481 0 
L 794 0 
L 794 531 
z
" transform="scale(0.015625)"/>
       </defs>
       <use xlink:href="#DejaVuSans-2212"/>
       <use xlink:href="#DejaVuSans-30" x="83.789062"/>
       <use xlink:href="#DejaVuSans-2e" x="147.412109"/>
       <use xlink:href="#DejaVuSans-31" x="179.199219"/>
      </g>
     </g>
    </g>
    <g id="xtick_2">
     <g id="line2d_2">
      <g>
       <use xlink:href="#m9f8ca5073a" x="101.190462" y="83.078125" style="stroke: #000000; stroke-width: 0.8"/>
      </g>
     </g>
     <g id="text_2">
      <!-- 0.0 -->
      <g transform="translate(93.238899 97.676563) scale(0.1 -0.1)">
       <use xlink:href="#DejaVuSans-30"/>
       <use xlink:href="#DejaVuSans-2e" x="63.623047"/>
       <use xlink:href="#DejaVuSans-30" x="95.410156"/>
      </g>
     </g>
    </g>
    <g id="xtick_3">
     <g id="line2d_3">
      <g>
       <use xlink:href="#m9f8ca5073a" x="141.58202" y="83.078125" style="stroke: #000000; stroke-width: 0.8"/>
      </g>
     </g>
     <g id="text_3">
      <!-- 0.1 -->
      <g transform="translate(133.630457 97.676563) scale(0.1 -0.1)">
       <use xlink:href="#DejaVuSans-30"/>
       <use xlink:href="#DejaVuSans-2e" x="63.623047"/>
       <use xlink:href="#DejaVuSans-31" x="95.410156"/>
      </g>
     </g>
    </g>
    <g id="text_4">
     <!-- Difference in Distance -->
     <g transform="translate(45.742024 111.354687) scale(0.1 -0.1)">
      <defs>
       <path id="DejaVuSans-44" d="M 1259 4147 
L 1259 519 
L 2022 519 
Q 2988 519 3436 956 
Q 3884 1394 3884 2338 
Q 3884 3275 3436 3711 
Q 2988 4147 2022 4147 
L 1259 4147 
z
M 628 4666 
L 1925 4666 
Q 3281 4666 3915 4102 
Q 4550 3538 4550 2338 
Q 4550 1131 3912 565 
Q 3275 0 1925 0 
L 628 0 
L 628 4666 
z
" transform="scale(0.015625)"/>
       <path id="DejaVuSans-69" d="M 603 3500 
L 1178 3500 
L 1178 0 
L 603 0 
L 603 3500 
z
M 603 4863 
L 1178 4863 
L 1178 4134 
L 603 4134 
L 603 4863 
z
" transform="scale(0.015625)"/>
       <path id="DejaVuSans-66" d="M 2375 4863 
L 2375 4384 
L 1825 4384 
Q 1516 4384 1395 4259 
Q 1275 4134 1275 3809 
L 1275 3500 
L 2222 3500 
L 2222 3053 
L 1275 3053 
L 1275 0 
L 697 0 
L 697 3053 
L 147 3053 
L 147 3500 
L 697 3500 
L 697 3744 
Q 697 4328 969 4595 
Q 1241 4863 1831 4863 
L 2375 4863 
z
" transform="scale(0.015625)"/>
       <path id="DejaVuSans-65" d="M 3597 1894 
L 3597 1613 
L 953 1613 
Q 991 1019 1311 708 
Q 1631 397 2203 397 
Q 2534 397 2845 478 
Q 3156 559 3463 722 
L 3463 178 
Q 3153 47 2828 -22 
Q 2503 -91 2169 -91 
Q 1331 -91 842 396 
Q 353 884 353 1716 
Q 353 2575 817 3079 
Q 1281 3584 2069 3584 
Q 2775 3584 3186 3129 
Q 3597 2675 3597 1894 
z
M 3022 2063 
Q 3016 2534 2758 2815 
Q 2500 3097 2075 3097 
Q 1594 3097 1305 2825 
Q 1016 2553 972 2059 
L 3022 2063 
z
" transform="scale(0.015625)"/>
       <path id="DejaVuSans-72" d="M 2631 2963 
Q 2534 3019 2420 3045 
Q 2306 3072 2169 3072 
Q 1681 3072 1420 2755 
Q 1159 2438 1159 1844 
L 1159 0 
L 581 0 
L 581 3500 
L 1159 3500 
L 1159 2956 
Q 1341 3275 1631 3429 
Q 1922 3584 2338 3584 
Q 2397 3584 2469 3576 
Q 2541 3569 2628 3553 
L 2631 2963 
z
" transform="scale(0.015625)"/>
       <path id="DejaVuSans-6e" d="M 3513 2113 
L 3513 0 
L 2938 0 
L 2938 2094 
Q 2938 2591 2744 2837 
Q 2550 3084 2163 3084 
Q 1697 3084 1428 2787 
Q 1159 2491 1159 1978 
L 1159 0 
L 581 0 
L 581 3500 
L 1159 3500 
L 1159 2956 
Q 1366 3272 1645 3428 
Q 1925 3584 2291 3584 
Q 2894 3584 3203 3211 
Q 3513 2838 3513 2113 
z
" transform="scale(0.015625)"/>
       <path id="DejaVuSans-63" d="M 3122 3366 
L 3122 2828 
Q 2878 2963 2633 3030 
Q 2388 3097 2138 3097 
Q 1578 3097 1268 2742 
Q 959 2388 959 1747 
Q 959 1106 1268 751 
Q 1578 397 2138 397 
Q 2388 397 2633 464 
Q 2878 531 3122 666 
L 3122 134 
Q 2881 22 2623 -34 
Q 2366 -91 2075 -91 
Q 1284 -91 818 406 
Q 353 903 353 1747 
Q 353 2603 823 3093 
Q 1294 3584 2113 3584 
Q 2378 3584 2631 3529 
Q 2884 3475 3122 3366 
z
" transform="scale(0.015625)"/>
       <path id="DejaVuSans-20" transform="scale(0.015625)"/>
       <path id="DejaVuSans-73" d="M 2834 3397 
L 2834 2853 
Q 2591 2978 2328 3040 
Q 2066 3103 1784 3103 
Q 1356 3103 1142 2972 
Q 928 2841 928 2578 
Q 928 2378 1081 2264 
Q 1234 2150 1697 2047 
L 1894 2003 
Q 2506 1872 2764 1633 
Q 3022 1394 3022 966 
Q 3022 478 2636 193 
Q 2250 -91 1575 -91 
Q 1294 -91 989 -36 
Q 684 19 347 128 
L 347 722 
Q 666 556 975 473 
Q 1284 391 1588 391 
Q 1994 391 2212 530 
Q 2431 669 2431 922 
Q 2431 1156 2273 1281 
Q 2116 1406 1581 1522 
L 1381 1569 
Q 847 1681 609 1914 
Q 372 2147 372 2553 
Q 372 3047 722 3315 
Q 1072 3584 1716 3584 
Q 2034 3584 2315 3537 
Q 2597 3491 2834 3397 
z
" transform="scale(0.015625)"/>
       <path id="DejaVuSans-74" d="M 1172 4494 
L 1172 3500 
L 2356 3500 
L 2356 3053 
L 1172 3053 
L 1172 1153 
Q 1172 725 1289 603 
Q 1406 481 1766 481 
L 2356 481 
L 2356 0 
L 1766 0 
Q 1100 0 847 248 
Q 594 497 594 1153 
L 594 3053 
L 172 3053 
L 172 3500 
L 594 3500 
L 594 4494 
L 1172 4494 
z
" transform="scale(0.015625)"/>
       <path id="DejaVuSans-61" d="M 2194 1759 
Q 1497 1759 1228 1600 
Q 959 1441 959 1056 
Q 959 750 1161 570 
Q 1363 391 1709 391 
Q 2188 391 2477 730 
Q 2766 1069 2766 1631 
L 2766 1759 
L 2194 1759 
z
M 3341 1997 
L 3341 0 
L 2766 0 
L 2766 531 
Q 2569 213 2275 61 
Q 1981 -91 1556 -91 
Q 1019 -91 701 211 
Q 384 513 384 1019 
Q 384 1609 779 1909 
Q 1175 2209 1959 2209 
L 2766 2209 
L 2766 2266 
Q 2766 2663 2505 2880 
Q 2244 3097 1772 3097 
Q 1472 3097 1187 3025 
Q 903 2953 641 2809 
L 641 3341 
Q 956 3463 1253 3523 
Q 1550 3584 1831 3584 
Q 2591 3584 2966 3190 
Q 3341 2797 3341 1997 
z
" transform="scale(0.015625)"/>
      </defs>
      <use xlink:href="#DejaVuSans-44"/>
      <use xlink:href="#DejaVuSans-69" x="77.001953"/>
      <use xlink:href="#DejaVuSans-66" x="104.785156"/>
      <use xlink:href="#DejaVuSans-66" x="139.990234"/>
      <use xlink:href="#DejaVuSans-65" x="175.195312"/>
      <use xlink:href="#DejaVuSans-72" x="236.71875"/>
      <use xlink:href="#DejaVuSans-65" x="275.582031"/>
      <use xlink:href="#DejaVuSans-6e" x="337.105469"/>
      <use xlink:href="#DejaVuSans-63" x="400.484375"/>
      <use xlink:href="#DejaVuSans-65" x="455.464844"/>
      <use xlink:href="#DejaVuSans-20" x="516.988281"/>
      <use xlink:href="#DejaVuSans-69" x="548.775391"/>
      <use xlink:href="#DejaVuSans-6e" x="576.558594"/>
      <use xlink:href="#DejaVuSans-20" x="639.9375"/>
      <use xlink:href="#DejaVuSans-44" x="671.724609"/>
      <use xlink:href="#DejaVuSans-69" x="748.726562"/>
      <use xlink:href="#DejaVuSans-73" x="776.509766"/>
      <use xlink:href="#DejaVuSans-74" x="828.609375"/>
      <use xlink:href="#DejaVuSans-61" x="867.818359"/>
      <use xlink:href="#DejaVuSans-6e" x="929.097656"/>
      <use xlink:href="#DejaVuSans-63" x="992.476562"/>
      <use xlink:href="#DejaVuSans-65" x="1047.457031"/>
     </g>
    </g>
   </g>
   <g id="matplotlib.axis_2">
    <g id="ytick_1">
     <g id="line2d_4">
      <defs>
       <path id="m49bab5ff0e" d="M 0 0 
L -3.5 0 
" style="stroke: #000000; stroke-width: 0.8"/>
      </defs>
      <g>
       <use xlink:href="#m49bab5ff0e" x="40.603125" y="83.078125" style="stroke: #000000; stroke-width: 0.8"/>
      </g>
     </g>
     <g id="text_5">
      <!-- 0 -->
      <g transform="translate(27.240625 86.877344) scale(0.1 -0.1)">
       <use xlink:href="#DejaVuSans-30"/>
      </g>
     </g>
    </g>
    <g id="ytick_2">
     <g id="line2d_5">
      <g>
       <use xlink:href="#m49bab5ff0e" x="40.603125" y="52.698125" style="stroke: #000000; stroke-width: 0.8"/>
      </g>
     </g>
     <g id="text_6">
      <!-- 20 -->
      <g transform="translate(20.878125 56.497344) scale(0.1 -0.1)">
       <defs>
        <path id="DejaVuSans-32" d="M 1228 531 
L 3431 531 
L 3431 0 
L 469 0 
L 469 531 
Q 828 903 1448 1529 
Q 2069 2156 2228 2338 
Q 2531 2678 2651 2914 
Q 2772 3150 2772 3378 
Q 2772 3750 2511 3984 
Q 2250 4219 1831 4219 
Q 1534 4219 1204 4116 
Q 875 4013 500 3803 
L 500 4441 
Q 881 4594 1212 4672 
Q 1544 4750 1819 4750 
Q 2544 4750 2975 4387 
Q 3406 4025 3406 3419 
Q 3406 3131 3298 2873 
Q 3191 2616 2906 2266 
Q 2828 2175 2409 1742 
Q 1991 1309 1228 531 
z
" transform="scale(0.015625)"/>
       </defs>
       <use xlink:href="#DejaVuSans-32"/>
       <use xlink:href="#DejaVuSans-30" x="63.623047"/>
      </g>
     </g>
    </g>
    <g id="ytick_3">
     <g id="line2d_6">
      <g>
       <use xlink:href="#m49bab5ff0e" x="40.603125" y="22.318125" style="stroke: #000000; stroke-width: 0.8"/>
      </g>
     </g>
     <g id="text_7">
      <!-- 40 -->
      <g transform="translate(20.878125 26.117344) scale(0.1 -0.1)">
       <defs>
        <path id="DejaVuSans-34" d="M 2419 4116 
L 825 1625 
L 2419 1625 
L 2419 4116 
z
M 2253 4666 
L 3047 4666 
L 3047 1625 
L 3713 1625 
L 3713 1100 
L 3047 1100 
L 3047 0 
L 2419 0 
L 2419 1100 
L 313 1100 
L 313 1709 
L 2253 4666 
z
" transform="scale(0.015625)"/>
       </defs>
       <use xlink:href="#DejaVuSans-34"/>
       <use xlink:href="#DejaVuSans-30" x="63.623047"/>
      </g>
     </g>
    </g>
    <g id="text_8">
     <!-- Probability Density -->
     <g transform="translate(14.798438 99.724688) rotate(-90) scale(0.1 -0.1)">
      <defs>
       <path id="DejaVuSans-50" d="M 1259 4147 
L 1259 2394 
L 2053 2394 
Q 2494 2394 2734 2622 
Q 2975 2850 2975 3272 
Q 2975 3691 2734 3919 
Q 2494 4147 2053 4147 
L 1259 4147 
z
M 628 4666 
L 2053 4666 
Q 2838 4666 3239 4311 
Q 3641 3956 3641 3272 
Q 3641 2581 3239 2228 
Q 2838 1875 2053 1875 
L 1259 1875 
L 1259 0 
L 628 0 
L 628 4666 
z
" transform="scale(0.015625)"/>
       <path id="DejaVuSans-6f" d="M 1959 3097 
Q 1497 3097 1228 2736 
Q 959 2375 959 1747 
Q 959 1119 1226 758 
Q 1494 397 1959 397 
Q 2419 397 2687 759 
Q 2956 1122 2956 1747 
Q 2956 2369 2687 2733 
Q 2419 3097 1959 3097 
z
M 1959 3584 
Q 2709 3584 3137 3096 
Q 3566 2609 3566 1747 
Q 3566 888 3137 398 
Q 2709 -91 1959 -91 
Q 1206 -91 779 398 
Q 353 888 353 1747 
Q 353 2609 779 3096 
Q 1206 3584 1959 3584 
z
" transform="scale(0.015625)"/>
       <path id="DejaVuSans-62" d="M 3116 1747 
Q 3116 2381 2855 2742 
Q 2594 3103 2138 3103 
Q 1681 3103 1420 2742 
Q 1159 2381 1159 1747 
Q 1159 1113 1420 752 
Q 1681 391 2138 391 
Q 2594 391 2855 752 
Q 3116 1113 3116 1747 
z
M 1159 2969 
Q 1341 3281 1617 3432 
Q 1894 3584 2278 3584 
Q 2916 3584 3314 3078 
Q 3713 2572 3713 1747 
Q 3713 922 3314 415 
Q 2916 -91 2278 -91 
Q 1894 -91 1617 61 
Q 1341 213 1159 525 
L 1159 0 
L 581 0 
L 581 4863 
L 1159 4863 
L 1159 2969 
z
" transform="scale(0.015625)"/>
       <path id="DejaVuSans-6c" d="M 603 4863 
L 1178 4863 
L 1178 0 
L 603 0 
L 603 4863 
z
" transform="scale(0.015625)"/>
       <path id="DejaVuSans-79" d="M 2059 -325 
Q 1816 -950 1584 -1140 
Q 1353 -1331 966 -1331 
L 506 -1331 
L 506 -850 
L 844 -850 
Q 1081 -850 1212 -737 
Q 1344 -625 1503 -206 
L 1606 56 
L 191 3500 
L 800 3500 
L 1894 763 
L 2988 3500 
L 3597 3500 
L 2059 -325 
z
" transform="scale(0.015625)"/>
      </defs>
      <use xlink:href="#DejaVuSans-50"/>
      <use xlink:href="#DejaVuSans-72" x="58.552734"/>
      <use xlink:href="#DejaVuSans-6f" x="97.416016"/>
      <use xlink:href="#DejaVuSans-62" x="158.597656"/>
      <use xlink:href="#DejaVuSans-61" x="222.074219"/>
      <use xlink:href="#DejaVuSans-62" x="283.353516"/>
      <use xlink:href="#DejaVuSans-69" x="346.830078"/>
      <use xlink:href="#DejaVuSans-6c" x="374.613281"/>
      <use xlink:href="#DejaVuSans-69" x="402.396484"/>
      <use xlink:href="#DejaVuSans-74" x="430.179688"/>
      <use xlink:href="#DejaVuSans-79" x="469.388672"/>
      <use xlink:href="#DejaVuSans-20" x="528.568359"/>
      <use xlink:href="#DejaVuSans-44" x="560.355469"/>
      <use xlink:href="#DejaVuSans-65" x="637.357422"/>
      <use xlink:href="#DejaVuSans-6e" x="698.880859"/>
      <use xlink:href="#DejaVuSans-73" x="762.259766"/>
      <use xlink:href="#DejaVuSans-69" x="814.359375"/>
      <use xlink:href="#DejaVuSans-74" x="842.142578"/>
      <use xlink:href="#DejaVuSans-79" x="881.351562"/>
     </g>
    </g>
   </g>
   <g id="line2d_7">
    <path d="M -1 83.077149 
L 6.943493 83.074854 
L 15.919395 83.064413 
L 24.895297 83.028173 
L 33.871199 82.920004 
L 42.8471 82.643176 
L 51.823002 82.038459 
L 60.798904 80.918611 
L 69.774806 79.180273 
L 78.750708 76.96446 
L 87.726609 74.745441 
L 96.702511 73.209079 
L 105.678413 72.920962 
L 114.654315 73.994135 
L 123.630216 76.018398 
L 132.606118 78.310456 
L 141.58202 80.280231 
L 150.557922 81.651324 
L 159.533823 82.445855 
L 168.509725 82.834653 
L 177.485627 82.996654 
L 186.461529 83.054435 
L 195.437431 83.072139 
L 204.413332 83.076811 
L 213.389234 83.077874 
L 222.365136 83.078083 
L 231.341038 83.078119 
L 240.316939 83.078124 
L 249.292841 83.078125 
L 258.268743 83.078125 
L 267.244645 83.078125 
L 276.220546 83.078125 
L 285.196448 83.078125 
L 294.17235 83.078125 
L 303.148252 83.078125 
L 312.124154 83.078125 
L 321.100055 83.078125 
L 330.075957 83.078125 
L 339.051859 83.078125 
L 348.027761 83.078125 
L 357.003662 83.078125 
L 365.979564 83.078125 
L 374.955466 83.078125 
L 383.931368 83.078125 
L 392.90727 83.078125 
L 401.883171 83.078125 
L 410.859073 83.078125 
L 419.834975 83.078125 
L 428.810877 83.078125 
L 437.786778 83.078125 
L 446.76268 83.078125 
L 455.738582 83.078125 
L 464.714484 83.078125 
L 473.690385 83.078125 
L 482.666287 83.078125 
L 491.642189 83.078125 
L 500.618091 83.078125 
L 509.593993 83.078125 
L 518.569894 83.078125 
L 527.545796 83.078125 
L 536.521698 83.078125 
L 545.4976 83.078125 
" clip-path="url(#p0a845fec93)" style="fill: none; stroke: #000000; stroke-width: 2; stroke-linecap: square"/>
   </g>
   <g id="patch_53">
    <path d="M 40.603125 83.078125 
L 40.603125 22.318125 
" style="fill: none; stroke: #000000; stroke-width: 0.8; stroke-linejoin: miter; stroke-linecap: square"/>
   </g>
   <g id="patch_54">
    <path d="M 161.777799 83.078125 
L 161.777799 22.318125 
" style="fill: none; stroke: #000000; stroke-width: 0.8; stroke-linejoin: miter; stroke-linecap: square"/>
   </g>
   <g id="patch_55">
    <path d="M 40.603125 83.078125 
L 161.777799 83.078125 
" style="fill: none; stroke: #000000; stroke-width: 0.8; stroke-linejoin: miter; stroke-linecap: square"/>
   </g>
   <g id="patch_56">
    <path d="M 40.603125 22.318125 
L 161.777799 22.318125 
" style="fill: none; stroke: #000000; stroke-width: 0.8; stroke-linejoin: miter; stroke-linecap: square"/>
   </g>
   <g id="text_9">
    <!-- Image Shingles -->
    <g transform="translate(55.117024 16.318125) scale(0.12 -0.12)">
     <defs>
      <path id="DejaVuSans-49" d="M 628 4666 
L 1259 4666 
L 1259 0 
L 628 0 
L 628 4666 
z
" transform="scale(0.015625)"/>
      <path id="DejaVuSans-6d" d="M 3328 2828 
Q 3544 3216 3844 3400 
Q 4144 3584 4550 3584 
Q 5097 3584 5394 3201 
Q 5691 2819 5691 2113 
L 5691 0 
L 5113 0 
L 5113 2094 
Q 5113 2597 4934 2840 
Q 4756 3084 4391 3084 
Q 3944 3084 3684 2787 
Q 3425 2491 3425 1978 
L 3425 0 
L 2847 0 
L 2847 2094 
Q 2847 2600 2669 2842 
Q 2491 3084 2119 3084 
Q 1678 3084 1418 2786 
Q 1159 2488 1159 1978 
L 1159 0 
L 581 0 
L 581 3500 
L 1159 3500 
L 1159 2956 
Q 1356 3278 1631 3431 
Q 1906 3584 2284 3584 
Q 2666 3584 2933 3390 
Q 3200 3197 3328 2828 
z
" transform="scale(0.015625)"/>
      <path id="DejaVuSans-67" d="M 2906 1791 
Q 2906 2416 2648 2759 
Q 2391 3103 1925 3103 
Q 1463 3103 1205 2759 
Q 947 2416 947 1791 
Q 947 1169 1205 825 
Q 1463 481 1925 481 
Q 2391 481 2648 825 
Q 2906 1169 2906 1791 
z
M 3481 434 
Q 3481 -459 3084 -895 
Q 2688 -1331 1869 -1331 
Q 1566 -1331 1297 -1286 
Q 1028 -1241 775 -1147 
L 775 -588 
Q 1028 -725 1275 -790 
Q 1522 -856 1778 -856 
Q 2344 -856 2625 -561 
Q 2906 -266 2906 331 
L 2906 616 
Q 2728 306 2450 153 
Q 2172 0 1784 0 
Q 1141 0 747 490 
Q 353 981 353 1791 
Q 353 2603 747 3093 
Q 1141 3584 1784 3584 
Q 2172 3584 2450 3431 
Q 2728 3278 2906 2969 
L 2906 3500 
L 3481 3500 
L 3481 434 
z
" transform="scale(0.015625)"/>
      <path id="DejaVuSans-53" d="M 3425 4513 
L 3425 3897 
Q 3066 4069 2747 4153 
Q 2428 4238 2131 4238 
Q 1616 4238 1336 4038 
Q 1056 3838 1056 3469 
Q 1056 3159 1242 3001 
Q 1428 2844 1947 2747 
L 2328 2669 
Q 3034 2534 3370 2195 
Q 3706 1856 3706 1288 
Q 3706 609 3251 259 
Q 2797 -91 1919 -91 
Q 1588 -91 1214 -16 
Q 841 59 441 206 
L 441 856 
Q 825 641 1194 531 
Q 1563 422 1919 422 
Q 2459 422 2753 634 
Q 3047 847 3047 1241 
Q 3047 1584 2836 1778 
Q 2625 1972 2144 2069 
L 1759 2144 
Q 1053 2284 737 2584 
Q 422 2884 422 3419 
Q 422 4038 858 4394 
Q 1294 4750 2059 4750 
Q 2388 4750 2728 4690 
Q 3069 4631 3425 4513 
z
" transform="scale(0.015625)"/>
      <path id="DejaVuSans-68" d="M 3513 2113 
L 3513 0 
L 2938 0 
L 2938 2094 
Q 2938 2591 2744 2837 
Q 2550 3084 2163 3084 
Q 1697 3084 1428 2787 
Q 1159 2491 1159 1978 
L 1159 0 
L 581 0 
L 581 4863 
L 1159 4863 
L 1159 2956 
Q 1366 3272 1645 3428 
Q 1925 3584 2291 3584 
Q 2894 3584 3203 3211 
Q 3513 2838 3513 2113 
z
" transform="scale(0.015625)"/>
     </defs>
     <use xlink:href="#DejaVuSans-49"/>
     <use xlink:href="#DejaVuSans-6d" x="29.492188"/>
     <use xlink:href="#DejaVuSans-61" x="126.904297"/>
     <use xlink:href="#DejaVuSans-67" x="188.183594"/>
     <use xlink:href="#DejaVuSans-65" x="251.660156"/>
     <use xlink:href="#DejaVuSans-20" x="313.183594"/>
     <use xlink:href="#DejaVuSans-53" x="344.970703"/>
     <use xlink:href="#DejaVuSans-68" x="408.447266"/>
     <use xlink:href="#DejaVuSans-69" x="471.826172"/>
     <use xlink:href="#DejaVuSans-6e" x="499.609375"/>
     <use xlink:href="#DejaVuSans-67" x="562.988281"/>
     <use xlink:href="#DejaVuSans-6c" x="626.464844"/>
     <use xlink:href="#DejaVuSans-65" x="654.248047"/>
     <use xlink:href="#DejaVuSans-73" x="715.771484"/>
    </g>
   </g>
   <g id="legend_1">
    <g id="line2d_8">
     <path d="M 49.603125 35.416563 
L 59.603125 35.416563 
L 69.603125 35.416563 
" style="fill: none; stroke: #000000; stroke-width: 2; stroke-linecap: square"/>
    </g>
    <g id="text_10">
     <!-- μ=0.00, σ=0.06 -->
     <g transform="translate(77.603125 38.916563) scale(0.1 -0.1)">
      <defs>
       <path id="DejaVuSans-3bc" d="M 544 -1331 
L 544 3500 
L 1119 3500 
L 1119 1325 
Q 1119 872 1334 640 
Q 1550 409 1972 409 
Q 2434 409 2667 671 
Q 2900 934 2900 1459 
L 2900 3500 
L 3475 3500 
L 3475 806 
Q 3475 619 3529 530 
Q 3584 441 3700 441 
Q 3728 441 3778 458 
Q 3828 475 3916 513 
L 3916 50 
Q 3788 -22 3673 -56 
Q 3559 -91 3450 -91 
Q 3234 -91 3106 31 
Q 2978 153 2931 403 
Q 2775 156 2548 32 
Q 2322 -91 2016 -91 
Q 1697 -91 1473 31 
Q 1250 153 1119 397 
L 1119 -1331 
L 544 -1331 
z
" transform="scale(0.015625)"/>
       <path id="DejaVuSans-3d" d="M 678 2906 
L 4684 2906 
L 4684 2381 
L 678 2381 
L 678 2906 
z
M 678 1631 
L 4684 1631 
L 4684 1100 
L 678 1100 
L 678 1631 
z
" transform="scale(0.015625)"/>
       <path id="DejaVuSans-2c" d="M 750 794 
L 1409 794 
L 1409 256 
L 897 -744 
L 494 -744 
L 750 256 
L 750 794 
z
" transform="scale(0.015625)"/>
       <path id="DejaVuSans-3c3" d="M 1959 3044 
Q 1484 3044 1228 2700 
Q 959 2341 959 1747 
Q 959 1119 1226 758 
Q 1494 397 1959 397 
Q 2419 397 2687 759 
Q 2956 1122 2956 1747 
Q 2956 2319 2688 2700 
Q 2441 3044 1959 3044 
z
M 1959 3500 
L 3869 3500 
L 3869 2925 
L 3225 2925 
Q 3566 2438 3566 1747 
Q 3566 888 3138 400 
Q 2709 -91 1959 -91 
Q 1206 -91 781 400 
Q 353 888 353 1747 
Q 353 2613 781 3097 
Q 1134 3500 1959 3500 
z
" transform="scale(0.015625)"/>
       <path id="DejaVuSans-36" d="M 2113 2584 
Q 1688 2584 1439 2293 
Q 1191 2003 1191 1497 
Q 1191 994 1439 701 
Q 1688 409 2113 409 
Q 2538 409 2786 701 
Q 3034 994 3034 1497 
Q 3034 2003 2786 2293 
Q 2538 2584 2113 2584 
z
M 3366 4563 
L 3366 3988 
Q 3128 4100 2886 4159 
Q 2644 4219 2406 4219 
Q 1781 4219 1451 3797 
Q 1122 3375 1075 2522 
Q 1259 2794 1537 2939 
Q 1816 3084 2150 3084 
Q 2853 3084 3261 2657 
Q 3669 2231 3669 1497 
Q 3669 778 3244 343 
Q 2819 -91 2113 -91 
Q 1303 -91 875 529 
Q 447 1150 447 2328 
Q 447 3434 972 4092 
Q 1497 4750 2381 4750 
Q 2619 4750 2861 4703 
Q 3103 4656 3366 4563 
z
" transform="scale(0.015625)"/>
      </defs>
      <use xlink:href="#DejaVuSans-3bc"/>
      <use xlink:href="#DejaVuSans-3d" x="63.623047"/>
      <use xlink:href="#DejaVuSans-30" x="147.412109"/>
      <use xlink:href="#DejaVuSans-2e" x="211.035156"/>
      <use xlink:href="#DejaVuSans-30" x="242.822266"/>
      <use xlink:href="#DejaVuSans-30" x="306.445312"/>
      <use xlink:href="#DejaVuSans-2c" x="370.068359"/>
      <use xlink:href="#DejaVuSans-20" x="401.855469"/>
      <use xlink:href="#DejaVuSans-3c3" x="433.642578"/>
      <use xlink:href="#DejaVuSans-3d" x="497.021484"/>
      <use xlink:href="#DejaVuSans-30" x="580.810547"/>
      <use xlink:href="#DejaVuSans-2e" x="644.433594"/>
      <use xlink:href="#DejaVuSans-30" x="676.220703"/>
      <use xlink:href="#DejaVuSans-36" x="739.84375"/>
     </g>
    </g>
   </g>
  </g>
  <g id="axes_2">
   <g id="patch_57">
    <path d="M 210.725625 83.078125 
L 331.900299 83.078125 
L 331.900299 22.318125 
L 210.725625 22.318125 
z
" style="fill: #ffffff"/>
   </g>
   <g id="patch_58">
    <path d="M 76.812695 83.078125 
L 88.781012 83.078125 
L 88.781012 83.070924 
L 76.812695 83.070924 
z
" clip-path="url(#p85f7939859)" style="fill: #1f77b4"/>
   </g>
   <g id="patch_59">
    <path d="M 88.781012 83.078125 
L 100.749329 83.078125 
L 100.749329 83.078125 
L 88.781012 83.078125 
z
" clip-path="url(#p85f7939859)" style="fill: #1f77b4"/>
   </g>
   <g id="patch_60">
    <path d="M 100.749329 83.078125 
L 112.717646 83.078125 
L 112.717646 83.078125 
L 100.749329 83.078125 
z
" clip-path="url(#p85f7939859)" style="fill: #1f77b4"/>
   </g>
   <g id="patch_61">
    <path d="M 112.717646 83.078125 
L 124.685963 83.078125 
L 124.685963 83.078125 
L 112.717646 83.078125 
z
" clip-path="url(#p85f7939859)" style="fill: #1f77b4"/>
   </g>
   <g id="patch_62">
    <path d="M 124.685963 83.078125 
L 136.65428 83.078125 
L 136.65428 83.070924 
L 124.685963 83.070924 
z
" clip-path="url(#p85f7939859)" style="fill: #1f77b4"/>
   </g>
   <g id="patch_63">
    <path d="M 136.65428 83.078125 
L 148.622597 83.078125 
L 148.622597 83.056522 
L 136.65428 83.056522 
z
" clip-path="url(#p85f7939859)" style="fill: #1f77b4"/>
   </g>
   <g id="patch_64">
    <path d="M 148.622597 83.078125 
L 160.590914 83.078125 
L 160.590914 83.070924 
L 148.622597 83.070924 
z
" clip-path="url(#p85f7939859)" style="fill: #1f77b4"/>
   </g>
   <g id="patch_65">
    <path d="M 160.590914 83.078125 
L 172.559231 83.078125 
L 172.559231 83.063723 
L 160.590914 83.063723 
z
" clip-path="url(#p85f7939859)" style="fill: #1f77b4"/>
   </g>
   <g id="patch_66">
    <path d="M 172.559231 83.078125 
L 184.527548 83.078125 
L 184.527548 83.04212 
L 172.559231 83.04212 
z
" clip-path="url(#p85f7939859)" style="fill: #1f77b4"/>
   </g>
   <g id="patch_67">
    <path d="M 184.527548 83.078125 
L 196.495865 83.078125 
L 196.495865 83.04212 
L 184.527548 83.04212 
z
" clip-path="url(#p85f7939859)" style="fill: #1f77b4"/>
   </g>
   <g id="patch_68">
    <path d="M 196.495865 83.078125 
L 208.464181 83.078125 
L 208.464181 83.034919 
L 196.495865 83.034919 
z
" clip-path="url(#p85f7939859)" style="fill: #1f77b4"/>
   </g>
   <g id="patch_69">
    <path d="M 208.464181 83.078125 
L 220.432498 83.078125 
L 220.432498 83.034919 
L 208.464181 83.034919 
z
" clip-path="url(#p85f7939859)" style="fill: #1f77b4"/>
   </g>
   <g id="patch_70">
    <path d="M 220.432498 83.078125 
L 232.400815 83.078125 
L 232.400815 82.912501 
L 220.432498 82.912501 
z
" clip-path="url(#p85f7939859)" style="fill: #1f77b4"/>
   </g>
   <g id="patch_71">
    <path d="M 232.400815 83.078125 
L 244.369132 83.078125 
L 244.369132 82.746876 
L 232.400815 82.746876 
z
" clip-path="url(#p85f7939859)" style="fill: #1f77b4"/>
   </g>
   <g id="patch_72">
    <path d="M 244.369132 83.078125 
L 256.337449 83.078125 
L 256.337449 82.098781 
L 244.369132 82.098781 
z
" clip-path="url(#p85f7939859)" style="fill: #1f77b4"/>
   </g>
   <g id="patch_73">
    <path d="M 256.337449 83.078125 
L 268.305766 83.078125 
L 268.305766 78.923115 
L 256.337449 78.923115 
z
" clip-path="url(#p85f7939859)" style="fill: #1f77b4"/>
   </g>
   <g id="patch_74">
    <path d="M 268.305766 83.078125 
L 280.274083 83.078125 
L 280.274083 42.147312 
L 268.305766 42.147312 
z
" clip-path="url(#p85f7939859)" style="fill: #1f77b4"/>
   </g>
   <g id="patch_75">
    <path d="M 280.274083 83.078125 
L 292.2424 83.078125 
L 292.2424 80.341723 
L 280.274083 80.341723 
z
" clip-path="url(#p85f7939859)" style="fill: #1f77b4"/>
   </g>
   <g id="patch_76">
    <path d="M 292.2424 83.078125 
L 304.210717 83.078125 
L 304.210717 82.177993 
L 292.2424 82.177993 
z
" clip-path="url(#p85f7939859)" style="fill: #1f77b4"/>
   </g>
   <g id="patch_77">
    <path d="M 304.210717 83.078125 
L 316.179034 83.078125 
L 316.179034 82.761278 
L 304.210717 82.761278 
z
" clip-path="url(#p85f7939859)" style="fill: #1f77b4"/>
   </g>
   <g id="patch_78">
    <path d="M 316.179034 83.078125 
L 328.147351 83.078125 
L 328.147351 82.912501 
L 316.179034 82.912501 
z
" clip-path="url(#p85f7939859)" style="fill: #1f77b4"/>
   </g>
   <g id="patch_79">
    <path d="M 328.147351 83.078125 
L 340.115668 83.078125 
L 340.115668 82.962908 
L 328.147351 82.962908 
z
" clip-path="url(#p85f7939859)" style="fill: #1f77b4"/>
   </g>
   <g id="patch_80">
    <path d="M 340.115668 83.078125 
L 352.083985 83.078125 
L 352.083985 82.970109 
L 340.115668 82.970109 
z
" clip-path="url(#p85f7939859)" style="fill: #1f77b4"/>
   </g>
   <g id="patch_81">
    <path d="M 352.083985 83.078125 
L 364.052302 83.078125 
L 364.052302 83.070924 
L 352.083985 83.070924 
z
" clip-path="url(#p85f7939859)" style="fill: #1f77b4"/>
   </g>
   <g id="patch_82">
    <path d="M 364.052302 83.078125 
L 376.020618 83.078125 
L 376.020618 83.063723 
L 364.052302 83.063723 
z
" clip-path="url(#p85f7939859)" style="fill: #1f77b4"/>
   </g>
   <g id="patch_83">
    <path d="M 376.020618 83.078125 
L 387.988935 83.078125 
L 387.988935 83.04212 
L 376.020618 83.04212 
z
" clip-path="url(#p85f7939859)" style="fill: #1f77b4"/>
   </g>
   <g id="patch_84">
    <path d="M 387.988935 83.078125 
L 399.957252 83.078125 
L 399.957252 83.078125 
L 387.988935 83.078125 
z
" clip-path="url(#p85f7939859)" style="fill: #1f77b4"/>
   </g>
   <g id="patch_85">
    <path d="M 399.957252 83.078125 
L 411.925569 83.078125 
L 411.925569 83.056522 
L 399.957252 83.056522 
z
" clip-path="url(#p85f7939859)" style="fill: #1f77b4"/>
   </g>
   <g id="patch_86">
    <path d="M 411.925569 83.078125 
L 423.893886 83.078125 
L 423.893886 83.063723 
L 411.925569 83.063723 
z
" clip-path="url(#p85f7939859)" style="fill: #1f77b4"/>
   </g>
   <g id="patch_87">
    <path d="M 423.893886 83.078125 
L 435.862203 83.078125 
L 435.862203 83.078125 
L 423.893886 83.078125 
z
" clip-path="url(#p85f7939859)" style="fill: #1f77b4"/>
   </g>
   <g id="patch_88">
    <path d="M 435.862203 83.078125 
L 447.83052 83.078125 
L 447.83052 83.063723 
L 435.862203 83.063723 
z
" clip-path="url(#p85f7939859)" style="fill: #1f77b4"/>
   </g>
   <g id="patch_89">
    <path d="M 447.83052 83.078125 
L 459.798837 83.078125 
L 459.798837 83.063723 
L 447.83052 83.063723 
z
" clip-path="url(#p85f7939859)" style="fill: #1f77b4"/>
   </g>
   <g id="patch_90">
    <path d="M 459.798837 83.078125 
L 471.767154 83.078125 
L 471.767154 83.070924 
L 459.798837 83.070924 
z
" clip-path="url(#p85f7939859)" style="fill: #1f77b4"/>
   </g>
   <g id="patch_91">
    <path d="M 471.767154 83.078125 
L 483.735471 83.078125 
L 483.735471 83.078125 
L 471.767154 83.078125 
z
" clip-path="url(#p85f7939859)" style="fill: #1f77b4"/>
   </g>
   <g id="patch_92">
    <path d="M 483.735471 83.078125 
L 495.703788 83.078125 
L 495.703788 83.078125 
L 483.735471 83.078125 
z
" clip-path="url(#p85f7939859)" style="fill: #1f77b4"/>
   </g>
   <g id="patch_93">
    <path d="M 495.703788 83.078125 
L 507.672105 83.078125 
L 507.672105 83.078125 
L 495.703788 83.078125 
z
" clip-path="url(#p85f7939859)" style="fill: #1f77b4"/>
   </g>
   <g id="patch_94">
    <path d="M 507.672105 83.078125 
L 519.640422 83.078125 
L 519.640422 83.078125 
L 507.672105 83.078125 
z
" clip-path="url(#p85f7939859)" style="fill: #1f77b4"/>
   </g>
   <g id="patch_95">
    <path d="M 519.640422 83.078125 
L 531.608739 83.078125 
L 531.608739 83.078125 
L 519.640422 83.078125 
z
" clip-path="url(#p85f7939859)" style="fill: #1f77b4"/>
   </g>
   <g id="patch_96">
    <path d="M 531.608739 83.078125 
L 543.577055 83.078125 
L 543.577055 83.078125 
L 531.608739 83.078125 
z
" clip-path="url(#p85f7939859)" style="fill: #1f77b4"/>
   </g>
   <g id="patch_97">
    <path d="M 543.577055 83.078125 
L 555.545372 83.078125 
L 555.545372 83.078125 
L 543.577055 83.078125 
z
" clip-path="url(#p85f7939859)" style="fill: #1f77b4"/>
   </g>
   <g id="patch_98">
    <path d="M 555.545372 83.078125 
L 567.513689 83.078125 
L 567.513689 83.078125 
L 555.545372 83.078125 
z
" clip-path="url(#p85f7939859)" style="fill: #1f77b4"/>
   </g>
   <g id="patch_99">
    <path d="M 567.513689 83.078125 
L 579.482006 83.078125 
L 579.482006 83.078125 
L 567.513689 83.078125 
z
" clip-path="url(#p85f7939859)" style="fill: #1f77b4"/>
   </g>
   <g id="patch_100">
    <path d="M 579.482006 83.078125 
L 591.450323 83.078125 
L 591.450323 83.078125 
L 579.482006 83.078125 
z
" clip-path="url(#p85f7939859)" style="fill: #1f77b4"/>
   </g>
   <g id="patch_101">
    <path d="M 591.450323 83.078125 
L 603.41864 83.078125 
L 603.41864 83.078125 
L 591.450323 83.078125 
z
" clip-path="url(#p85f7939859)" style="fill: #1f77b4"/>
   </g>
   <g id="patch_102">
    <path d="M 603.41864 83.078125 
L 615.386957 83.078125 
L 615.386957 83.078125 
L 603.41864 83.078125 
z
" clip-path="url(#p85f7939859)" style="fill: #1f77b4"/>
   </g>
   <g id="patch_103">
    <path d="M 615.386957 83.078125 
L 627.355274 83.078125 
L 627.355274 83.078125 
L 615.386957 83.078125 
z
" clip-path="url(#p85f7939859)" style="fill: #1f77b4"/>
   </g>
   <g id="patch_104">
    <path d="M 627.355274 83.078125 
L 639.323591 83.078125 
L 639.323591 83.070924 
L 627.355274 83.070924 
z
" clip-path="url(#p85f7939859)" style="fill: #1f77b4"/>
   </g>
   <g id="patch_105">
    <path d="M 639.323591 83.078125 
L 651.291908 83.078125 
L 651.291908 83.078125 
L 639.323591 83.078125 
z
" clip-path="url(#p85f7939859)" style="fill: #1f77b4"/>
   </g>
   <g id="patch_106">
    <path d="M 651.291908 83.078125 
L 663.260225 83.078125 
L 663.260225 83.078125 
L 651.291908 83.078125 
z
" clip-path="url(#p85f7939859)" style="fill: #1f77b4"/>
   </g>
   <g id="patch_107">
    <path d="M 663.260225 83.078125 
L 675.228542 83.078125 
L 675.228542 83.070924 
L 663.260225 83.070924 
z
" clip-path="url(#p85f7939859)" style="fill: #1f77b4"/>
   </g>
   <g id="matplotlib.axis_3">
    <g id="xtick_4">
     <g id="line2d_9">
      <g>
       <use xlink:href="#m9f8ca5073a" x="230.921404" y="83.078125" style="stroke: #000000; stroke-width: 0.8"/>
      </g>
     </g>
     <g id="text_11">
      <!-- −0.1 -->
      <g transform="translate(218.779998 97.676563) scale(0.1 -0.1)">
       <use xlink:href="#DejaVuSans-2212"/>
       <use xlink:href="#DejaVuSans-30" x="83.789062"/>
       <use xlink:href="#DejaVuSans-2e" x="147.412109"/>
       <use xlink:href="#DejaVuSans-31" x="179.199219"/>
      </g>
     </g>
    </g>
    <g id="xtick_5">
     <g id="line2d_10">
      <g>
       <use xlink:href="#m9f8ca5073a" x="271.312962" y="83.078125" style="stroke: #000000; stroke-width: 0.8"/>
      </g>
     </g>
     <g id="text_12">
      <!-- 0.0 -->
      <g transform="translate(263.361399 97.676563) scale(0.1 -0.1)">
       <use xlink:href="#DejaVuSans-30"/>
       <use xlink:href="#DejaVuSans-2e" x="63.623047"/>
       <use xlink:href="#DejaVuSans-30" x="95.410156"/>
      </g>
     </g>
    </g>
    <g id="xtick_6">
     <g id="line2d_11">
      <g>
       <use xlink:href="#m9f8ca5073a" x="311.70452" y="83.078125" style="stroke: #000000; stroke-width: 0.8"/>
      </g>
     </g>
     <g id="text_13">
      <!-- 0.1 -->
      <g transform="translate(303.752957 97.676563) scale(0.1 -0.1)">
       <use xlink:href="#DejaVuSans-30"/>
       <use xlink:href="#DejaVuSans-2e" x="63.623047"/>
       <use xlink:href="#DejaVuSans-31" x="95.410156"/>
      </g>
     </g>
    </g>
    <g id="text_14">
     <!-- Difference in Distance -->
     <g transform="translate(215.864524 111.354687) scale(0.1 -0.1)">
      <use xlink:href="#DejaVuSans-44"/>
      <use xlink:href="#DejaVuSans-69" x="77.001953"/>
      <use xlink:href="#DejaVuSans-66" x="104.785156"/>
      <use xlink:href="#DejaVuSans-66" x="139.990234"/>
      <use xlink:href="#DejaVuSans-65" x="175.195312"/>
      <use xlink:href="#DejaVuSans-72" x="236.71875"/>
      <use xlink:href="#DejaVuSans-65" x="275.582031"/>
      <use xlink:href="#DejaVuSans-6e" x="337.105469"/>
      <use xlink:href="#DejaVuSans-63" x="400.484375"/>
      <use xlink:href="#DejaVuSans-65" x="455.464844"/>
      <use xlink:href="#DejaVuSans-20" x="516.988281"/>
      <use xlink:href="#DejaVuSans-69" x="548.775391"/>
      <use xlink:href="#DejaVuSans-6e" x="576.558594"/>
      <use xlink:href="#DejaVuSans-20" x="639.9375"/>
      <use xlink:href="#DejaVuSans-44" x="671.724609"/>
      <use xlink:href="#DejaVuSans-69" x="748.726562"/>
      <use xlink:href="#DejaVuSans-73" x="776.509766"/>
      <use xlink:href="#DejaVuSans-74" x="828.609375"/>
      <use xlink:href="#DejaVuSans-61" x="867.818359"/>
      <use xlink:href="#DejaVuSans-6e" x="929.097656"/>
      <use xlink:href="#DejaVuSans-63" x="992.476562"/>
      <use xlink:href="#DejaVuSans-65" x="1047.457031"/>
     </g>
    </g>
   </g>
   <g id="matplotlib.axis_4">
    <g id="ytick_4">
     <g id="line2d_12">
      <g>
       <use xlink:href="#m49bab5ff0e" x="210.725625" y="83.078125" style="stroke: #000000; stroke-width: 0.8"/>
      </g>
     </g>
     <g id="text_15">
      <!-- 0 -->
      <g transform="translate(197.363125 86.877344) scale(0.1 -0.1)">
       <use xlink:href="#DejaVuSans-30"/>
      </g>
     </g>
    </g>
    <g id="ytick_5">
     <g id="line2d_13">
      <g>
       <use xlink:href="#m49bab5ff0e" x="210.725625" y="52.698125" style="stroke: #000000; stroke-width: 0.8"/>
      </g>
     </g>
     <g id="text_16">
      <!-- 20 -->
      <g transform="translate(191.000625 56.497344) scale(0.1 -0.1)">
       <use xlink:href="#DejaVuSans-32"/>
       <use xlink:href="#DejaVuSans-30" x="63.623047"/>
      </g>
     </g>
    </g>
    <g id="ytick_6">
     <g id="line2d_14">
      <g>
       <use xlink:href="#m49bab5ff0e" x="210.725625" y="22.318125" style="stroke: #000000; stroke-width: 0.8"/>
      </g>
     </g>
     <g id="text_17">
      <!-- 40 -->
      <g transform="translate(191.000625 26.117344) scale(0.1 -0.1)">
       <use xlink:href="#DejaVuSans-34"/>
       <use xlink:href="#DejaVuSans-30" x="63.623047"/>
      </g>
     </g>
    </g>
    <g id="text_18">
     <!-- Probability Density -->
     <g transform="translate(184.920938 99.724688) rotate(-90) scale(0.1 -0.1)">
      <use xlink:href="#DejaVuSans-50"/>
      <use xlink:href="#DejaVuSans-72" x="58.552734"/>
      <use xlink:href="#DejaVuSans-6f" x="97.416016"/>
      <use xlink:href="#DejaVuSans-62" x="158.597656"/>
      <use xlink:href="#DejaVuSans-61" x="222.074219"/>
      <use xlink:href="#DejaVuSans-62" x="283.353516"/>
      <use xlink:href="#DejaVuSans-69" x="346.830078"/>
      <use xlink:href="#DejaVuSans-6c" x="374.613281"/>
      <use xlink:href="#DejaVuSans-69" x="402.396484"/>
      <use xlink:href="#DejaVuSans-74" x="430.179688"/>
      <use xlink:href="#DejaVuSans-79" x="469.388672"/>
      <use xlink:href="#DejaVuSans-20" x="528.568359"/>
      <use xlink:href="#DejaVuSans-44" x="560.355469"/>
      <use xlink:href="#DejaVuSans-65" x="637.357422"/>
      <use xlink:href="#DejaVuSans-6e" x="698.880859"/>
      <use xlink:href="#DejaVuSans-73" x="762.259766"/>
      <use xlink:href="#DejaVuSans-69" x="814.359375"/>
      <use xlink:href="#DejaVuSans-74" x="842.142578"/>
      <use xlink:href="#DejaVuSans-79" x="881.351562"/>
     </g>
    </g>
   </g>
   <g id="line2d_15">
    <path d="M 46.891903 83.078125 
L 53.540968 83.078125 
L 60.190033 83.078125 
L 66.839098 83.078125 
L 73.488163 83.078125 
L 80.137228 83.078125 
L 86.786293 83.078125 
L 93.435358 83.078125 
L 100.084423 83.078125 
L 106.733488 83.078125 
L 113.382553 83.078125 
L 120.031618 83.078125 
L 126.680682 83.078125 
L 133.329747 83.078125 
L 139.978812 83.078125 
L 146.627877 83.078125 
L 153.276942 83.078125 
L 159.926007 83.078125 
L 166.575072 83.078125 
L 173.224137 83.078125 
L 179.873202 83.078125 
L 186.522267 83.078124 
L 193.171332 83.078117 
L 199.820397 83.078042 
L 206.469462 83.077427 
L 213.118527 83.073334 
L 219.767592 83.051313 
L 226.416657 82.955775 
L 233.065722 82.622877 
L 239.714787 81.696932 
L 246.363852 79.661284 
L 253.012917 76.185912 
L 259.661982 71.742222 
L 266.311047 67.875552 
L 272.960112 66.453891 
L 279.609177 68.255343 
L 286.258242 72.301535 
L 292.907306 76.68966 
L 299.556371 79.990139 
L 306.205436 81.861049 
L 312.854501 82.686993 
L 319.503566 82.975632 
L 326.152631 83.056226 
L 332.801696 83.07431 
L 339.450761 83.077583 
L 346.099826 83.078062 
L 352.748891 83.078119 
L 359.397956 83.078125 
L 366.047021 83.078125 
L 372.696086 83.078125 
L 379.345151 83.078125 
L 385.994216 83.078125 
L 392.643281 83.078125 
L 399.292346 83.078125 
L 405.941411 83.078125 
L 412.590476 83.078125 
L 419.239541 83.078125 
L 425.888606 83.078125 
L 432.537671 83.078125 
L 439.186736 83.078125 
L 445.835801 83.078125 
L 452.484866 83.078125 
L 459.13393 83.078125 
L 465.782995 83.078125 
L 472.43206 83.078125 
L 479.081125 83.078125 
L 485.73019 83.078125 
L 492.379255 83.078125 
L 499.02832 83.078125 
L 505.677385 83.078125 
L 512.32645 83.078125 
L 518.975515 83.078125 
L 525.62458 83.078125 
L 532.273645 83.078125 
L 538.92271 83.078125 
L 545.571775 83.078125 
L 552.22084 83.078125 
L 558.869905 83.078125 
L 565.51897 83.078125 
L 572.168035 83.078125 
L 578.8171 83.078125 
L 585.466165 83.078125 
L 592.11523 83.078125 
L 598.764295 83.078125 
L 605.41336 83.078125 
L 612.062425 83.078125 
L 618.71149 83.078125 
L 625.360554 83.078125 
L 632.009619 83.078125 
L 638.658684 83.078125 
L 645.307749 83.078125 
L 651.956814 83.078125 
L 658.605879 83.078125 
L 665.254944 83.078125 
L 671.904009 83.078125 
L 678.553074 83.078125 
L 680.5175 83.078125 
" clip-path="url(#p85f7939859)" style="fill: none; stroke: #000000; stroke-width: 2; stroke-linecap: square"/>
   </g>
   <g id="patch_108">
    <path d="M 210.725625 83.078125 
L 210.725625 22.318125 
" style="fill: none; stroke: #000000; stroke-width: 0.8; stroke-linejoin: miter; stroke-linecap: square"/>
   </g>
   <g id="patch_109">
    <path d="M 331.900299 83.078125 
L 331.900299 22.318125 
" style="fill: none; stroke: #000000; stroke-width: 0.8; stroke-linejoin: miter; stroke-linecap: square"/>
   </g>
   <g id="patch_110">
    <path d="M 210.725625 83.078125 
L 331.900299 83.078125 
" style="fill: none; stroke: #000000; stroke-width: 0.8; stroke-linejoin: miter; stroke-linecap: square"/>
   </g>
   <g id="patch_111">
    <path d="M 210.725625 22.318125 
L 331.900299 22.318125 
" style="fill: none; stroke: #000000; stroke-width: 0.8; stroke-linejoin: miter; stroke-linecap: square"/>
   </g>
   <g id="text_19">
    <!-- Inner Text -->
    <g transform="translate(241.737649 16.318125) scale(0.12 -0.12)">
     <defs>
      <path id="DejaVuSans-54" d="M -19 4666 
L 3928 4666 
L 3928 4134 
L 2272 4134 
L 2272 0 
L 1638 0 
L 1638 4134 
L -19 4134 
L -19 4666 
z
" transform="scale(0.015625)"/>
      <path id="DejaVuSans-78" d="M 3513 3500 
L 2247 1797 
L 3578 0 
L 2900 0 
L 1881 1375 
L 863 0 
L 184 0 
L 1544 1831 
L 300 3500 
L 978 3500 
L 1906 2253 
L 2834 3500 
L 3513 3500 
z
" transform="scale(0.015625)"/>
     </defs>
     <use xlink:href="#DejaVuSans-49"/>
     <use xlink:href="#DejaVuSans-6e" x="29.492188"/>
     <use xlink:href="#DejaVuSans-6e" x="92.871094"/>
     <use xlink:href="#DejaVuSans-65" x="156.25"/>
     <use xlink:href="#DejaVuSans-72" x="217.773438"/>
     <use xlink:href="#DejaVuSans-20" x="258.886719"/>
     <use xlink:href="#DejaVuSans-54" x="290.673828"/>
     <use xlink:href="#DejaVuSans-65" x="334.757812"/>
     <use xlink:href="#DejaVuSans-78" x="394.53125"/>
     <use xlink:href="#DejaVuSans-74" x="453.710938"/>
    </g>
   </g>
   <g id="legend_2">
    <g id="line2d_16">
     <path d="M 219.725625 35.416563 
L 229.725625 35.416563 
L 239.725625 35.416563 
" style="fill: none; stroke: #000000; stroke-width: 2; stroke-linecap: square"/>
    </g>
    <g id="text_20">
     <!-- μ=0.00, σ=0.04 -->
     <g transform="translate(247.725625 38.916563) scale(0.1 -0.1)">
      <use xlink:href="#DejaVuSans-3bc"/>
      <use xlink:href="#DejaVuSans-3d" x="63.623047"/>
      <use xlink:href="#DejaVuSans-30" x="147.412109"/>
      <use xlink:href="#DejaVuSans-2e" x="211.035156"/>
      <use xlink:href="#DejaVuSans-30" x="242.822266"/>
      <use xlink:href="#DejaVuSans-30" x="306.445312"/>
      <use xlink:href="#DejaVuSans-2c" x="370.068359"/>
      <use xlink:href="#DejaVuSans-20" x="401.855469"/>
      <use xlink:href="#DejaVuSans-3c3" x="433.642578"/>
      <use xlink:href="#DejaVuSans-3d" x="497.021484"/>
      <use xlink:href="#DejaVuSans-30" x="580.810547"/>
      <use xlink:href="#DejaVuSans-2e" x="644.433594"/>
      <use xlink:href="#DejaVuSans-30" x="676.220703"/>
      <use xlink:href="#DejaVuSans-34" x="739.84375"/>
     </g>
    </g>
   </g>
  </g>
  <g id="axes_3">
   <g id="patch_112">
    <path d="M 380.848125 83.078125 
L 502.022799 83.078125 
L 502.022799 22.318125 
L 380.848125 22.318125 
z
" style="fill: #ffffff"/>
   </g>
   <g id="patch_113">
    <path d="M 37.519882 83.078125 
L 52.926426 83.078125 
L 52.926426 83.066937 
L 37.519882 83.066937 
z
" clip-path="url(#pa27c30e6cd)" style="fill: #1f77b4"/>
   </g>
   <g id="patch_114">
    <path d="M 52.926426 83.078125 
L 68.332969 83.078125 
L 68.332969 83.078125 
L 52.926426 83.078125 
z
" clip-path="url(#pa27c30e6cd)" style="fill: #1f77b4"/>
   </g>
   <g id="patch_115">
    <path d="M 68.332969 83.078125 
L 83.739513 83.078125 
L 83.739513 83.078125 
L 68.332969 83.078125 
z
" clip-path="url(#pa27c30e6cd)" style="fill: #1f77b4"/>
   </g>
   <g id="patch_116">
    <path d="M 83.739513 83.078125 
L 99.146056 83.078125 
L 99.146056 83.078125 
L 83.739513 83.078125 
z
" clip-path="url(#pa27c30e6cd)" style="fill: #1f77b4"/>
   </g>
   <g id="patch_117">
    <path d="M 99.146056 83.078125 
L 114.552599 83.078125 
L 114.552599 83.078125 
L 99.146056 83.078125 
z
" clip-path="url(#pa27c30e6cd)" style="fill: #1f77b4"/>
   </g>
   <g id="patch_118">
    <path d="M 114.552599 83.078125 
L 129.959143 83.078125 
L 129.959143 83.078125 
L 114.552599 83.078125 
z
" clip-path="url(#pa27c30e6cd)" style="fill: #1f77b4"/>
   </g>
   <g id="patch_119">
    <path d="M 129.959143 83.078125 
L 145.365686 83.078125 
L 145.365686 83.078125 
L 129.959143 83.078125 
z
" clip-path="url(#pa27c30e6cd)" style="fill: #1f77b4"/>
   </g>
   <g id="patch_120">
    <path d="M 145.365686 83.078125 
L 160.77223 83.078125 
L 160.77223 83.078125 
L 145.365686 83.078125 
z
" clip-path="url(#pa27c30e6cd)" style="fill: #1f77b4"/>
   </g>
   <g id="patch_121">
    <path d="M 160.77223 83.078125 
L 176.178773 83.078125 
L 176.178773 83.072531 
L 160.77223 83.072531 
z
" clip-path="url(#pa27c30e6cd)" style="fill: #1f77b4"/>
   </g>
   <g id="patch_122">
    <path d="M 176.178773 83.078125 
L 191.585317 83.078125 
L 191.585317 83.078125 
L 176.178773 83.078125 
z
" clip-path="url(#pa27c30e6cd)" style="fill: #1f77b4"/>
   </g>
   <g id="patch_123">
    <path d="M 191.585317 83.078125 
L 206.99186 83.078125 
L 206.99186 83.078125 
L 191.585317 83.078125 
z
" clip-path="url(#pa27c30e6cd)" style="fill: #1f77b4"/>
   </g>
   <g id="patch_124">
    <path d="M 206.99186 83.078125 
L 222.398403 83.078125 
L 222.398403 83.078125 
L 206.99186 83.078125 
z
" clip-path="url(#pa27c30e6cd)" style="fill: #1f77b4"/>
   </g>
   <g id="patch_125">
    <path d="M 222.398403 83.078125 
L 237.804947 83.078125 
L 237.804947 83.078125 
L 222.398403 83.078125 
z
" clip-path="url(#pa27c30e6cd)" style="fill: #1f77b4"/>
   </g>
   <g id="patch_126">
    <path d="M 237.804947 83.078125 
L 253.21149 83.078125 
L 253.21149 83.072531 
L 237.804947 83.072531 
z
" clip-path="url(#pa27c30e6cd)" style="fill: #1f77b4"/>
   </g>
   <g id="patch_127">
    <path d="M 253.21149 83.078125 
L 268.618034 83.078125 
L 268.618034 83.078125 
L 253.21149 83.078125 
z
" clip-path="url(#pa27c30e6cd)" style="fill: #1f77b4"/>
   </g>
   <g id="patch_128">
    <path d="M 268.618034 83.078125 
L 284.024577 83.078125 
L 284.024577 83.078125 
L 268.618034 83.078125 
z
" clip-path="url(#pa27c30e6cd)" style="fill: #1f77b4"/>
   </g>
   <g id="patch_129">
    <path d="M 284.024577 83.078125 
L 299.431121 83.078125 
L 299.431121 83.072531 
L 284.024577 83.072531 
z
" clip-path="url(#pa27c30e6cd)" style="fill: #1f77b4"/>
   </g>
   <g id="patch_130">
    <path d="M 299.431121 83.078125 
L 314.837664 83.078125 
L 314.837664 83.061343 
L 299.431121 83.061343 
z
" clip-path="url(#pa27c30e6cd)" style="fill: #1f77b4"/>
   </g>
   <g id="patch_131">
    <path d="M 314.837664 83.078125 
L 330.244208 83.078125 
L 330.244208 83.072531 
L 314.837664 83.072531 
z
" clip-path="url(#pa27c30e6cd)" style="fill: #1f77b4"/>
   </g>
   <g id="patch_132">
    <path d="M 330.244208 83.078125 
L 345.650751 83.078125 
L 345.650751 83.066937 
L 330.244208 83.066937 
z
" clip-path="url(#pa27c30e6cd)" style="fill: #1f77b4"/>
   </g>
   <g id="patch_133">
    <path d="M 345.650751 83.078125 
L 361.057294 83.078125 
L 361.057294 83.061343 
L 345.650751 83.061343 
z
" clip-path="url(#pa27c30e6cd)" style="fill: #1f77b4"/>
   </g>
   <g id="patch_134">
    <path d="M 361.057294 83.078125 
L 376.463838 83.078125 
L 376.463838 83.033373 
L 361.057294 83.033373 
z
" clip-path="url(#pa27c30e6cd)" style="fill: #1f77b4"/>
   </g>
   <g id="patch_135">
    <path d="M 376.463838 83.078125 
L 391.870381 83.078125 
L 391.870381 83.055749 
L 376.463838 83.055749 
z
" clip-path="url(#pa27c30e6cd)" style="fill: #1f77b4"/>
   </g>
   <g id="patch_136">
    <path d="M 391.870381 83.078125 
L 407.276925 83.078125 
L 407.276925 82.831988 
L 391.870381 82.831988 
z
" clip-path="url(#pa27c30e6cd)" style="fill: #1f77b4"/>
   </g>
   <g id="patch_137">
    <path d="M 407.276925 83.078125 
L 422.683468 83.078125 
L 422.683468 82.496347 
L 407.276925 82.496347 
z
" clip-path="url(#pa27c30e6cd)" style="fill: #1f77b4"/>
   </g>
   <g id="patch_138">
    <path d="M 422.683468 83.078125 
L 438.090012 83.078125 
L 438.090012 79.184686 
L 422.683468 79.184686 
z
" clip-path="url(#pa27c30e6cd)" style="fill: #1f77b4"/>
   </g>
   <g id="patch_139">
    <path d="M 438.090012 83.078125 
L 453.496555 83.078125 
L 453.496555 50.934874 
L 438.090012 50.934874 
z
" clip-path="url(#pa27c30e6cd)" style="fill: #1f77b4"/>
   </g>
   <g id="patch_140">
    <path d="M 453.496555 83.078125 
L 468.903098 83.078125 
L 468.903098 81.293632 
L 453.496555 81.293632 
z
" clip-path="url(#pa27c30e6cd)" style="fill: #1f77b4"/>
   </g>
   <g id="patch_141">
    <path d="M 468.903098 83.078125 
L 484.309642 83.078125 
L 484.309642 82.557881 
L 468.903098 82.557881 
z
" clip-path="url(#pa27c30e6cd)" style="fill: #1f77b4"/>
   </g>
   <g id="patch_142">
    <path d="M 484.309642 83.078125 
L 499.716185 83.078125 
L 499.716185 82.859958 
L 484.309642 82.859958 
z
" clip-path="url(#pa27c30e6cd)" style="fill: #1f77b4"/>
   </g>
   <g id="patch_143">
    <path d="M 499.716185 83.078125 
L 515.122729 83.078125 
L 515.122729 82.983027 
L 499.716185 82.983027 
z
" clip-path="url(#pa27c30e6cd)" style="fill: #1f77b4"/>
   </g>
   <g id="patch_144">
    <path d="M 515.122729 83.078125 
L 530.529272 83.078125 
L 530.529272 83.033373 
L 515.122729 83.033373 
z
" clip-path="url(#pa27c30e6cd)" style="fill: #1f77b4"/>
   </g>
   <g id="patch_145">
    <path d="M 530.529272 83.078125 
L 545.935816 83.078125 
L 545.935816 83.038967 
L 530.529272 83.038967 
z
" clip-path="url(#pa27c30e6cd)" style="fill: #1f77b4"/>
   </g>
   <g id="patch_146">
    <path d="M 545.935816 83.078125 
L 561.342359 83.078125 
L 561.342359 83.038967 
L 545.935816 83.038967 
z
" clip-path="url(#pa27c30e6cd)" style="fill: #1f77b4"/>
   </g>
   <g id="patch_147">
    <path d="M 561.342359 83.078125 
L 576.748903 83.078125 
L 576.748903 83.055749 
L 561.342359 83.055749 
z
" clip-path="url(#pa27c30e6cd)" style="fill: #1f77b4"/>
   </g>
   <g id="patch_148">
    <path d="M 576.748903 83.078125 
L 592.155446 83.078125 
L 592.155446 83.061343 
L 576.748903 83.061343 
z
" clip-path="url(#pa27c30e6cd)" style="fill: #1f77b4"/>
   </g>
   <g id="patch_149">
    <path d="M 592.155446 83.078125 
L 607.561989 83.078125 
L 607.561989 83.072531 
L 592.155446 83.072531 
z
" clip-path="url(#pa27c30e6cd)" style="fill: #1f77b4"/>
   </g>
   <g id="patch_150">
    <path d="M 607.561989 83.078125 
L 622.968533 83.078125 
L 622.968533 83.072531 
L 607.561989 83.072531 
z
" clip-path="url(#pa27c30e6cd)" style="fill: #1f77b4"/>
   </g>
   <g id="patch_151">
    <path d="M 622.968533 83.078125 
L 638.375076 83.078125 
L 638.375076 83.072531 
L 622.968533 83.072531 
z
" clip-path="url(#pa27c30e6cd)" style="fill: #1f77b4"/>
   </g>
   <g id="patch_152">
    <path d="M 638.375076 83.078125 
L 653.78162 83.078125 
L 653.78162 83.066937 
L 638.375076 83.066937 
z
" clip-path="url(#pa27c30e6cd)" style="fill: #1f77b4"/>
   </g>
   <g id="patch_153">
    <path d="M 653.78162 83.078125 
L 669.188163 83.078125 
L 669.188163 83.078125 
L 653.78162 83.078125 
z
" clip-path="url(#pa27c30e6cd)" style="fill: #1f77b4"/>
   </g>
   <g id="patch_154">
    <path d="M 669.188163 83.078125 
L 684.594707 83.078125 
L 684.594707 83.078125 
L 669.188163 83.078125 
z
" clip-path="url(#pa27c30e6cd)" style="fill: #1f77b4"/>
   </g>
   <g id="patch_155">
    <path d="M 684.594707 83.078125 
L 700.00125 83.078125 
L 700.00125 83.078125 
L 684.594707 83.078125 
z
" clip-path="url(#pa27c30e6cd)" style="fill: #1f77b4"/>
   </g>
   <g id="patch_156">
    <path d="M 700.00125 83.078125 
L 715.407793 83.078125 
L 715.407793 83.078125 
L 700.00125 83.078125 
z
" clip-path="url(#pa27c30e6cd)" style="fill: #1f77b4"/>
   </g>
   <g id="patch_157">
    <path d="M 715.407793 83.078125 
L 730.814337 83.078125 
L 730.814337 83.078125 
L 715.407793 83.078125 
z
" clip-path="url(#pa27c30e6cd)" style="fill: #1f77b4"/>
   </g>
   <g id="patch_158">
    <path d="M 730.814337 83.078125 
L 746.22088 83.078125 
L 746.22088 83.078125 
L 730.814337 83.078125 
z
" clip-path="url(#pa27c30e6cd)" style="fill: #1f77b4"/>
   </g>
   <g id="patch_159">
    <path d="M 746.22088 83.078125 
L 761.627424 83.078125 
L 761.627424 83.078125 
L 746.22088 83.078125 
z
" clip-path="url(#pa27c30e6cd)" style="fill: #1f77b4"/>
   </g>
   <g id="patch_160">
    <path d="M 761.627424 83.078125 
L 777.033967 83.078125 
L 777.033967 83.078125 
L 761.627424 83.078125 
z
" clip-path="url(#pa27c30e6cd)" style="fill: #1f77b4"/>
   </g>
   <g id="patch_161">
    <path d="M 777.033967 83.078125 
L 792.440511 83.078125 
L 792.440511 83.078125 
L 777.033967 83.078125 
z
" clip-path="url(#pa27c30e6cd)" style="fill: #1f77b4"/>
   </g>
   <g id="patch_162">
    <path d="M 792.440511 83.078125 
L 807.847054 83.078125 
L 807.847054 83.072531 
L 792.440511 83.072531 
z
" clip-path="url(#pa27c30e6cd)" style="fill: #1f77b4"/>
   </g>
   <g id="matplotlib.axis_5">
    <g id="xtick_7">
     <g id="line2d_17">
      <g>
       <use xlink:href="#m9f8ca5073a" x="401.043904" y="83.078125" style="stroke: #000000; stroke-width: 0.8"/>
      </g>
     </g>
     <g id="text_21">
      <!-- −0.1 -->
      <g transform="translate(388.902498 97.676563) scale(0.1 -0.1)">
       <use xlink:href="#DejaVuSans-2212"/>
       <use xlink:href="#DejaVuSans-30" x="83.789062"/>
       <use xlink:href="#DejaVuSans-2e" x="147.412109"/>
       <use xlink:href="#DejaVuSans-31" x="179.199219"/>
      </g>
     </g>
    </g>
    <g id="xtick_8">
     <g id="line2d_18">
      <g>
       <use xlink:href="#m9f8ca5073a" x="441.435462" y="83.078125" style="stroke: #000000; stroke-width: 0.8"/>
      </g>
     </g>
     <g id="text_22">
      <!-- 0.0 -->
      <g transform="translate(433.483899 97.676563) scale(0.1 -0.1)">
       <use xlink:href="#DejaVuSans-30"/>
       <use xlink:href="#DejaVuSans-2e" x="63.623047"/>
       <use xlink:href="#DejaVuSans-30" x="95.410156"/>
      </g>
     </g>
    </g>
    <g id="xtick_9">
     <g id="line2d_19">
      <g>
       <use xlink:href="#m9f8ca5073a" x="481.82702" y="83.078125" style="stroke: #000000; stroke-width: 0.8"/>
      </g>
     </g>
     <g id="text_23">
      <!-- 0.1 -->
      <g transform="translate(473.875457 97.676563) scale(0.1 -0.1)">
       <use xlink:href="#DejaVuSans-30"/>
       <use xlink:href="#DejaVuSans-2e" x="63.623047"/>
       <use xlink:href="#DejaVuSans-31" x="95.410156"/>
      </g>
     </g>
    </g>
    <g id="text_24">
     <!-- Difference in Distance -->
     <g transform="translate(385.987024 111.354687) scale(0.1 -0.1)">
      <use xlink:href="#DejaVuSans-44"/>
      <use xlink:href="#DejaVuSans-69" x="77.001953"/>
      <use xlink:href="#DejaVuSans-66" x="104.785156"/>
      <use xlink:href="#DejaVuSans-66" x="139.990234"/>
      <use xlink:href="#DejaVuSans-65" x="175.195312"/>
      <use xlink:href="#DejaVuSans-72" x="236.71875"/>
      <use xlink:href="#DejaVuSans-65" x="275.582031"/>
      <use xlink:href="#DejaVuSans-6e" x="337.105469"/>
      <use xlink:href="#DejaVuSans-63" x="400.484375"/>
      <use xlink:href="#DejaVuSans-65" x="455.464844"/>
      <use xlink:href="#DejaVuSans-20" x="516.988281"/>
      <use xlink:href="#DejaVuSans-69" x="548.775391"/>
      <use xlink:href="#DejaVuSans-6e" x="576.558594"/>
      <use xlink:href="#DejaVuSans-20" x="639.9375"/>
      <use xlink:href="#DejaVuSans-44" x="671.724609"/>
      <use xlink:href="#DejaVuSans-69" x="748.726562"/>
      <use xlink:href="#DejaVuSans-73" x="776.509766"/>
      <use xlink:href="#DejaVuSans-74" x="828.609375"/>
      <use xlink:href="#DejaVuSans-61" x="867.818359"/>
      <use xlink:href="#DejaVuSans-6e" x="929.097656"/>
      <use xlink:href="#DejaVuSans-63" x="992.476562"/>
      <use xlink:href="#DejaVuSans-65" x="1047.457031"/>
     </g>
    </g>
   </g>
   <g id="matplotlib.axis_6">
    <g id="ytick_7">
     <g id="line2d_20">
      <g>
       <use xlink:href="#m49bab5ff0e" x="380.848125" y="83.078125" style="stroke: #000000; stroke-width: 0.8"/>
      </g>
     </g>
     <g id="text_25">
      <!-- 0 -->
      <g transform="translate(367.485625 86.877344) scale(0.1 -0.1)">
       <use xlink:href="#DejaVuSans-30"/>
      </g>
     </g>
    </g>
    <g id="ytick_8">
     <g id="line2d_21">
      <g>
       <use xlink:href="#m49bab5ff0e" x="380.848125" y="52.698125" style="stroke: #000000; stroke-width: 0.8"/>
      </g>
     </g>
     <g id="text_26">
      <!-- 20 -->
      <g transform="translate(361.123125 56.497344) scale(0.1 -0.1)">
       <use xlink:href="#DejaVuSans-32"/>
       <use xlink:href="#DejaVuSans-30" x="63.623047"/>
      </g>
     </g>
    </g>
    <g id="ytick_9">
     <g id="line2d_22">
      <g>
       <use xlink:href="#m49bab5ff0e" x="380.848125" y="22.318125" style="stroke: #000000; stroke-width: 0.8"/>
      </g>
     </g>
     <g id="text_27">
      <!-- 40 -->
      <g transform="translate(361.123125 26.117344) scale(0.1 -0.1)">
       <use xlink:href="#DejaVuSans-34"/>
       <use xlink:href="#DejaVuSans-30" x="63.623047"/>
      </g>
     </g>
    </g>
    <g id="text_28">
     <!-- Probability Density -->
     <g transform="translate(355.043437 99.724688) rotate(-90) scale(0.1 -0.1)">
      <use xlink:href="#DejaVuSans-50"/>
      <use xlink:href="#DejaVuSans-72" x="58.552734"/>
      <use xlink:href="#DejaVuSans-6f" x="97.416016"/>
      <use xlink:href="#DejaVuSans-62" x="158.597656"/>
      <use xlink:href="#DejaVuSans-61" x="222.074219"/>
      <use xlink:href="#DejaVuSans-62" x="283.353516"/>
      <use xlink:href="#DejaVuSans-69" x="346.830078"/>
      <use xlink:href="#DejaVuSans-6c" x="374.613281"/>
      <use xlink:href="#DejaVuSans-69" x="402.396484"/>
      <use xlink:href="#DejaVuSans-74" x="430.179688"/>
      <use xlink:href="#DejaVuSans-79" x="469.388672"/>
      <use xlink:href="#DejaVuSans-20" x="528.568359"/>
      <use xlink:href="#DejaVuSans-44" x="560.355469"/>
      <use xlink:href="#DejaVuSans-65" x="637.357422"/>
      <use xlink:href="#DejaVuSans-6e" x="698.880859"/>
      <use xlink:href="#DejaVuSans-73" x="762.259766"/>
      <use xlink:href="#DejaVuSans-69" x="814.359375"/>
      <use xlink:href="#DejaVuSans-74" x="842.142578"/>
      <use xlink:href="#DejaVuSans-79" x="881.351562"/>
     </g>
    </g>
   </g>
   <g id="line2d_23">
    <path d="M -0.996476 83.078125 
L 7.562714 83.078125 
L 16.121905 83.078125 
L 24.681096 83.078125 
L 33.240287 83.078125 
L 41.799478 83.078125 
L 50.358668 83.078125 
L 58.917859 83.078125 
L 67.47705 83.078125 
L 76.036241 83.078125 
L 84.595432 83.078125 
L 93.154622 83.078125 
L 101.713813 83.078125 
L 110.273004 83.078125 
L 118.832195 83.078125 
L 127.391386 83.078125 
L 135.950576 83.078125 
L 144.509767 83.078125 
L 153.068958 83.078125 
L 161.628149 83.078125 
L 170.18734 83.078125 
L 178.74653 83.078125 
L 187.305721 83.078125 
L 195.864912 83.078125 
L 204.424103 83.078125 
L 212.983294 83.078125 
L 221.542484 83.078125 
L 230.101675 83.078125 
L 238.660866 83.078125 
L 247.220057 83.078125 
L 255.779248 83.078125 
L 264.338438 83.078125 
L 272.897629 83.078125 
L 281.45682 83.078125 
L 290.016011 83.078125 
L 298.575202 83.078125 
L 307.134392 83.078125 
L 315.693583 83.078125 
L 324.252774 83.078125 
L 332.811965 83.078125 
L 341.371156 83.078125 
L 349.930346 83.078124 
L 358.489537 83.078101 
L 367.048728 83.077813 
L 375.607919 83.074997 
L 384.16711 83.054325 
L 392.7263 82.940853 
L 401.285491 82.478045 
L 409.844682 81.089895 
L 418.403873 78.08522 
L 426.963064 73.574936 
L 435.522254 69.368839 
L 444.081445 68.088537 
L 452.640636 70.656057 
L 461.199827 75.275738 
L 469.759018 79.36371 
L 478.318208 81.737884 
L 486.877399 82.711599 
L 495.43659 83.002153 
L 503.995781 83.06619 
L 512.554972 83.076704 
L 521.114162 83.077997 
L 529.673353 83.078116 
L 538.232544 83.078125 
L 546.791735 83.078125 
L 555.350926 83.078125 
L 563.910116 83.078125 
L 572.469307 83.078125 
L 581.028498 83.078125 
L 589.587689 83.078125 
L 598.14688 83.078125 
L 606.70607 83.078125 
L 615.265261 83.078125 
L 623.824452 83.078125 
L 632.383643 83.078125 
L 640.942833 83.078125 
L 649.502024 83.078125 
L 658.061215 83.078125 
L 666.620406 83.078125 
L 675.179597 83.078125 
L 680.5175 83.078125 
" clip-path="url(#pa27c30e6cd)" style="fill: none; stroke: #000000; stroke-width: 2; stroke-linecap: square"/>
   </g>
   <g id="patch_163">
    <path d="M 380.848125 83.078125 
L 380.848125 22.318125 
" style="fill: none; stroke: #000000; stroke-width: 0.8; stroke-linejoin: miter; stroke-linecap: square"/>
   </g>
   <g id="patch_164">
    <path d="M 502.022799 83.078125 
L 502.022799 22.318125 
" style="fill: none; stroke: #000000; stroke-width: 0.8; stroke-linejoin: miter; stroke-linecap: square"/>
   </g>
   <g id="patch_165">
    <path d="M 380.848125 83.078125 
L 502.022799 83.078125 
" style="fill: none; stroke: #000000; stroke-width: 0.8; stroke-linejoin: miter; stroke-linecap: square"/>
   </g>
   <g id="patch_166">
    <path d="M 380.848125 22.318125 
L 502.022799 22.318125 
" style="fill: none; stroke: #000000; stroke-width: 0.8; stroke-linejoin: miter; stroke-linecap: square"/>
   </g>
   <g id="text_29">
    <!-- Images -->
    <g transform="translate(419.517649 16.318125) scale(0.12 -0.12)">
     <use xlink:href="#DejaVuSans-49"/>
     <use xlink:href="#DejaVuSans-6d" x="29.492188"/>
     <use xlink:href="#DejaVuSans-61" x="126.904297"/>
     <use xlink:href="#DejaVuSans-67" x="188.183594"/>
     <use xlink:href="#DejaVuSans-65" x="251.660156"/>
     <use xlink:href="#DejaVuSans-73" x="313.183594"/>
    </g>
   </g>
   <g id="legend_3">
    <g id="line2d_24">
     <path d="M 389.848125 35.416563 
L 399.848125 35.416563 
L 409.848125 35.416563 
" style="fill: none; stroke: #000000; stroke-width: 2; stroke-linecap: square"/>
    </g>
    <g id="text_30">
     <!-- μ=0.00, σ=0.04 -->
     <g transform="translate(417.848125 38.916563) scale(0.1 -0.1)">
      <use xlink:href="#DejaVuSans-3bc"/>
      <use xlink:href="#DejaVuSans-3d" x="63.623047"/>
      <use xlink:href="#DejaVuSans-30" x="147.412109"/>
      <use xlink:href="#DejaVuSans-2e" x="211.035156"/>
      <use xlink:href="#DejaVuSans-30" x="242.822266"/>
      <use xlink:href="#DejaVuSans-30" x="306.445312"/>
      <use xlink:href="#DejaVuSans-2c" x="370.068359"/>
      <use xlink:href="#DejaVuSans-20" x="401.855469"/>
      <use xlink:href="#DejaVuSans-3c3" x="433.642578"/>
      <use xlink:href="#DejaVuSans-3d" x="497.021484"/>
      <use xlink:href="#DejaVuSans-30" x="580.810547"/>
      <use xlink:href="#DejaVuSans-2e" x="644.433594"/>
      <use xlink:href="#DejaVuSans-30" x="676.220703"/>
      <use xlink:href="#DejaVuSans-34" x="739.84375"/>
     </g>
    </g>
   </g>
  </g>
  <g id="axes_4">
   <g id="patch_167">
    <path d="M 550.970625 83.078125 
L 672.145299 83.078125 
L 672.145299 22.318125 
L 550.970625 22.318125 
z
" style="fill: #ffffff"/>
   </g>
   <g id="patch_168">
    <path d="M 235.987335 83.078125 
L 250.752742 83.078125 
L 250.752742 83.072288 
L 235.987335 83.072288 
z
" clip-path="url(#p24bc22e21f)" style="fill: #1f77b4"/>
   </g>
   <g id="patch_169">
    <path d="M 250.752742 83.078125 
L 265.518148 83.078125 
L 265.518148 83.078125 
L 250.752742 83.078125 
z
" clip-path="url(#p24bc22e21f)" style="fill: #1f77b4"/>
   </g>
   <g id="patch_170">
    <path d="M 265.518148 83.078125 
L 280.283555 83.078125 
L 280.283555 83.078125 
L 265.518148 83.078125 
z
" clip-path="url(#p24bc22e21f)" style="fill: #1f77b4"/>
   </g>
   <g id="patch_171">
    <path d="M 280.283555 83.078125 
L 295.048962 83.078125 
L 295.048962 83.078125 
L 280.283555 83.078125 
z
" clip-path="url(#p24bc22e21f)" style="fill: #1f77b4"/>
   </g>
   <g id="patch_172">
    <path d="M 295.048962 83.078125 
L 309.814368 83.078125 
L 309.814368 83.078125 
L 295.048962 83.078125 
z
" clip-path="url(#p24bc22e21f)" style="fill: #1f77b4"/>
   </g>
   <g id="patch_173">
    <path d="M 309.814368 83.078125 
L 324.579775 83.078125 
L 324.579775 83.078125 
L 309.814368 83.078125 
z
" clip-path="url(#p24bc22e21f)" style="fill: #1f77b4"/>
   </g>
   <g id="patch_174">
    <path d="M 324.579775 83.078125 
L 339.345182 83.078125 
L 339.345182 83.078125 
L 324.579775 83.078125 
z
" clip-path="url(#p24bc22e21f)" style="fill: #1f77b4"/>
   </g>
   <g id="patch_175">
    <path d="M 339.345182 83.078125 
L 354.110588 83.078125 
L 354.110588 83.078125 
L 339.345182 83.078125 
z
" clip-path="url(#p24bc22e21f)" style="fill: #1f77b4"/>
   </g>
   <g id="patch_176">
    <path d="M 354.110588 83.078125 
L 368.875995 83.078125 
L 368.875995 83.078125 
L 354.110588 83.078125 
z
" clip-path="url(#p24bc22e21f)" style="fill: #1f77b4"/>
   </g>
   <g id="patch_177">
    <path d="M 368.875995 83.078125 
L 383.641401 83.078125 
L 383.641401 83.078125 
L 368.875995 83.078125 
z
" clip-path="url(#p24bc22e21f)" style="fill: #1f77b4"/>
   </g>
   <g id="patch_178">
    <path d="M 383.641401 83.078125 
L 398.406808 83.078125 
L 398.406808 83.078125 
L 383.641401 83.078125 
z
" clip-path="url(#p24bc22e21f)" style="fill: #1f77b4"/>
   </g>
   <g id="patch_179">
    <path d="M 398.406808 83.078125 
L 413.172215 83.078125 
L 413.172215 83.078125 
L 398.406808 83.078125 
z
" clip-path="url(#p24bc22e21f)" style="fill: #1f77b4"/>
   </g>
   <g id="patch_180">
    <path d="M 413.172215 83.078125 
L 427.937621 83.078125 
L 427.937621 83.072288 
L 413.172215 83.072288 
z
" clip-path="url(#p24bc22e21f)" style="fill: #1f77b4"/>
   </g>
   <g id="patch_181">
    <path d="M 427.937621 83.078125 
L 442.703028 83.078125 
L 442.703028 83.078125 
L 427.937621 83.078125 
z
" clip-path="url(#p24bc22e21f)" style="fill: #1f77b4"/>
   </g>
   <g id="patch_182">
    <path d="M 442.703028 83.078125 
L 457.468435 83.078125 
L 457.468435 83.078125 
L 442.703028 83.078125 
z
" clip-path="url(#p24bc22e21f)" style="fill: #1f77b4"/>
   </g>
   <g id="patch_183">
    <path d="M 457.468435 83.078125 
L 472.233841 83.078125 
L 472.233841 83.072288 
L 457.468435 83.072288 
z
" clip-path="url(#p24bc22e21f)" style="fill: #1f77b4"/>
   </g>
   <g id="patch_184">
    <path d="M 472.233841 83.078125 
L 486.999248 83.078125 
L 486.999248 83.066451 
L 472.233841 83.066451 
z
" clip-path="url(#p24bc22e21f)" style="fill: #1f77b4"/>
   </g>
   <g id="patch_185">
    <path d="M 486.999248 83.078125 
L 501.764654 83.078125 
L 501.764654 83.078125 
L 486.999248 83.078125 
z
" clip-path="url(#p24bc22e21f)" style="fill: #1f77b4"/>
   </g>
   <g id="patch_186">
    <path d="M 501.764654 83.078125 
L 516.530061 83.078125 
L 516.530061 83.072288 
L 501.764654 83.072288 
z
" clip-path="url(#p24bc22e21f)" style="fill: #1f77b4"/>
   </g>
   <g id="patch_187">
    <path d="M 516.530061 83.078125 
L 531.295468 83.078125 
L 531.295468 83.066451 
L 516.530061 83.066451 
z
" clip-path="url(#p24bc22e21f)" style="fill: #1f77b4"/>
   </g>
   <g id="patch_188">
    <path d="M 531.295468 83.078125 
L 546.060874 83.078125 
L 546.060874 83.043103 
L 531.295468 83.043103 
z
" clip-path="url(#p24bc22e21f)" style="fill: #1f77b4"/>
   </g>
   <g id="patch_189">
    <path d="M 546.060874 83.078125 
L 560.826281 83.078125 
L 560.826281 83.008082 
L 546.060874 83.008082 
z
" clip-path="url(#p24bc22e21f)" style="fill: #1f77b4"/>
   </g>
   <g id="patch_190">
    <path d="M 560.826281 83.078125 
L 575.591687 83.078125 
L 575.591687 82.996408 
L 560.826281 82.996408 
z
" clip-path="url(#p24bc22e21f)" style="fill: #1f77b4"/>
   </g>
   <g id="patch_191">
    <path d="M 575.591687 83.078125 
L 590.357094 83.078125 
L 590.357094 82.716236 
L 575.591687 82.716236 
z
" clip-path="url(#p24bc22e21f)" style="fill: #1f77b4"/>
   </g>
   <g id="patch_192">
    <path d="M 590.357094 83.078125 
L 605.122501 83.078125 
L 605.122501 81.13443 
L 590.357094 81.13443 
z
" clip-path="url(#p24bc22e21f)" style="fill: #1f77b4"/>
   </g>
   <g id="patch_193">
    <path d="M 605.122501 83.078125 
L 619.887907 83.078125 
L 619.887907 47.204395 
L 605.122501 47.204395 
z
" clip-path="url(#p24bc22e21f)" style="fill: #1f77b4"/>
   </g>
   <g id="patch_194">
    <path d="M 619.887907 83.078125 
L 634.653314 83.078125 
L 634.653314 80.825073 
L 619.887907 80.825073 
z
" clip-path="url(#p24bc22e21f)" style="fill: #1f77b4"/>
   </g>
   <g id="patch_195">
    <path d="M 634.653314 83.078125 
L 649.418721 83.078125 
L 649.418721 82.605334 
L 634.653314 82.605334 
z
" clip-path="url(#p24bc22e21f)" style="fill: #1f77b4"/>
   </g>
   <g id="patch_196">
    <path d="M 649.418721 83.078125 
L 664.184127 83.078125 
L 664.184127 82.908854 
L 649.418721 82.908854 
z
" clip-path="url(#p24bc22e21f)" style="fill: #1f77b4"/>
   </g>
   <g id="patch_197">
    <path d="M 664.184127 83.078125 
L 678.949534 83.078125 
L 678.949534 82.978897 
L 664.184127 82.978897 
z
" clip-path="url(#p24bc22e21f)" style="fill: #1f77b4"/>
   </g>
   <g id="patch_198">
    <path d="M 678.949534 83.078125 
L 693.71494 83.078125 
L 693.71494 83.043103 
L 678.949534 83.043103 
z
" clip-path="url(#p24bc22e21f)" style="fill: #1f77b4"/>
   </g>
   <g id="patch_199">
    <path d="M 693.71494 83.078125 
L 708.480347 83.078125 
L 708.480347 83.04894 
L 693.71494 83.04894 
z
" clip-path="url(#p24bc22e21f)" style="fill: #1f77b4"/>
   </g>
   <g id="patch_200">
    <path d="M 708.480347 83.078125 
L 723.245754 83.078125 
L 723.245754 83.072288 
L 708.480347 83.072288 
z
" clip-path="url(#p24bc22e21f)" style="fill: #1f77b4"/>
   </g>
   <g id="patch_201">
    <path d="M 723.245754 83.078125 
L 738.01116 83.078125 
L 738.01116 83.066451 
L 723.245754 83.066451 
z
" clip-path="url(#p24bc22e21f)" style="fill: #1f77b4"/>
   </g>
   <g id="patch_202">
    <path d="M 738.01116 83.078125 
L 752.776567 83.078125 
L 752.776567 83.078125 
L 738.01116 83.078125 
z
" clip-path="url(#p24bc22e21f)" style="fill: #1f77b4"/>
   </g>
   <g id="patch_203">
    <path d="M 752.776567 83.078125 
L 767.541974 83.078125 
L 767.541974 83.072288 
L 752.776567 83.072288 
z
" clip-path="url(#p24bc22e21f)" style="fill: #1f77b4"/>
   </g>
   <g id="patch_204">
    <path d="M 767.541974 83.078125 
L 782.30738 83.078125 
L 782.30738 83.078125 
L 767.541974 83.078125 
z
" clip-path="url(#p24bc22e21f)" style="fill: #1f77b4"/>
   </g>
   <g id="patch_205">
    <path d="M 782.30738 83.078125 
L 797.072787 83.078125 
L 797.072787 83.054777 
L 782.30738 83.054777 
z
" clip-path="url(#p24bc22e21f)" style="fill: #1f77b4"/>
   </g>
   <g id="patch_206">
    <path d="M 797.072787 83.078125 
L 811.838193 83.078125 
L 811.838193 83.078125 
L 797.072787 83.078125 
z
" clip-path="url(#p24bc22e21f)" style="fill: #1f77b4"/>
   </g>
   <g id="patch_207">
    <path d="M 811.838193 83.078125 
L 826.6036 83.078125 
L 826.6036 83.066451 
L 811.838193 83.066451 
z
" clip-path="url(#p24bc22e21f)" style="fill: #1f77b4"/>
   </g>
   <g id="patch_208">
    <path d="M 826.6036 83.078125 
L 841.369007 83.078125 
L 841.369007 83.078125 
L 826.6036 83.078125 
z
" clip-path="url(#p24bc22e21f)" style="fill: #1f77b4"/>
   </g>
   <g id="patch_209">
    <path d="M 841.369007 83.078125 
L 856.134413 83.078125 
L 856.134413 83.072288 
L 841.369007 83.072288 
z
" clip-path="url(#p24bc22e21f)" style="fill: #1f77b4"/>
   </g>
   <g id="patch_210">
    <path d="M 856.134413 83.078125 
L 870.89982 83.078125 
L 870.89982 83.078125 
L 856.134413 83.078125 
z
" clip-path="url(#p24bc22e21f)" style="fill: #1f77b4"/>
   </g>
   <g id="patch_211">
    <path d="M 870.89982 83.078125 
L 885.665226 83.078125 
L 885.665226 83.078125 
L 870.89982 83.078125 
z
" clip-path="url(#p24bc22e21f)" style="fill: #1f77b4"/>
   </g>
   <g id="patch_212">
    <path d="M 885.665226 83.078125 
L 900.430633 83.078125 
L 900.430633 83.078125 
L 885.665226 83.078125 
z
" clip-path="url(#p24bc22e21f)" style="fill: #1f77b4"/>
   </g>
   <g id="patch_213">
    <path d="M 900.430633 83.078125 
L 915.19604 83.078125 
L 915.19604 83.072288 
L 900.430633 83.072288 
z
" clip-path="url(#p24bc22e21f)" style="fill: #1f77b4"/>
   </g>
   <g id="patch_214">
    <path d="M 915.19604 83.078125 
L 929.961446 83.078125 
L 929.961446 83.072288 
L 915.19604 83.072288 
z
" clip-path="url(#p24bc22e21f)" style="fill: #1f77b4"/>
   </g>
   <g id="patch_215">
    <path d="M 929.961446 83.078125 
L 944.726853 83.078125 
L 944.726853 83.078125 
L 929.961446 83.078125 
z
" clip-path="url(#p24bc22e21f)" style="fill: #1f77b4"/>
   </g>
   <g id="patch_216">
    <path d="M 944.726853 83.078125 
L 959.49226 83.078125 
L 959.49226 83.078125 
L 944.726853 83.078125 
z
" clip-path="url(#p24bc22e21f)" style="fill: #1f77b4"/>
   </g>
   <g id="patch_217">
    <path d="M 959.49226 83.078125 
L 974.257666 83.078125 
L 974.257666 83.072288 
L 959.49226 83.072288 
z
" clip-path="url(#p24bc22e21f)" style="fill: #1f77b4"/>
   </g>
   <g id="matplotlib.axis_7">
    <g id="xtick_10">
     <g id="line2d_25">
      <g>
       <use xlink:href="#m9f8ca5073a" x="571.166404" y="83.078125" style="stroke: #000000; stroke-width: 0.8"/>
      </g>
     </g>
     <g id="text_31">
      <!-- −0.1 -->
      <g transform="translate(559.024998 97.676563) scale(0.1 -0.1)">
       <use xlink:href="#DejaVuSans-2212"/>
       <use xlink:href="#DejaVuSans-30" x="83.789062"/>
       <use xlink:href="#DejaVuSans-2e" x="147.412109"/>
       <use xlink:href="#DejaVuSans-31" x="179.199219"/>
      </g>
     </g>
    </g>
    <g id="xtick_11">
     <g id="line2d_26">
      <g>
       <use xlink:href="#m9f8ca5073a" x="611.557962" y="83.078125" style="stroke: #000000; stroke-width: 0.8"/>
      </g>
     </g>
     <g id="text_32">
      <!-- 0.0 -->
      <g transform="translate(603.606399 97.676563) scale(0.1 -0.1)">
       <use xlink:href="#DejaVuSans-30"/>
       <use xlink:href="#DejaVuSans-2e" x="63.623047"/>
       <use xlink:href="#DejaVuSans-30" x="95.410156"/>
      </g>
     </g>
    </g>
    <g id="xtick_12">
     <g id="line2d_27">
      <g>
       <use xlink:href="#m9f8ca5073a" x="651.94952" y="83.078125" style="stroke: #000000; stroke-width: 0.8"/>
      </g>
     </g>
     <g id="text_33">
      <!-- 0.1 -->
      <g transform="translate(643.997957 97.676563) scale(0.1 -0.1)">
       <use xlink:href="#DejaVuSans-30"/>
       <use xlink:href="#DejaVuSans-2e" x="63.623047"/>
       <use xlink:href="#DejaVuSans-31" x="95.410156"/>
      </g>
     </g>
    </g>
    <g id="text_34">
     <!-- Difference in Distance -->
     <g transform="translate(556.109524 111.354687) scale(0.1 -0.1)">
      <use xlink:href="#DejaVuSans-44"/>
      <use xlink:href="#DejaVuSans-69" x="77.001953"/>
      <use xlink:href="#DejaVuSans-66" x="104.785156"/>
      <use xlink:href="#DejaVuSans-66" x="139.990234"/>
      <use xlink:href="#DejaVuSans-65" x="175.195312"/>
      <use xlink:href="#DejaVuSans-72" x="236.71875"/>
      <use xlink:href="#DejaVuSans-65" x="275.582031"/>
      <use xlink:href="#DejaVuSans-6e" x="337.105469"/>
      <use xlink:href="#DejaVuSans-63" x="400.484375"/>
      <use xlink:href="#DejaVuSans-65" x="455.464844"/>
      <use xlink:href="#DejaVuSans-20" x="516.988281"/>
      <use xlink:href="#DejaVuSans-69" x="548.775391"/>
      <use xlink:href="#DejaVuSans-6e" x="576.558594"/>
      <use xlink:href="#DejaVuSans-20" x="639.9375"/>
      <use xlink:href="#DejaVuSans-44" x="671.724609"/>
      <use xlink:href="#DejaVuSans-69" x="748.726562"/>
      <use xlink:href="#DejaVuSans-73" x="776.509766"/>
      <use xlink:href="#DejaVuSans-74" x="828.609375"/>
      <use xlink:href="#DejaVuSans-61" x="867.818359"/>
      <use xlink:href="#DejaVuSans-6e" x="929.097656"/>
      <use xlink:href="#DejaVuSans-63" x="992.476562"/>
      <use xlink:href="#DejaVuSans-65" x="1047.457031"/>
     </g>
    </g>
   </g>
   <g id="matplotlib.axis_8">
    <g id="ytick_10">
     <g id="line2d_28">
      <g>
       <use xlink:href="#m49bab5ff0e" x="550.970625" y="83.078125" style="stroke: #000000; stroke-width: 0.8"/>
      </g>
     </g>
     <g id="text_35">
      <!-- 0 -->
      <g transform="translate(537.608125 86.877344) scale(0.1 -0.1)">
       <use xlink:href="#DejaVuSans-30"/>
      </g>
     </g>
    </g>
    <g id="ytick_11">
     <g id="line2d_29">
      <g>
       <use xlink:href="#m49bab5ff0e" x="550.970625" y="52.698125" style="stroke: #000000; stroke-width: 0.8"/>
      </g>
     </g>
     <g id="text_36">
      <!-- 20 -->
      <g transform="translate(531.245625 56.497344) scale(0.1 -0.1)">
       <use xlink:href="#DejaVuSans-32"/>
       <use xlink:href="#DejaVuSans-30" x="63.623047"/>
      </g>
     </g>
    </g>
    <g id="ytick_12">
     <g id="line2d_30">
      <g>
       <use xlink:href="#m49bab5ff0e" x="550.970625" y="22.318125" style="stroke: #000000; stroke-width: 0.8"/>
      </g>
     </g>
     <g id="text_37">
      <!-- 40 -->
      <g transform="translate(531.245625 26.117344) scale(0.1 -0.1)">
       <use xlink:href="#DejaVuSans-34"/>
       <use xlink:href="#DejaVuSans-30" x="63.623047"/>
      </g>
     </g>
    </g>
    <g id="text_38">
     <!-- Probability Density -->
     <g transform="translate(525.165938 99.724688) rotate(-90) scale(0.1 -0.1)">
      <use xlink:href="#DejaVuSans-50"/>
      <use xlink:href="#DejaVuSans-72" x="58.552734"/>
      <use xlink:href="#DejaVuSans-6f" x="97.416016"/>
      <use xlink:href="#DejaVuSans-62" x="158.597656"/>
      <use xlink:href="#DejaVuSans-61" x="222.074219"/>
      <use xlink:href="#DejaVuSans-62" x="283.353516"/>
      <use xlink:href="#DejaVuSans-69" x="346.830078"/>
      <use xlink:href="#DejaVuSans-6c" x="374.613281"/>
      <use xlink:href="#DejaVuSans-69" x="402.396484"/>
      <use xlink:href="#DejaVuSans-74" x="430.179688"/>
      <use xlink:href="#DejaVuSans-79" x="469.388672"/>
      <use xlink:href="#DejaVuSans-20" x="528.568359"/>
      <use xlink:href="#DejaVuSans-44" x="560.355469"/>
      <use xlink:href="#DejaVuSans-65" x="637.357422"/>
      <use xlink:href="#DejaVuSans-6e" x="698.880859"/>
      <use xlink:href="#DejaVuSans-73" x="762.259766"/>
      <use xlink:href="#DejaVuSans-69" x="814.359375"/>
      <use xlink:href="#DejaVuSans-74" x="842.142578"/>
      <use xlink:href="#DejaVuSans-79" x="881.351562"/>
     </g>
    </g>
   </g>
   <g id="line2d_31">
    <path d="M 199.073819 83.078125 
L 207.276822 83.078125 
L 215.479826 83.078125 
L 223.68283 83.078125 
L 231.885833 83.078125 
L 240.088837 83.078125 
L 248.291841 83.078125 
L 256.494844 83.078125 
L 264.697848 83.078125 
L 272.900852 83.078125 
L 281.103855 83.078125 
L 289.306859 83.078125 
L 297.509863 83.078125 
L 305.712866 83.078125 
L 313.91587 83.078125 
L 322.118874 83.078125 
L 330.321878 83.078125 
L 338.524881 83.078125 
L 346.727885 83.078125 
L 354.930889 83.078125 
L 363.133892 83.078125 
L 371.336896 83.078125 
L 379.5399 83.078125 
L 387.742903 83.078125 
L 395.945907 83.078125 
L 404.148911 83.078125 
L 412.351914 83.078125 
L 420.554918 83.078125 
L 428.757922 83.078125 
L 436.960925 83.078125 
L 445.163929 83.078125 
L 453.366933 83.078125 
L 461.569936 83.078125 
L 469.77294 83.078125 
L 477.975944 83.078125 
L 486.178947 83.078125 
L 494.381951 83.078125 
L 502.584955 83.078125 
L 510.787958 83.078125 
L 518.990962 83.078125 
L 527.193966 83.078125 
L 535.396969 83.078118 
L 543.599973 83.077985 
L 551.802977 83.076211 
L 560.00598 83.059256 
L 568.208984 82.94451 
L 576.411988 82.398407 
L 584.614992 80.594006 
L 592.817995 76.55604 
L 601.020999 70.776267 
L 609.224003 66.408527 
L 617.427006 66.850696 
L 625.63001 71.729467 
L 633.833014 77.376358 
L 642.036017 81.020129 
L 650.239021 82.544483 
L 658.442025 82.978716 
L 666.645028 83.064821 
L 674.848032 83.076846 
L 680.5175 83.077669 
" clip-path="url(#p24bc22e21f)" style="fill: none; stroke: #000000; stroke-width: 2; stroke-linecap: square"/>
   </g>
   <g id="patch_218">
    <path d="M 550.970625 83.078125 
L 550.970625 22.318125 
" style="fill: none; stroke: #000000; stroke-width: 0.8; stroke-linejoin: miter; stroke-linecap: square"/>
   </g>
   <g id="patch_219">
    <path d="M 672.145299 83.078125 
L 672.145299 22.318125 
" style="fill: none; stroke: #000000; stroke-width: 0.8; stroke-linejoin: miter; stroke-linecap: square"/>
   </g>
   <g id="patch_220">
    <path d="M 550.970625 83.078125 
L 672.145299 83.078125 
" style="fill: none; stroke: #000000; stroke-width: 0.8; stroke-linejoin: miter; stroke-linecap: square"/>
   </g>
   <g id="patch_221">
    <path d="M 550.970625 22.318125 
L 672.145299 22.318125 
" style="fill: none; stroke: #000000; stroke-width: 0.8; stroke-linejoin: miter; stroke-linecap: square"/>
   </g>
   <g id="text_39">
    <!-- Links -->
    <g transform="translate(596.145462 16.318125) scale(0.12 -0.12)">
     <defs>
      <path id="DejaVuSans-4c" d="M 628 4666 
L 1259 4666 
L 1259 531 
L 3531 531 
L 3531 0 
L 628 0 
L 628 4666 
z
" transform="scale(0.015625)"/>
      <path id="DejaVuSans-6b" d="M 581 4863 
L 1159 4863 
L 1159 1991 
L 2875 3500 
L 3609 3500 
L 1753 1863 
L 3688 0 
L 2938 0 
L 1159 1709 
L 1159 0 
L 581 0 
L 581 4863 
z
" transform="scale(0.015625)"/>
     </defs>
     <use xlink:href="#DejaVuSans-4c"/>
     <use xlink:href="#DejaVuSans-69" x="55.712891"/>
     <use xlink:href="#DejaVuSans-6e" x="83.496094"/>
     <use xlink:href="#DejaVuSans-6b" x="146.875"/>
     <use xlink:href="#DejaVuSans-73" x="204.785156"/>
    </g>
   </g>
   <g id="legend_4">
    <g id="line2d_32">
     <path d="M 559.970625 35.416563 
L 569.970625 35.416563 
L 579.970625 35.416563 
" style="fill: none; stroke: #000000; stroke-width: 2; stroke-linecap: square"/>
    </g>
    <g id="text_40">
     <!-- μ=0.00, σ=0.04 -->
     <g transform="translate(587.970625 38.916563) scale(0.1 -0.1)">
      <use xlink:href="#DejaVuSans-3bc"/>
      <use xlink:href="#DejaVuSans-3d" x="63.623047"/>
      <use xlink:href="#DejaVuSans-30" x="147.412109"/>
      <use xlink:href="#DejaVuSans-2e" x="211.035156"/>
      <use xlink:href="#DejaVuSans-30" x="242.822266"/>
      <use xlink:href="#DejaVuSans-30" x="306.445312"/>
      <use xlink:href="#DejaVuSans-2c" x="370.068359"/>
      <use xlink:href="#DejaVuSans-20" x="401.855469"/>
      <use xlink:href="#DejaVuSans-3c3" x="433.642578"/>
      <use xlink:href="#DejaVuSans-3d" x="497.021484"/>
      <use xlink:href="#DejaVuSans-30" x="580.810547"/>
      <use xlink:href="#DejaVuSans-2e" x="644.433594"/>
      <use xlink:href="#DejaVuSans-30" x="676.220703"/>
      <use xlink:href="#DejaVuSans-34" x="739.84375"/>
     </g>
    </g>
   </g>
  </g>
 </g>
 <defs>
  <clipPath id="p0a845fec93">
   <rect x="40.603125" y="22.318125" width="121.174674" height="60.76"/>
  </clipPath>
  <clipPath id="p85f7939859">
   <rect x="210.725625" y="22.318125" width="121.174674" height="60.76"/>
  </clipPath>
  <clipPath id="pa27c30e6cd">
   <rect x="380.848125" y="22.318125" width="121.174674" height="60.76"/>
  </clipPath>
  <clipPath id="p24bc22e21f">
   <rect x="550.970625" y="22.318125" width="121.174674" height="60.76"/>
  </clipPath>
 </defs>
</svg>
