<?xml version="1.0" encoding="utf-8" standalone="no"?>
<!DOCTYPE svg PUBLIC "-//W3C//DTD SVG 1.1//EN"
  "http://www.w3.org/Graphics/SVG/1.1/DTD/svg11.dtd">
<svg xmlns:xlink="http://www.w3.org/1999/xlink" width="352.623437pt" height="351.549375pt" viewBox="0 0 352.623437 351.549375" xmlns="http://www.w3.org/2000/svg" version="1.1">
 <metadata>
  <rdf:RDF xmlns:dc="http://purl.org/dc/elements/1.1/" xmlns:cc="http://creativecommons.org/ns#" xmlns:rdf="http://www.w3.org/1999/02/22-rdf-syntax-ns#">
   <cc:Work>
    <dc:type rdf:resource="http://purl.org/dc/dcmitype/StillImage"/>
    <dc:date>2024-08-28T21:08:16.859339</dc:date>
    <dc:format>image/svg+xml</dc:format>
    <dc:creator>
     <cc:Agent>
      <dc:title>Matplotlib v3.8.4, https://matplotlib.org/</dc:title>
     </cc:Agent>
    </dc:creator>
   </cc:Work>
  </rdf:RDF>
 </metadata>
 <defs>
  <style type="text/css">*{stroke-linejoin: round; stroke-linecap: butt}</style>
 </defs>
 <g id="figure_1">
  <g id="patch_1">
   <path d="M 0 351.549375 
L 352.623438 351.549375 
L 352.623438 0 
L 0 0 
z
" style="fill: #ffffff"/>
  </g>
  <g id="axes_1">
   <g id="patch_2">
    <path d="M 58.523438 201.968125 
L 345.423437 201.968125 
L 345.423437 22.318125 
L 58.523438 22.318125 
z
" style="fill: #ffffff"/>
   </g>
   <g id="patch_3">
    <path d="M 71.564347 122.619795 
L 84.77033 122.619795 
L 84.77033 111.419191 
L 71.564347 111.419191 
z
" clip-path="url(#pd9fb5e2226)" style="fill: #1f77b4"/>
   </g>
   <g id="patch_4">
    <path d="M 88.071826 122.619795 
L 101.27781 122.619795 
L 101.27781 112.143125 
L 88.071826 112.143125 
z
" clip-path="url(#pd9fb5e2226)" style="fill: #1f77b4"/>
   </g>
   <g id="patch_5">
    <path d="M 104.579306 122.619795 
L 117.78529 122.619795 
L 117.78529 113.756577 
L 104.579306 113.756577 
z
" clip-path="url(#pd9fb5e2226)" style="fill: #1f77b4"/>
   </g>
   <g id="patch_6">
    <path d="M 121.086786 122.619795 
L 134.29277 122.619795 
L 134.29277 115.706594 
L 121.086786 115.706594 
z
" clip-path="url(#pd9fb5e2226)" style="fill: #1f77b4"/>
   </g>
   <g id="patch_7">
    <path d="M 137.594266 122.619795 
L 150.80025 122.619795 
L 150.80025 116.152366 
L 137.594266 116.152366 
z
" clip-path="url(#pd9fb5e2226)" style="fill: #1f77b4"/>
   </g>
   <g id="patch_8">
    <path d="M 154.101746 122.619795 
L 167.30773 122.619795 
L 167.30773 117.516562 
L 154.101746 117.516562 
z
" clip-path="url(#pd9fb5e2226)" style="fill: #1f77b4"/>
   </g>
   <g id="patch_9">
    <path d="M 170.609226 122.619795 
L 183.81521 122.619795 
L 183.81521 117.577941 
L 170.609226 117.577941 
z
" clip-path="url(#pd9fb5e2226)" style="fill: #1f77b4"/>
   </g>
   <g id="patch_10">
    <path d="M 187.116706 122.619795 
L 200.32269 122.619795 
L 200.32269 118.109705 
L 187.116706 118.109705 
z
" clip-path="url(#pd9fb5e2226)" style="fill: #1f77b4"/>
   </g>
   <g id="patch_11">
    <path d="M 203.624185 122.619795 
L 216.830169 122.619795 
L 216.830169 118.225367 
L 203.624185 118.225367 
z
" clip-path="url(#pd9fb5e2226)" style="fill: #1f77b4"/>
   </g>
   <g id="patch_12">
    <path d="M 220.131665 122.619795 
L 233.337649 122.619795 
L 233.337649 118.437957 
L 220.131665 118.437957 
z
" clip-path="url(#pd9fb5e2226)" style="fill: #1f77b4"/>
   </g>
   <g id="patch_13">
    <path d="M 236.639145 122.619795 
L 249.845129 122.619795 
L 249.845129 119.793973 
L 236.639145 119.793973 
z
" clip-path="url(#pd9fb5e2226)" style="fill: #1f77b4"/>
   </g>
   <g id="patch_14">
    <path d="M 253.146625 122.619795 
L 266.352609 122.619795 
L 266.352609 121.07605 
L 253.146625 121.07605 
z
" clip-path="url(#pd9fb5e2226)" style="fill: #1f77b4"/>
   </g>
   <g id="patch_15">
    <path d="M 269.654105 122.619795 
L 282.860089 122.619795 
L 282.860089 121.472541 
L 269.654105 121.472541 
z
" clip-path="url(#pd9fb5e2226)" style="fill: #1f77b4"/>
   </g>
   <g id="patch_16">
    <path d="M 286.161585 122.619795 
L 299.367569 122.619795 
L 299.367569 121.608934 
L 286.161585 121.608934 
z
" clip-path="url(#pd9fb5e2226)" style="fill: #1f77b4"/>
   </g>
   <g id="patch_17">
    <path d="M 302.669065 122.619795 
L 315.875049 122.619795 
L 315.875049 122.188878 
L 302.669065 122.188878 
z
" clip-path="url(#pd9fb5e2226)" style="fill: #1f77b4"/>
   </g>
   <g id="patch_18">
    <path d="M 319.176545 122.619795 
L 332.382528 122.619795 
L 332.382528 122.523893 
L 319.176545 122.523893 
z
" clip-path="url(#pd9fb5e2226)" style="fill: #1f77b4"/>
   </g>
   <g id="matplotlib.axis_1">
    <g id="xtick_1">
     <g id="line2d_1">
      <defs>
       <path id="mb4d61f09d8" d="M 0 0 
L 0 3.5 
" style="stroke: #000000; stroke-width: 0.8"/>
      </defs>
      <g>
       <use xlink:href="#mb4d61f09d8" x="78.167339" y="201.968125" style="stroke: #000000; stroke-width: 0.8"/>
      </g>
     </g>
     <g id="text_1">
      <!-- Travel -->
      <g transform="translate(80.926714 238.69) rotate(-90) scale(0.1 -0.1)">
       <defs>
        <path id="DejaVuSans-54" d="M -19 4666 
L 3928 4666 
L 3928 4134 
L 2272 4134 
L 2272 0 
L 1638 0 
L 1638 4134 
L -19 4134 
L -19 4666 
z
" transform="scale(0.015625)"/>
        <path id="DejaVuSans-72" d="M 2631 2963 
Q 2534 3019 2420 3045 
Q 2306 3072 2169 3072 
Q 1681 3072 1420 2755 
Q 1159 2438 1159 1844 
L 1159 0 
L 581 0 
L 581 3500 
L 1159 3500 
L 1159 2956 
Q 1341 3275 1631 3429 
Q 1922 3584 2338 3584 
Q 2397 3584 2469 3576 
Q 2541 3569 2628 3553 
L 2631 2963 
z
" transform="scale(0.015625)"/>
        <path id="DejaVuSans-61" d="M 2194 1759 
Q 1497 1759 1228 1600 
Q 959 1441 959 1056 
Q 959 750 1161 570 
Q 1363 391 1709 391 
Q 2188 391 2477 730 
Q 2766 1069 2766 1631 
L 2766 1759 
L 2194 1759 
z
M 3341 1997 
L 3341 0 
L 2766 0 
L 2766 531 
Q 2569 213 2275 61 
Q 1981 -91 1556 -91 
Q 1019 -91 701 211 
Q 384 513 384 1019 
Q 384 1609 779 1909 
Q 1175 2209 1959 2209 
L 2766 2209 
L 2766 2266 
Q 2766 2663 2505 2880 
Q 2244 3097 1772 3097 
Q 1472 3097 1187 3025 
Q 903 2953 641 2809 
L 641 3341 
Q 956 3463 1253 3523 
Q 1550 3584 1831 3584 
Q 2591 3584 2966 3190 
Q 3341 2797 3341 1997 
z
" transform="scale(0.015625)"/>
        <path id="DejaVuSans-76" d="M 191 3500 
L 800 3500 
L 1894 563 
L 2988 3500 
L 3597 3500 
L 2284 0 
L 1503 0 
L 191 3500 
z
" transform="scale(0.015625)"/>
        <path id="DejaVuSans-65" d="M 3597 1894 
L 3597 1613 
L 953 1613 
Q 991 1019 1311 708 
Q 1631 397 2203 397 
Q 2534 397 2845 478 
Q 3156 559 3463 722 
L 3463 178 
Q 3153 47 2828 -22 
Q 2503 -91 2169 -91 
Q 1331 -91 842 396 
Q 353 884 353 1716 
Q 353 2575 817 3079 
Q 1281 3584 2069 3584 
Q 2775 3584 3186 3129 
Q 3597 2675 3597 1894 
z
M 3022 2063 
Q 3016 2534 2758 2815 
Q 2500 3097 2075 3097 
Q 1594 3097 1305 2825 
Q 1016 2553 972 2059 
L 3022 2063 
z
" transform="scale(0.015625)"/>
        <path id="DejaVuSans-6c" d="M 603 4863 
L 1178 4863 
L 1178 0 
L 603 0 
L 603 4863 
z
" transform="scale(0.015625)"/>
       </defs>
       <use xlink:href="#DejaVuSans-54"/>
       <use xlink:href="#DejaVuSans-72" x="46.333984"/>
       <use xlink:href="#DejaVuSans-61" x="87.447266"/>
       <use xlink:href="#DejaVuSans-76" x="148.726562"/>
       <use xlink:href="#DejaVuSans-65" x="207.90625"/>
       <use xlink:href="#DejaVuSans-6c" x="269.429688"/>
      </g>
     </g>
    </g>
    <g id="xtick_2">
     <g id="line2d_2">
      <g>
       <use xlink:href="#mb4d61f09d8" x="94.674818" y="201.968125" style="stroke: #000000; stroke-width: 0.8"/>
      </g>
     </g>
     <g id="text_2">
      <!-- Sports -->
      <g transform="translate(97.434193 241.024375) rotate(-90) scale(0.1 -0.1)">
       <defs>
        <path id="DejaVuSans-53" d="M 3425 4513 
L 3425 3897 
Q 3066 4069 2747 4153 
Q 2428 4238 2131 4238 
Q 1616 4238 1336 4038 
Q 1056 3838 1056 3469 
Q 1056 3159 1242 3001 
Q 1428 2844 1947 2747 
L 2328 2669 
Q 3034 2534 3370 2195 
Q 3706 1856 3706 1288 
Q 3706 609 3251 259 
Q 2797 -91 1919 -91 
Q 1588 -91 1214 -16 
Q 841 59 441 206 
L 441 856 
Q 825 641 1194 531 
Q 1563 422 1919 422 
Q 2459 422 2753 634 
Q 3047 847 3047 1241 
Q 3047 1584 2836 1778 
Q 2625 1972 2144 2069 
L 1759 2144 
Q 1053 2284 737 2584 
Q 422 2884 422 3419 
Q 422 4038 858 4394 
Q 1294 4750 2059 4750 
Q 2388 4750 2728 4690 
Q 3069 4631 3425 4513 
z
" transform="scale(0.015625)"/>
        <path id="DejaVuSans-70" d="M 1159 525 
L 1159 -1331 
L 581 -1331 
L 581 3500 
L 1159 3500 
L 1159 2969 
Q 1341 3281 1617 3432 
Q 1894 3584 2278 3584 
Q 2916 3584 3314 3078 
Q 3713 2572 3713 1747 
Q 3713 922 3314 415 
Q 2916 -91 2278 -91 
Q 1894 -91 1617 61 
Q 1341 213 1159 525 
z
M 3116 1747 
Q 3116 2381 2855 2742 
Q 2594 3103 2138 3103 
Q 1681 3103 1420 2742 
Q 1159 2381 1159 1747 
Q 1159 1113 1420 752 
Q 1681 391 2138 391 
Q 2594 391 2855 752 
Q 3116 1113 3116 1747 
z
" transform="scale(0.015625)"/>
        <path id="DejaVuSans-6f" d="M 1959 3097 
Q 1497 3097 1228 2736 
Q 959 2375 959 1747 
Q 959 1119 1226 758 
Q 1494 397 1959 397 
Q 2419 397 2687 759 
Q 2956 1122 2956 1747 
Q 2956 2369 2687 2733 
Q 2419 3097 1959 3097 
z
M 1959 3584 
Q 2709 3584 3137 3096 
Q 3566 2609 3566 1747 
Q 3566 888 3137 398 
Q 2709 -91 1959 -91 
Q 1206 -91 779 398 
Q 353 888 353 1747 
Q 353 2609 779 3096 
Q 1206 3584 1959 3584 
z
" transform="scale(0.015625)"/>
        <path id="DejaVuSans-74" d="M 1172 4494 
L 1172 3500 
L 2356 3500 
L 2356 3053 
L 1172 3053 
L 1172 1153 
Q 1172 725 1289 603 
Q 1406 481 1766 481 
L 2356 481 
L 2356 0 
L 1766 0 
Q 1100 0 847 248 
Q 594 497 594 1153 
L 594 3053 
L 172 3053 
L 172 3500 
L 594 3500 
L 594 4494 
L 1172 4494 
z
" transform="scale(0.015625)"/>
        <path id="DejaVuSans-73" d="M 2834 3397 
L 2834 2853 
Q 2591 2978 2328 3040 
Q 2066 3103 1784 3103 
Q 1356 3103 1142 2972 
Q 928 2841 928 2578 
Q 928 2378 1081 2264 
Q 1234 2150 1697 2047 
L 1894 2003 
Q 2506 1872 2764 1633 
Q 3022 1394 3022 966 
Q 3022 478 2636 193 
Q 2250 -91 1575 -91 
Q 1294 -91 989 -36 
Q 684 19 347 128 
L 347 722 
Q 666 556 975 473 
Q 1284 391 1588 391 
Q 1994 391 2212 530 
Q 2431 669 2431 922 
Q 2431 1156 2273 1281 
Q 2116 1406 1581 1522 
L 1381 1569 
Q 847 1681 609 1914 
Q 372 2147 372 2553 
Q 372 3047 722 3315 
Q 1072 3584 1716 3584 
Q 2034 3584 2315 3537 
Q 2597 3491 2834 3397 
z
" transform="scale(0.015625)"/>
       </defs>
       <use xlink:href="#DejaVuSans-53"/>
       <use xlink:href="#DejaVuSans-70" x="63.476562"/>
       <use xlink:href="#DejaVuSans-6f" x="126.953125"/>
       <use xlink:href="#DejaVuSans-72" x="188.134766"/>
       <use xlink:href="#DejaVuSans-74" x="229.248047"/>
       <use xlink:href="#DejaVuSans-73" x="268.457031"/>
      </g>
     </g>
    </g>
    <g id="xtick_3">
     <g id="line2d_3">
      <g>
       <use xlink:href="#mb4d61f09d8" x="111.182298" y="201.968125" style="stroke: #000000; stroke-width: 0.8"/>
      </g>
     </g>
     <g id="text_3">
      <!-- Shopping &amp; Auctions -->
      <g transform="translate(113.941673 313.129062) rotate(-90) scale(0.1 -0.1)">
       <defs>
        <path id="DejaVuSans-68" d="M 3513 2113 
L 3513 0 
L 2938 0 
L 2938 2094 
Q 2938 2591 2744 2837 
Q 2550 3084 2163 3084 
Q 1697 3084 1428 2787 
Q 1159 2491 1159 1978 
L 1159 0 
L 581 0 
L 581 4863 
L 1159 4863 
L 1159 2956 
Q 1366 3272 1645 3428 
Q 1925 3584 2291 3584 
Q 2894 3584 3203 3211 
Q 3513 2838 3513 2113 
z
" transform="scale(0.015625)"/>
        <path id="DejaVuSans-69" d="M 603 3500 
L 1178 3500 
L 1178 0 
L 603 0 
L 603 3500 
z
M 603 4863 
L 1178 4863 
L 1178 4134 
L 603 4134 
L 603 4863 
z
" transform="scale(0.015625)"/>
        <path id="DejaVuSans-6e" d="M 3513 2113 
L 3513 0 
L 2938 0 
L 2938 2094 
Q 2938 2591 2744 2837 
Q 2550 3084 2163 3084 
Q 1697 3084 1428 2787 
Q 1159 2491 1159 1978 
L 1159 0 
L 581 0 
L 581 3500 
L 1159 3500 
L 1159 2956 
Q 1366 3272 1645 3428 
Q 1925 3584 2291 3584 
Q 2894 3584 3203 3211 
Q 3513 2838 3513 2113 
z
" transform="scale(0.015625)"/>
        <path id="DejaVuSans-67" d="M 2906 1791 
Q 2906 2416 2648 2759 
Q 2391 3103 1925 3103 
Q 1463 3103 1205 2759 
Q 947 2416 947 1791 
Q 947 1169 1205 825 
Q 1463 481 1925 481 
Q 2391 481 2648 825 
Q 2906 1169 2906 1791 
z
M 3481 434 
Q 3481 -459 3084 -895 
Q 2688 -1331 1869 -1331 
Q 1566 -1331 1297 -1286 
Q 1028 -1241 775 -1147 
L 775 -588 
Q 1028 -725 1275 -790 
Q 1522 -856 1778 -856 
Q 2344 -856 2625 -561 
Q 2906 -266 2906 331 
L 2906 616 
Q 2728 306 2450 153 
Q 2172 0 1784 0 
Q 1141 0 747 490 
Q 353 981 353 1791 
Q 353 2603 747 3093 
Q 1141 3584 1784 3584 
Q 2172 3584 2450 3431 
Q 2728 3278 2906 2969 
L 2906 3500 
L 3481 3500 
L 3481 434 
z
" transform="scale(0.015625)"/>
        <path id="DejaVuSans-20" transform="scale(0.015625)"/>
        <path id="DejaVuSans-26" d="M 1556 2509 
Q 1272 2256 1139 2004 
Q 1006 1753 1006 1478 
Q 1006 1022 1337 719 
Q 1669 416 2169 416 
Q 2466 416 2725 514 
Q 2984 613 3213 813 
L 1556 2509 
z
M 1997 2859 
L 3584 1234 
Q 3769 1513 3872 1830 
Q 3975 2147 3994 2503 
L 4575 2503 
Q 4538 2091 4375 1687 
Q 4213 1284 3922 891 
L 4794 0 
L 4006 0 
L 3559 459 
Q 3234 181 2878 45 
Q 2522 -91 2113 -91 
Q 1359 -91 881 339 
Q 403 769 403 1441 
Q 403 1841 612 2192 
Q 822 2544 1241 2853 
Q 1091 3050 1012 3245 
Q 934 3441 934 3628 
Q 934 4134 1281 4442 
Q 1628 4750 2203 4750 
Q 2463 4750 2720 4694 
Q 2978 4638 3244 4525 
L 3244 3956 
Q 2972 4103 2725 4179 
Q 2478 4256 2266 4256 
Q 1938 4256 1733 4082 
Q 1528 3909 1528 3634 
Q 1528 3475 1620 3314 
Q 1713 3153 1997 2859 
z
" transform="scale(0.015625)"/>
        <path id="DejaVuSans-41" d="M 2188 4044 
L 1331 1722 
L 3047 1722 
L 2188 4044 
z
M 1831 4666 
L 2547 4666 
L 4325 0 
L 3669 0 
L 3244 1197 
L 1141 1197 
L 716 0 
L 50 0 
L 1831 4666 
z
" transform="scale(0.015625)"/>
        <path id="DejaVuSans-75" d="M 544 1381 
L 544 3500 
L 1119 3500 
L 1119 1403 
Q 1119 906 1312 657 
Q 1506 409 1894 409 
Q 2359 409 2629 706 
Q 2900 1003 2900 1516 
L 2900 3500 
L 3475 3500 
L 3475 0 
L 2900 0 
L 2900 538 
Q 2691 219 2414 64 
Q 2138 -91 1772 -91 
Q 1169 -91 856 284 
Q 544 659 544 1381 
z
M 1991 3584 
L 1991 3584 
z
" transform="scale(0.015625)"/>
        <path id="DejaVuSans-63" d="M 3122 3366 
L 3122 2828 
Q 2878 2963 2633 3030 
Q 2388 3097 2138 3097 
Q 1578 3097 1268 2742 
Q 959 2388 959 1747 
Q 959 1106 1268 751 
Q 1578 397 2138 397 
Q 2388 397 2633 464 
Q 2878 531 3122 666 
L 3122 134 
Q 2881 22 2623 -34 
Q 2366 -91 2075 -91 
Q 1284 -91 818 406 
Q 353 903 353 1747 
Q 353 2603 823 3093 
Q 1294 3584 2113 3584 
Q 2378 3584 2631 3529 
Q 2884 3475 3122 3366 
z
" transform="scale(0.015625)"/>
       </defs>
       <use xlink:href="#DejaVuSans-53"/>
       <use xlink:href="#DejaVuSans-68" x="63.476562"/>
       <use xlink:href="#DejaVuSans-6f" x="126.855469"/>
       <use xlink:href="#DejaVuSans-70" x="188.037109"/>
       <use xlink:href="#DejaVuSans-70" x="251.513672"/>
       <use xlink:href="#DejaVuSans-69" x="314.990234"/>
       <use xlink:href="#DejaVuSans-6e" x="342.773438"/>
       <use xlink:href="#DejaVuSans-67" x="406.152344"/>
       <use xlink:href="#DejaVuSans-20" x="469.628906"/>
       <use xlink:href="#DejaVuSans-26" x="501.416016"/>
       <use xlink:href="#DejaVuSans-20" x="579.394531"/>
       <use xlink:href="#DejaVuSans-41" x="611.181641"/>
       <use xlink:href="#DejaVuSans-75" x="679.589844"/>
       <use xlink:href="#DejaVuSans-63" x="742.96875"/>
       <use xlink:href="#DejaVuSans-74" x="797.949219"/>
       <use xlink:href="#DejaVuSans-69" x="837.158203"/>
       <use xlink:href="#DejaVuSans-6f" x="864.941406"/>
       <use xlink:href="#DejaVuSans-6e" x="926.123047"/>
       <use xlink:href="#DejaVuSans-73" x="989.501953"/>
      </g>
     </g>
    </g>
    <g id="xtick_4">
     <g id="line2d_4">
      <g>
       <use xlink:href="#mb4d61f09d8" x="127.689778" y="201.968125" style="stroke: #000000; stroke-width: 0.8"/>
      </g>
     </g>
     <g id="text_4">
      <!-- Vehicles -->
      <g transform="translate(130.449153 249.941562) rotate(-90) scale(0.1 -0.1)">
       <defs>
        <path id="DejaVuSans-56" d="M 1831 0 
L 50 4666 
L 709 4666 
L 2188 738 
L 3669 4666 
L 4325 4666 
L 2547 0 
L 1831 0 
z
" transform="scale(0.015625)"/>
       </defs>
       <use xlink:href="#DejaVuSans-56"/>
       <use xlink:href="#DejaVuSans-65" x="60.658203"/>
       <use xlink:href="#DejaVuSans-68" x="122.181641"/>
       <use xlink:href="#DejaVuSans-69" x="185.560547"/>
       <use xlink:href="#DejaVuSans-63" x="213.34375"/>
       <use xlink:href="#DejaVuSans-6c" x="268.324219"/>
       <use xlink:href="#DejaVuSans-65" x="296.107422"/>
       <use xlink:href="#DejaVuSans-73" x="357.630859"/>
      </g>
     </g>
    </g>
    <g id="xtick_5">
     <g id="line2d_5">
      <g>
       <use xlink:href="#mb4d61f09d8" x="144.197258" y="201.968125" style="stroke: #000000; stroke-width: 0.8"/>
      </g>
     </g>
     <g id="text_5">
      <!-- Entertainment -->
      <g transform="translate(146.956633 281.124375) rotate(-90) scale(0.1 -0.1)">
       <defs>
        <path id="DejaVuSans-45" d="M 628 4666 
L 3578 4666 
L 3578 4134 
L 1259 4134 
L 1259 2753 
L 3481 2753 
L 3481 2222 
L 1259 2222 
L 1259 531 
L 3634 531 
L 3634 0 
L 628 0 
L 628 4666 
z
" transform="scale(0.015625)"/>
        <path id="DejaVuSans-6d" d="M 3328 2828 
Q 3544 3216 3844 3400 
Q 4144 3584 4550 3584 
Q 5097 3584 5394 3201 
Q 5691 2819 5691 2113 
L 5691 0 
L 5113 0 
L 5113 2094 
Q 5113 2597 4934 2840 
Q 4756 3084 4391 3084 
Q 3944 3084 3684 2787 
Q 3425 2491 3425 1978 
L 3425 0 
L 2847 0 
L 2847 2094 
Q 2847 2600 2669 2842 
Q 2491 3084 2119 3084 
Q 1678 3084 1418 2786 
Q 1159 2488 1159 1978 
L 1159 0 
L 581 0 
L 581 3500 
L 1159 3500 
L 1159 2956 
Q 1356 3278 1631 3431 
Q 1906 3584 2284 3584 
Q 2666 3584 2933 3390 
Q 3200 3197 3328 2828 
z
" transform="scale(0.015625)"/>
       </defs>
       <use xlink:href="#DejaVuSans-45"/>
       <use xlink:href="#DejaVuSans-6e" x="63.183594"/>
       <use xlink:href="#DejaVuSans-74" x="126.5625"/>
       <use xlink:href="#DejaVuSans-65" x="165.771484"/>
       <use xlink:href="#DejaVuSans-72" x="227.294922"/>
       <use xlink:href="#DejaVuSans-74" x="268.408203"/>
       <use xlink:href="#DejaVuSans-61" x="307.617188"/>
       <use xlink:href="#DejaVuSans-69" x="368.896484"/>
       <use xlink:href="#DejaVuSans-6e" x="396.679688"/>
       <use xlink:href="#DejaVuSans-6d" x="460.058594"/>
       <use xlink:href="#DejaVuSans-65" x="557.470703"/>
       <use xlink:href="#DejaVuSans-6e" x="618.994141"/>
       <use xlink:href="#DejaVuSans-74" x="682.373047"/>
      </g>
     </g>
    </g>
    <g id="xtick_6">
     <g id="line2d_6">
      <g>
       <use xlink:href="#mb4d61f09d8" x="160.704738" y="201.968125" style="stroke: #000000; stroke-width: 0.8"/>
      </g>
     </g>
     <g id="text_6">
      <!-- CIPA -->
      <g transform="translate(163.464113 231.13375) rotate(-90) scale(0.1 -0.1)">
       <defs>
        <path id="DejaVuSans-43" d="M 4122 4306 
L 4122 3641 
Q 3803 3938 3442 4084 
Q 3081 4231 2675 4231 
Q 1875 4231 1450 3742 
Q 1025 3253 1025 2328 
Q 1025 1406 1450 917 
Q 1875 428 2675 428 
Q 3081 428 3442 575 
Q 3803 722 4122 1019 
L 4122 359 
Q 3791 134 3420 21 
Q 3050 -91 2638 -91 
Q 1578 -91 968 557 
Q 359 1206 359 2328 
Q 359 3453 968 4101 
Q 1578 4750 2638 4750 
Q 3056 4750 3426 4639 
Q 3797 4528 4122 4306 
z
" transform="scale(0.015625)"/>
        <path id="DejaVuSans-49" d="M 628 4666 
L 1259 4666 
L 1259 0 
L 628 0 
L 628 4666 
z
" transform="scale(0.015625)"/>
        <path id="DejaVuSans-50" d="M 1259 4147 
L 1259 2394 
L 2053 2394 
Q 2494 2394 2734 2622 
Q 2975 2850 2975 3272 
Q 2975 3691 2734 3919 
Q 2494 4147 2053 4147 
L 1259 4147 
z
M 628 4666 
L 2053 4666 
Q 2838 4666 3239 4311 
Q 3641 3956 3641 3272 
Q 3641 2581 3239 2228 
Q 2838 1875 2053 1875 
L 1259 1875 
L 1259 0 
L 628 0 
L 628 4666 
z
" transform="scale(0.015625)"/>
       </defs>
       <use xlink:href="#DejaVuSans-43"/>
       <use xlink:href="#DejaVuSans-49" x="69.824219"/>
       <use xlink:href="#DejaVuSans-50" x="99.316406"/>
       <use xlink:href="#DejaVuSans-41" x="153.244141"/>
      </g>
     </g>
    </g>
    <g id="xtick_7">
     <g id="line2d_7">
      <g>
       <use xlink:href="#mb4d61f09d8" x="177.212218" y="201.968125" style="stroke: #000000; stroke-width: 0.8"/>
      </g>
     </g>
     <g id="text_7">
      <!-- Education -->
      <g transform="translate(179.971593 258.754062) rotate(-90) scale(0.1 -0.1)">
       <defs>
        <path id="DejaVuSans-64" d="M 2906 2969 
L 2906 4863 
L 3481 4863 
L 3481 0 
L 2906 0 
L 2906 525 
Q 2725 213 2448 61 
Q 2172 -91 1784 -91 
Q 1150 -91 751 415 
Q 353 922 353 1747 
Q 353 2572 751 3078 
Q 1150 3584 1784 3584 
Q 2172 3584 2448 3432 
Q 2725 3281 2906 2969 
z
M 947 1747 
Q 947 1113 1208 752 
Q 1469 391 1925 391 
Q 2381 391 2643 752 
Q 2906 1113 2906 1747 
Q 2906 2381 2643 2742 
Q 2381 3103 1925 3103 
Q 1469 3103 1208 2742 
Q 947 2381 947 1747 
z
" transform="scale(0.015625)"/>
       </defs>
       <use xlink:href="#DejaVuSans-45"/>
       <use xlink:href="#DejaVuSans-64" x="63.183594"/>
       <use xlink:href="#DejaVuSans-75" x="126.660156"/>
       <use xlink:href="#DejaVuSans-63" x="190.039062"/>
       <use xlink:href="#DejaVuSans-61" x="245.019531"/>
       <use xlink:href="#DejaVuSans-74" x="306.298828"/>
       <use xlink:href="#DejaVuSans-69" x="345.507812"/>
       <use xlink:href="#DejaVuSans-6f" x="373.291016"/>
       <use xlink:href="#DejaVuSans-6e" x="434.472656"/>
      </g>
     </g>
    </g>
    <g id="xtick_8">
     <g id="line2d_8">
      <g>
       <use xlink:href="#mb4d61f09d8" x="193.719698" y="201.968125" style="stroke: #000000; stroke-width: 0.8"/>
      </g>
     </g>
     <g id="text_8">
      <!-- Adult Themes -->
      <g transform="translate(196.479073 277.897812) rotate(-90) scale(0.1 -0.1)">
       <use xlink:href="#DejaVuSans-41"/>
       <use xlink:href="#DejaVuSans-64" x="66.658203"/>
       <use xlink:href="#DejaVuSans-75" x="130.134766"/>
       <use xlink:href="#DejaVuSans-6c" x="193.513672"/>
       <use xlink:href="#DejaVuSans-74" x="221.296875"/>
       <use xlink:href="#DejaVuSans-20" x="260.505859"/>
       <use xlink:href="#DejaVuSans-54" x="292.292969"/>
       <use xlink:href="#DejaVuSans-68" x="353.376953"/>
       <use xlink:href="#DejaVuSans-65" x="416.755859"/>
       <use xlink:href="#DejaVuSans-6d" x="478.279297"/>
       <use xlink:href="#DejaVuSans-65" x="575.691406"/>
       <use xlink:href="#DejaVuSans-73" x="637.214844"/>
      </g>
     </g>
    </g>
    <g id="xtick_9">
     <g id="line2d_9">
      <g>
       <use xlink:href="#mb4d61f09d8" x="210.227177" y="201.968125" style="stroke: #000000; stroke-width: 0.8"/>
      </g>
     </g>
     <g id="text_9">
      <!-- Gambling -->
      <g transform="translate(212.986552 257.175937) rotate(-90) scale(0.1 -0.1)">
       <defs>
        <path id="DejaVuSans-47" d="M 3809 666 
L 3809 1919 
L 2778 1919 
L 2778 2438 
L 4434 2438 
L 4434 434 
Q 4069 175 3628 42 
Q 3188 -91 2688 -91 
Q 1594 -91 976 548 
Q 359 1188 359 2328 
Q 359 3472 976 4111 
Q 1594 4750 2688 4750 
Q 3144 4750 3555 4637 
Q 3966 4525 4313 4306 
L 4313 3634 
Q 3963 3931 3569 4081 
Q 3175 4231 2741 4231 
Q 1884 4231 1454 3753 
Q 1025 3275 1025 2328 
Q 1025 1384 1454 906 
Q 1884 428 2741 428 
Q 3075 428 3337 486 
Q 3600 544 3809 666 
z
" transform="scale(0.015625)"/>
        <path id="DejaVuSans-62" d="M 3116 1747 
Q 3116 2381 2855 2742 
Q 2594 3103 2138 3103 
Q 1681 3103 1420 2742 
Q 1159 2381 1159 1747 
Q 1159 1113 1420 752 
Q 1681 391 2138 391 
Q 2594 391 2855 752 
Q 3116 1113 3116 1747 
z
M 1159 2969 
Q 1341 3281 1617 3432 
Q 1894 3584 2278 3584 
Q 2916 3584 3314 3078 
Q 3713 2572 3713 1747 
Q 3713 922 3314 415 
Q 2916 -91 2278 -91 
Q 1894 -91 1617 61 
Q 1341 213 1159 525 
L 1159 0 
L 581 0 
L 581 4863 
L 1159 4863 
L 1159 2969 
z
" transform="scale(0.015625)"/>
       </defs>
       <use xlink:href="#DejaVuSans-47"/>
       <use xlink:href="#DejaVuSans-61" x="77.490234"/>
       <use xlink:href="#DejaVuSans-6d" x="138.769531"/>
       <use xlink:href="#DejaVuSans-62" x="236.181641"/>
       <use xlink:href="#DejaVuSans-6c" x="299.658203"/>
       <use xlink:href="#DejaVuSans-69" x="327.441406"/>
       <use xlink:href="#DejaVuSans-6e" x="355.224609"/>
       <use xlink:href="#DejaVuSans-67" x="418.603516"/>
      </g>
     </g>
    </g>
    <g id="xtick_10">
     <g id="line2d_10">
      <g>
       <use xlink:href="#mb4d61f09d8" x="226.734657" y="201.968125" style="stroke: #000000; stroke-width: 0.8"/>
      </g>
     </g>
     <g id="text_10">
      <!-- Society &amp; Lifestyle -->
      <g transform="translate(229.494032 301.861875) rotate(-90) scale(0.1 -0.1)">
       <defs>
        <path id="DejaVuSans-79" d="M 2059 -325 
Q 1816 -950 1584 -1140 
Q 1353 -1331 966 -1331 
L 506 -1331 
L 506 -850 
L 844 -850 
Q 1081 -850 1212 -737 
Q 1344 -625 1503 -206 
L 1606 56 
L 191 3500 
L 800 3500 
L 1894 763 
L 2988 3500 
L 3597 3500 
L 2059 -325 
z
" transform="scale(0.015625)"/>
        <path id="DejaVuSans-4c" d="M 628 4666 
L 1259 4666 
L 1259 531 
L 3531 531 
L 3531 0 
L 628 0 
L 628 4666 
z
" transform="scale(0.015625)"/>
        <path id="DejaVuSans-66" d="M 2375 4863 
L 2375 4384 
L 1825 4384 
Q 1516 4384 1395 4259 
Q 1275 4134 1275 3809 
L 1275 3500 
L 2222 3500 
L 2222 3053 
L 1275 3053 
L 1275 0 
L 697 0 
L 697 3053 
L 147 3053 
L 147 3500 
L 697 3500 
L 697 3744 
Q 697 4328 969 4595 
Q 1241 4863 1831 4863 
L 2375 4863 
z
" transform="scale(0.015625)"/>
       </defs>
       <use xlink:href="#DejaVuSans-53"/>
       <use xlink:href="#DejaVuSans-6f" x="63.476562"/>
       <use xlink:href="#DejaVuSans-63" x="124.658203"/>
       <use xlink:href="#DejaVuSans-69" x="179.638672"/>
       <use xlink:href="#DejaVuSans-65" x="207.421875"/>
       <use xlink:href="#DejaVuSans-74" x="268.945312"/>
       <use xlink:href="#DejaVuSans-79" x="308.154297"/>
       <use xlink:href="#DejaVuSans-20" x="367.333984"/>
       <use xlink:href="#DejaVuSans-26" x="399.121094"/>
       <use xlink:href="#DejaVuSans-20" x="477.099609"/>
       <use xlink:href="#DejaVuSans-4c" x="508.886719"/>
       <use xlink:href="#DejaVuSans-69" x="564.599609"/>
       <use xlink:href="#DejaVuSans-66" x="592.382812"/>
       <use xlink:href="#DejaVuSans-65" x="627.587891"/>
       <use xlink:href="#DejaVuSans-73" x="689.111328"/>
       <use xlink:href="#DejaVuSans-74" x="741.210938"/>
       <use xlink:href="#DejaVuSans-79" x="780.419922"/>
       <use xlink:href="#DejaVuSans-6c" x="839.599609"/>
       <use xlink:href="#DejaVuSans-65" x="867.382812"/>
      </g>
     </g>
    </g>
    <g id="xtick_11">
     <g id="line2d_11">
      <g>
       <use xlink:href="#mb4d61f09d8" x="243.242137" y="201.968125" style="stroke: #000000; stroke-width: 0.8"/>
      </g>
     </g>
     <g id="text_11">
      <!-- Questionable Content -->
      <g transform="translate(246.001512 318.050937) rotate(-90) scale(0.1 -0.1)">
       <defs>
        <path id="DejaVuSans-51" d="M 2522 4238 
Q 1834 4238 1429 3725 
Q 1025 3213 1025 2328 
Q 1025 1447 1429 934 
Q 1834 422 2522 422 
Q 3209 422 3611 934 
Q 4013 1447 4013 2328 
Q 4013 3213 3611 3725 
Q 3209 4238 2522 4238 
z
M 3406 84 
L 4238 -825 
L 3475 -825 
L 2784 -78 
Q 2681 -84 2626 -87 
Q 2572 -91 2522 -91 
Q 1538 -91 948 567 
Q 359 1225 359 2328 
Q 359 3434 948 4092 
Q 1538 4750 2522 4750 
Q 3503 4750 4090 4092 
Q 4678 3434 4678 2328 
Q 4678 1516 4351 937 
Q 4025 359 3406 84 
z
" transform="scale(0.015625)"/>
       </defs>
       <use xlink:href="#DejaVuSans-51"/>
       <use xlink:href="#DejaVuSans-75" x="78.710938"/>
       <use xlink:href="#DejaVuSans-65" x="142.089844"/>
       <use xlink:href="#DejaVuSans-73" x="203.613281"/>
       <use xlink:href="#DejaVuSans-74" x="255.712891"/>
       <use xlink:href="#DejaVuSans-69" x="294.921875"/>
       <use xlink:href="#DejaVuSans-6f" x="322.705078"/>
       <use xlink:href="#DejaVuSans-6e" x="383.886719"/>
       <use xlink:href="#DejaVuSans-61" x="447.265625"/>
       <use xlink:href="#DejaVuSans-62" x="508.544922"/>
       <use xlink:href="#DejaVuSans-6c" x="572.021484"/>
       <use xlink:href="#DejaVuSans-65" x="599.804688"/>
       <use xlink:href="#DejaVuSans-20" x="661.328125"/>
       <use xlink:href="#DejaVuSans-43" x="693.115234"/>
       <use xlink:href="#DejaVuSans-6f" x="762.939453"/>
       <use xlink:href="#DejaVuSans-6e" x="824.121094"/>
       <use xlink:href="#DejaVuSans-74" x="887.5"/>
       <use xlink:href="#DejaVuSans-65" x="926.708984"/>
       <use xlink:href="#DejaVuSans-6e" x="988.232422"/>
       <use xlink:href="#DejaVuSans-74" x="1051.611328"/>
      </g>
     </g>
    </g>
    <g id="xtick_12">
     <g id="line2d_12">
      <g>
       <use xlink:href="#mb4d61f09d8" x="259.749617" y="201.968125" style="stroke: #000000; stroke-width: 0.8"/>
      </g>
     </g>
     <g id="text_12">
      <!-- Technology -->
      <g transform="translate(262.508992 264.985312) rotate(-90) scale(0.1 -0.1)">
       <use xlink:href="#DejaVuSans-54"/>
       <use xlink:href="#DejaVuSans-65" x="44.083984"/>
       <use xlink:href="#DejaVuSans-63" x="105.607422"/>
       <use xlink:href="#DejaVuSans-68" x="160.587891"/>
       <use xlink:href="#DejaVuSans-6e" x="223.966797"/>
       <use xlink:href="#DejaVuSans-6f" x="287.345703"/>
       <use xlink:href="#DejaVuSans-6c" x="348.527344"/>
       <use xlink:href="#DejaVuSans-6f" x="376.310547"/>
       <use xlink:href="#DejaVuSans-67" x="437.492188"/>
       <use xlink:href="#DejaVuSans-79" x="500.96875"/>
      </g>
     </g>
    </g>
    <g id="xtick_13">
     <g id="line2d_13">
      <g>
       <use xlink:href="#mb4d61f09d8" x="276.257097" y="201.968125" style="stroke: #000000; stroke-width: 0.8"/>
      </g>
     </g>
     <g id="text_13">
      <!-- Business &amp; Economy -->
      <g transform="translate(279.016472 313.269687) rotate(-90) scale(0.1 -0.1)">
       <defs>
        <path id="DejaVuSans-42" d="M 1259 2228 
L 1259 519 
L 2272 519 
Q 2781 519 3026 730 
Q 3272 941 3272 1375 
Q 3272 1813 3026 2020 
Q 2781 2228 2272 2228 
L 1259 2228 
z
M 1259 4147 
L 1259 2741 
L 2194 2741 
Q 2656 2741 2882 2914 
Q 3109 3088 3109 3444 
Q 3109 3797 2882 3972 
Q 2656 4147 2194 4147 
L 1259 4147 
z
M 628 4666 
L 2241 4666 
Q 2963 4666 3353 4366 
Q 3744 4066 3744 3513 
Q 3744 3084 3544 2831 
Q 3344 2578 2956 2516 
Q 3422 2416 3680 2098 
Q 3938 1781 3938 1306 
Q 3938 681 3513 340 
Q 3088 0 2303 0 
L 628 0 
L 628 4666 
z
" transform="scale(0.015625)"/>
       </defs>
       <use xlink:href="#DejaVuSans-42"/>
       <use xlink:href="#DejaVuSans-75" x="68.603516"/>
       <use xlink:href="#DejaVuSans-73" x="131.982422"/>
       <use xlink:href="#DejaVuSans-69" x="184.082031"/>
       <use xlink:href="#DejaVuSans-6e" x="211.865234"/>
       <use xlink:href="#DejaVuSans-65" x="275.244141"/>
       <use xlink:href="#DejaVuSans-73" x="336.767578"/>
       <use xlink:href="#DejaVuSans-73" x="388.867188"/>
       <use xlink:href="#DejaVuSans-20" x="440.966797"/>
       <use xlink:href="#DejaVuSans-26" x="472.753906"/>
       <use xlink:href="#DejaVuSans-20" x="550.732422"/>
       <use xlink:href="#DejaVuSans-45" x="582.519531"/>
       <use xlink:href="#DejaVuSans-63" x="645.703125"/>
       <use xlink:href="#DejaVuSans-6f" x="700.683594"/>
       <use xlink:href="#DejaVuSans-6e" x="761.865234"/>
       <use xlink:href="#DejaVuSans-6f" x="825.244141"/>
       <use xlink:href="#DejaVuSans-6d" x="886.425781"/>
       <use xlink:href="#DejaVuSans-79" x="983.837891"/>
      </g>
     </g>
    </g>
    <g id="xtick_14">
     <g id="line2d_14">
      <g>
       <use xlink:href="#mb4d61f09d8" x="292.764577" y="201.968125" style="stroke: #000000; stroke-width: 0.8"/>
      </g>
     </g>
     <g id="text_14">
      <!-- Government &amp; Politics -->
      <g transform="translate(295.523952 320.235312) rotate(-90) scale(0.1 -0.1)">
       <use xlink:href="#DejaVuSans-47"/>
       <use xlink:href="#DejaVuSans-6f" x="77.490234"/>
       <use xlink:href="#DejaVuSans-76" x="138.671875"/>
       <use xlink:href="#DejaVuSans-65" x="197.851562"/>
       <use xlink:href="#DejaVuSans-72" x="259.375"/>
       <use xlink:href="#DejaVuSans-6e" x="298.738281"/>
       <use xlink:href="#DejaVuSans-6d" x="362.117188"/>
       <use xlink:href="#DejaVuSans-65" x="459.529297"/>
       <use xlink:href="#DejaVuSans-6e" x="521.052734"/>
       <use xlink:href="#DejaVuSans-74" x="584.431641"/>
       <use xlink:href="#DejaVuSans-20" x="623.640625"/>
       <use xlink:href="#DejaVuSans-26" x="655.427734"/>
       <use xlink:href="#DejaVuSans-20" x="733.40625"/>
       <use xlink:href="#DejaVuSans-50" x="765.193359"/>
       <use xlink:href="#DejaVuSans-6f" x="821.871094"/>
       <use xlink:href="#DejaVuSans-6c" x="883.052734"/>
       <use xlink:href="#DejaVuSans-69" x="910.835938"/>
       <use xlink:href="#DejaVuSans-74" x="938.619141"/>
       <use xlink:href="#DejaVuSans-69" x="977.828125"/>
       <use xlink:href="#DejaVuSans-63" x="1005.611328"/>
       <use xlink:href="#DejaVuSans-73" x="1060.591797"/>
      </g>
     </g>
    </g>
    <g id="xtick_15">
     <g id="line2d_15">
      <g>
       <use xlink:href="#mb4d61f09d8" x="309.272057" y="201.968125" style="stroke: #000000; stroke-width: 0.8"/>
      </g>
     </g>
     <g id="text_15">
      <!-- Internet Communication -->
      <g transform="translate(312.031432 330.67125) rotate(-90) scale(0.1 -0.1)">
       <use xlink:href="#DejaVuSans-49"/>
       <use xlink:href="#DejaVuSans-6e" x="29.492188"/>
       <use xlink:href="#DejaVuSans-74" x="92.871094"/>
       <use xlink:href="#DejaVuSans-65" x="132.080078"/>
       <use xlink:href="#DejaVuSans-72" x="193.603516"/>
       <use xlink:href="#DejaVuSans-6e" x="232.966797"/>
       <use xlink:href="#DejaVuSans-65" x="296.345703"/>
       <use xlink:href="#DejaVuSans-74" x="357.869141"/>
       <use xlink:href="#DejaVuSans-20" x="397.078125"/>
       <use xlink:href="#DejaVuSans-43" x="428.865234"/>
       <use xlink:href="#DejaVuSans-6f" x="498.689453"/>
       <use xlink:href="#DejaVuSans-6d" x="559.871094"/>
       <use xlink:href="#DejaVuSans-6d" x="657.283203"/>
       <use xlink:href="#DejaVuSans-75" x="754.695312"/>
       <use xlink:href="#DejaVuSans-6e" x="818.074219"/>
       <use xlink:href="#DejaVuSans-69" x="881.453125"/>
       <use xlink:href="#DejaVuSans-63" x="909.236328"/>
       <use xlink:href="#DejaVuSans-61" x="964.216797"/>
       <use xlink:href="#DejaVuSans-74" x="1025.496094"/>
       <use xlink:href="#DejaVuSans-69" x="1064.705078"/>
       <use xlink:href="#DejaVuSans-6f" x="1092.488281"/>
       <use xlink:href="#DejaVuSans-6e" x="1153.669922"/>
      </g>
     </g>
    </g>
    <g id="xtick_16">
     <g id="line2d_16">
      <g>
       <use xlink:href="#mb4d61f09d8" x="325.779536" y="201.968125" style="stroke: #000000; stroke-width: 0.8"/>
      </g>
     </g>
     <g id="text_16">
      <!-- Health -->
      <g transform="translate(328.538911 241.805625) rotate(-90) scale(0.1 -0.1)">
       <defs>
        <path id="DejaVuSans-48" d="M 628 4666 
L 1259 4666 
L 1259 2753 
L 3553 2753 
L 3553 4666 
L 4184 4666 
L 4184 0 
L 3553 0 
L 3553 2222 
L 1259 2222 
L 1259 0 
L 628 0 
L 628 4666 
z
" transform="scale(0.015625)"/>
       </defs>
       <use xlink:href="#DejaVuSans-48"/>
       <use xlink:href="#DejaVuSans-65" x="75.195312"/>
       <use xlink:href="#DejaVuSans-61" x="136.71875"/>
       <use xlink:href="#DejaVuSans-6c" x="197.998047"/>
       <use xlink:href="#DejaVuSans-74" x="225.78125"/>
       <use xlink:href="#DejaVuSans-68" x="264.990234"/>
      </g>
     </g>
    </g>
    <g id="text_17">
     <!-- Category -->
     <g transform="translate(179.132812 342.269687) scale(0.1 -0.1)">
      <use xlink:href="#DejaVuSans-43"/>
      <use xlink:href="#DejaVuSans-61" x="69.824219"/>
      <use xlink:href="#DejaVuSans-74" x="131.103516"/>
      <use xlink:href="#DejaVuSans-65" x="170.3125"/>
      <use xlink:href="#DejaVuSans-67" x="231.835938"/>
      <use xlink:href="#DejaVuSans-6f" x="295.3125"/>
      <use xlink:href="#DejaVuSans-72" x="356.494141"/>
      <use xlink:href="#DejaVuSans-79" x="397.607422"/>
     </g>
    </g>
   </g>
   <g id="matplotlib.axis_2">
    <g id="ytick_1">
     <g id="line2d_17">
      <defs>
       <path id="mdc3924d10c" d="M 0 0 
L -3.5 0 
" style="stroke: #000000; stroke-width: 0.8"/>
      </defs>
      <g>
       <use xlink:href="#mdc3924d10c" x="58.523438" y="176.795005" style="stroke: #000000; stroke-width: 0.8"/>
      </g>
     </g>
     <g id="text_18">
      <!-- −0.04 -->
      <g transform="translate(20.878125 180.594223) scale(0.1 -0.1)">
       <defs>
        <path id="DejaVuSans-2212" d="M 678 2272 
L 4684 2272 
L 4684 1741 
L 678 1741 
L 678 2272 
z
" transform="scale(0.015625)"/>
        <path id="DejaVuSans-30" d="M 2034 4250 
Q 1547 4250 1301 3770 
Q 1056 3291 1056 2328 
Q 1056 1369 1301 889 
Q 1547 409 2034 409 
Q 2525 409 2770 889 
Q 3016 1369 3016 2328 
Q 3016 3291 2770 3770 
Q 2525 4250 2034 4250 
z
M 2034 4750 
Q 2819 4750 3233 4129 
Q 3647 3509 3647 2328 
Q 3647 1150 3233 529 
Q 2819 -91 2034 -91 
Q 1250 -91 836 529 
Q 422 1150 422 2328 
Q 422 3509 836 4129 
Q 1250 4750 2034 4750 
z
" transform="scale(0.015625)"/>
        <path id="DejaVuSans-2e" d="M 684 794 
L 1344 794 
L 1344 0 
L 684 0 
L 684 794 
z
" transform="scale(0.015625)"/>
        <path id="DejaVuSans-34" d="M 2419 4116 
L 825 1625 
L 2419 1625 
L 2419 4116 
z
M 2253 4666 
L 3047 4666 
L 3047 1625 
L 3713 1625 
L 3713 1100 
L 3047 1100 
L 3047 0 
L 2419 0 
L 2419 1100 
L 313 1100 
L 313 1709 
L 2253 4666 
z
" transform="scale(0.015625)"/>
       </defs>
       <use xlink:href="#DejaVuSans-2212"/>
       <use xlink:href="#DejaVuSans-30" x="83.789062"/>
       <use xlink:href="#DejaVuSans-2e" x="147.412109"/>
       <use xlink:href="#DejaVuSans-30" x="179.199219"/>
       <use xlink:href="#DejaVuSans-34" x="242.822266"/>
      </g>
     </g>
    </g>
    <g id="ytick_2">
     <g id="line2d_18">
      <g>
       <use xlink:href="#mdc3924d10c" x="58.523438" y="149.7074" style="stroke: #000000; stroke-width: 0.8"/>
      </g>
     </g>
     <g id="text_19">
      <!-- −0.02 -->
      <g transform="translate(20.878125 153.506618) scale(0.1 -0.1)">
       <defs>
        <path id="DejaVuSans-32" d="M 1228 531 
L 3431 531 
L 3431 0 
L 469 0 
L 469 531 
Q 828 903 1448 1529 
Q 2069 2156 2228 2338 
Q 2531 2678 2651 2914 
Q 2772 3150 2772 3378 
Q 2772 3750 2511 3984 
Q 2250 4219 1831 4219 
Q 1534 4219 1204 4116 
Q 875 4013 500 3803 
L 500 4441 
Q 881 4594 1212 4672 
Q 1544 4750 1819 4750 
Q 2544 4750 2975 4387 
Q 3406 4025 3406 3419 
Q 3406 3131 3298 2873 
Q 3191 2616 2906 2266 
Q 2828 2175 2409 1742 
Q 1991 1309 1228 531 
z
" transform="scale(0.015625)"/>
       </defs>
       <use xlink:href="#DejaVuSans-2212"/>
       <use xlink:href="#DejaVuSans-30" x="83.789062"/>
       <use xlink:href="#DejaVuSans-2e" x="147.412109"/>
       <use xlink:href="#DejaVuSans-30" x="179.199219"/>
       <use xlink:href="#DejaVuSans-32" x="242.822266"/>
      </g>
     </g>
    </g>
    <g id="ytick_3">
     <g id="line2d_19">
      <g>
       <use xlink:href="#mdc3924d10c" x="58.523438" y="122.619795" style="stroke: #000000; stroke-width: 0.8"/>
      </g>
     </g>
     <g id="text_20">
      <!-- 0.00 -->
      <g transform="translate(29.257813 126.419014) scale(0.1 -0.1)">
       <use xlink:href="#DejaVuSans-30"/>
       <use xlink:href="#DejaVuSans-2e" x="63.623047"/>
       <use xlink:href="#DejaVuSans-30" x="95.410156"/>
       <use xlink:href="#DejaVuSans-30" x="159.033203"/>
      </g>
     </g>
    </g>
    <g id="ytick_4">
     <g id="line2d_20">
      <g>
       <use xlink:href="#mdc3924d10c" x="58.523438" y="95.53219" style="stroke: #000000; stroke-width: 0.8"/>
      </g>
     </g>
     <g id="text_21">
      <!-- 0.02 -->
      <g transform="translate(29.257813 99.331409) scale(0.1 -0.1)">
       <use xlink:href="#DejaVuSans-30"/>
       <use xlink:href="#DejaVuSans-2e" x="63.623047"/>
       <use xlink:href="#DejaVuSans-30" x="95.410156"/>
       <use xlink:href="#DejaVuSans-32" x="159.033203"/>
      </g>
     </g>
    </g>
    <g id="ytick_5">
     <g id="line2d_21">
      <g>
       <use xlink:href="#mdc3924d10c" x="58.523438" y="68.444585" style="stroke: #000000; stroke-width: 0.8"/>
      </g>
     </g>
     <g id="text_22">
      <!-- 0.04 -->
      <g transform="translate(29.257813 72.243804) scale(0.1 -0.1)">
       <use xlink:href="#DejaVuSans-30"/>
       <use xlink:href="#DejaVuSans-2e" x="63.623047"/>
       <use xlink:href="#DejaVuSans-30" x="95.410156"/>
       <use xlink:href="#DejaVuSans-34" x="159.033203"/>
      </g>
     </g>
    </g>
    <g id="ytick_6">
     <g id="line2d_22">
      <g>
       <use xlink:href="#mdc3924d10c" x="58.523438" y="41.35698" style="stroke: #000000; stroke-width: 0.8"/>
      </g>
     </g>
     <g id="text_23">
      <!-- 0.06 -->
      <g transform="translate(29.257813 45.156199) scale(0.1 -0.1)">
       <defs>
        <path id="DejaVuSans-36" d="M 2113 2584 
Q 1688 2584 1439 2293 
Q 1191 2003 1191 1497 
Q 1191 994 1439 701 
Q 1688 409 2113 409 
Q 2538 409 2786 701 
Q 3034 994 3034 1497 
Q 3034 2003 2786 2293 
Q 2538 2584 2113 2584 
z
M 3366 4563 
L 3366 3988 
Q 3128 4100 2886 4159 
Q 2644 4219 2406 4219 
Q 1781 4219 1451 3797 
Q 1122 3375 1075 2522 
Q 1259 2794 1537 2939 
Q 1816 3084 2150 3084 
Q 2853 3084 3261 2657 
Q 3669 2231 3669 1497 
Q 3669 778 3244 343 
Q 2819 -91 2113 -91 
Q 1303 -91 875 529 
Q 447 1150 447 2328 
Q 447 3434 972 4092 
Q 1497 4750 2381 4750 
Q 2619 4750 2861 4703 
Q 3103 4656 3366 4563 
z
" transform="scale(0.015625)"/>
       </defs>
       <use xlink:href="#DejaVuSans-30"/>
       <use xlink:href="#DejaVuSans-2e" x="63.623047"/>
       <use xlink:href="#DejaVuSans-30" x="95.410156"/>
       <use xlink:href="#DejaVuSans-36" x="159.033203"/>
      </g>
     </g>
    </g>
    <g id="text_24">
     <!-- Average Inner Text DiD -->
     <g transform="translate(14.798438 169.589219) rotate(-90) scale(0.1 -0.1)">
      <defs>
       <path id="DejaVuSans-78" d="M 3513 3500 
L 2247 1797 
L 3578 0 
L 2900 0 
L 1881 1375 
L 863 0 
L 184 0 
L 1544 1831 
L 300 3500 
L 978 3500 
L 1906 2253 
L 2834 3500 
L 3513 3500 
z
" transform="scale(0.015625)"/>
       <path id="DejaVuSans-44" d="M 1259 4147 
L 1259 519 
L 2022 519 
Q 2988 519 3436 956 
Q 3884 1394 3884 2338 
Q 3884 3275 3436 3711 
Q 2988 4147 2022 4147 
L 1259 4147 
z
M 628 4666 
L 1925 4666 
Q 3281 4666 3915 4102 
Q 4550 3538 4550 2338 
Q 4550 1131 3912 565 
Q 3275 0 1925 0 
L 628 0 
L 628 4666 
z
" transform="scale(0.015625)"/>
      </defs>
      <use xlink:href="#DejaVuSans-41"/>
      <use xlink:href="#DejaVuSans-76" x="62.533203"/>
      <use xlink:href="#DejaVuSans-65" x="121.712891"/>
      <use xlink:href="#DejaVuSans-72" x="183.236328"/>
      <use xlink:href="#DejaVuSans-61" x="224.349609"/>
      <use xlink:href="#DejaVuSans-67" x="285.628906"/>
      <use xlink:href="#DejaVuSans-65" x="349.105469"/>
      <use xlink:href="#DejaVuSans-20" x="410.628906"/>
      <use xlink:href="#DejaVuSans-49" x="442.416016"/>
      <use xlink:href="#DejaVuSans-6e" x="471.908203"/>
      <use xlink:href="#DejaVuSans-6e" x="535.287109"/>
      <use xlink:href="#DejaVuSans-65" x="598.666016"/>
      <use xlink:href="#DejaVuSans-72" x="660.189453"/>
      <use xlink:href="#DejaVuSans-20" x="701.302734"/>
      <use xlink:href="#DejaVuSans-54" x="733.089844"/>
      <use xlink:href="#DejaVuSans-65" x="777.173828"/>
      <use xlink:href="#DejaVuSans-78" x="836.947266"/>
      <use xlink:href="#DejaVuSans-74" x="896.126953"/>
      <use xlink:href="#DejaVuSans-20" x="935.335938"/>
      <use xlink:href="#DejaVuSans-44" x="967.123047"/>
      <use xlink:href="#DejaVuSans-69" x="1044.125"/>
      <use xlink:href="#DejaVuSans-44" x="1071.908203"/>
     </g>
    </g>
   </g>
   <g id="LineCollection_1">
    <path d="M 78.167339 163.230247 
L 78.167339 59.608135 
" clip-path="url(#pd9fb5e2226)" style="fill: none; stroke: #000000; stroke-width: 1.5"/>
    <path d="M 94.674818 193.802216 
L 94.674818 30.484034 
" clip-path="url(#pd9fb5e2226)" style="fill: none; stroke: #000000; stroke-width: 1.5"/>
    <path d="M 111.182298 189.040173 
L 111.182298 38.472981 
" clip-path="url(#pd9fb5e2226)" style="fill: none; stroke: #000000; stroke-width: 1.5"/>
    <path d="M 127.689778 171.494506 
L 127.689778 59.918682 
" clip-path="url(#pd9fb5e2226)" style="fill: none; stroke: #000000; stroke-width: 1.5"/>
    <path d="M 144.197258 178.965904 
L 144.197258 53.338829 
" clip-path="url(#pd9fb5e2226)" style="fill: none; stroke: #000000; stroke-width: 1.5"/>
    <path d="M 160.704738 166.667054 
L 160.704738 68.36607 
" clip-path="url(#pd9fb5e2226)" style="fill: none; stroke: #000000; stroke-width: 1.5"/>
    <path d="M 177.212218 172.36981 
L 177.212218 62.786073 
" clip-path="url(#pd9fb5e2226)" style="fill: none; stroke: #000000; stroke-width: 1.5"/>
    <path d="M 193.719698 168.561466 
L 193.719698 67.657943 
" clip-path="url(#pd9fb5e2226)" style="fill: none; stroke: #000000; stroke-width: 1.5"/>
    <path d="M 210.227177 160.076835 
L 210.227177 76.373898 
" clip-path="url(#pd9fb5e2226)" style="fill: none; stroke: #000000; stroke-width: 1.5"/>
    <path d="M 226.734657 172.411743 
L 226.734657 64.464171 
" clip-path="url(#pd9fb5e2226)" style="fill: none; stroke: #000000; stroke-width: 1.5"/>
    <path d="M 243.242137 137.389031 
L 243.242137 102.198914 
" clip-path="url(#pd9fb5e2226)" style="fill: none; stroke: #000000; stroke-width: 1.5"/>
    <path d="M 259.749617 161.716001 
L 259.749617 80.436099 
" clip-path="url(#pd9fb5e2226)" style="fill: none; stroke: #000000; stroke-width: 1.5"/>
    <path d="M 276.257097 160.673385 
L 276.257097 82.271697 
" clip-path="url(#pd9fb5e2226)" style="fill: none; stroke: #000000; stroke-width: 1.5"/>
    <path d="M 292.764577 144.605727 
L 292.764577 98.612142 
" clip-path="url(#pd9fb5e2226)" style="fill: none; stroke: #000000; stroke-width: 1.5"/>
    <path d="M 309.272057 162.395064 
L 309.272057 81.982692 
" clip-path="url(#pd9fb5e2226)" style="fill: none; stroke: #000000; stroke-width: 1.5"/>
    <path d="M 325.779536 144.522283 
L 325.779536 100.525504 
" clip-path="url(#pd9fb5e2226)" style="fill: none; stroke: #000000; stroke-width: 1.5"/>
   </g>
   <g id="line2d_23">
    <defs>
     <path id="m2d3fbefdf3" d="M 5 0 
L -5 -0 
" style="stroke: #000000"/>
    </defs>
    <g clip-path="url(#pd9fb5e2226)">
     <use xlink:href="#m2d3fbefdf3" x="78.167339" y="163.230247" style="stroke: #000000"/>
     <use xlink:href="#m2d3fbefdf3" x="94.674818" y="193.802216" style="stroke: #000000"/>
     <use xlink:href="#m2d3fbefdf3" x="111.182298" y="189.040173" style="stroke: #000000"/>
     <use xlink:href="#m2d3fbefdf3" x="127.689778" y="171.494506" style="stroke: #000000"/>
     <use xlink:href="#m2d3fbefdf3" x="144.197258" y="178.965904" style="stroke: #000000"/>
     <use xlink:href="#m2d3fbefdf3" x="160.704738" y="166.667054" style="stroke: #000000"/>
     <use xlink:href="#m2d3fbefdf3" x="177.212218" y="172.36981" style="stroke: #000000"/>
     <use xlink:href="#m2d3fbefdf3" x="193.719698" y="168.561466" style="stroke: #000000"/>
     <use xlink:href="#m2d3fbefdf3" x="210.227177" y="160.076835" style="stroke: #000000"/>
     <use xlink:href="#m2d3fbefdf3" x="226.734657" y="172.411743" style="stroke: #000000"/>
     <use xlink:href="#m2d3fbefdf3" x="243.242137" y="137.389031" style="stroke: #000000"/>
     <use xlink:href="#m2d3fbefdf3" x="259.749617" y="161.716001" style="stroke: #000000"/>
     <use xlink:href="#m2d3fbefdf3" x="276.257097" y="160.673385" style="stroke: #000000"/>
     <use xlink:href="#m2d3fbefdf3" x="292.764577" y="144.605727" style="stroke: #000000"/>
     <use xlink:href="#m2d3fbefdf3" x="309.272057" y="162.395064" style="stroke: #000000"/>
     <use xlink:href="#m2d3fbefdf3" x="325.779536" y="144.522283" style="stroke: #000000"/>
    </g>
   </g>
   <g id="line2d_24">
    <g clip-path="url(#pd9fb5e2226)">
     <use xlink:href="#m2d3fbefdf3" x="78.167339" y="59.608135" style="stroke: #000000"/>
     <use xlink:href="#m2d3fbefdf3" x="94.674818" y="30.484034" style="stroke: #000000"/>
     <use xlink:href="#m2d3fbefdf3" x="111.182298" y="38.472981" style="stroke: #000000"/>
     <use xlink:href="#m2d3fbefdf3" x="127.689778" y="59.918682" style="stroke: #000000"/>
     <use xlink:href="#m2d3fbefdf3" x="144.197258" y="53.338829" style="stroke: #000000"/>
     <use xlink:href="#m2d3fbefdf3" x="160.704738" y="68.36607" style="stroke: #000000"/>
     <use xlink:href="#m2d3fbefdf3" x="177.212218" y="62.786073" style="stroke: #000000"/>
     <use xlink:href="#m2d3fbefdf3" x="193.719698" y="67.657943" style="stroke: #000000"/>
     <use xlink:href="#m2d3fbefdf3" x="210.227177" y="76.373898" style="stroke: #000000"/>
     <use xlink:href="#m2d3fbefdf3" x="226.734657" y="64.464171" style="stroke: #000000"/>
     <use xlink:href="#m2d3fbefdf3" x="243.242137" y="102.198914" style="stroke: #000000"/>
     <use xlink:href="#m2d3fbefdf3" x="259.749617" y="80.436099" style="stroke: #000000"/>
     <use xlink:href="#m2d3fbefdf3" x="276.257097" y="82.271697" style="stroke: #000000"/>
     <use xlink:href="#m2d3fbefdf3" x="292.764577" y="98.612142" style="stroke: #000000"/>
     <use xlink:href="#m2d3fbefdf3" x="309.272057" y="81.982692" style="stroke: #000000"/>
     <use xlink:href="#m2d3fbefdf3" x="325.779536" y="100.525504" style="stroke: #000000"/>
    </g>
   </g>
   <g id="patch_19">
    <path d="M 58.523438 201.968125 
L 58.523438 22.318125 
" style="fill: none; stroke: #000000; stroke-width: 0.8; stroke-linejoin: miter; stroke-linecap: square"/>
   </g>
   <g id="patch_20">
    <path d="M 345.423437 201.968125 
L 345.423437 22.318125 
" style="fill: none; stroke: #000000; stroke-width: 0.8; stroke-linejoin: miter; stroke-linecap: square"/>
   </g>
   <g id="patch_21">
    <path d="M 58.523438 201.968125 
L 345.423437 201.968125 
" style="fill: none; stroke: #000000; stroke-width: 0.8; stroke-linejoin: miter; stroke-linecap: square"/>
   </g>
   <g id="patch_22">
    <path d="M 58.523438 22.318125 
L 345.423437 22.318125 
" style="fill: none; stroke: #000000; stroke-width: 0.8; stroke-linejoin: miter; stroke-linecap: square"/>
   </g>
   <g id="text_25">
    <!-- Average Inner Text DiD by Category -->
    <g transform="translate(94.455312 16.318125) scale(0.12 -0.12)">
     <use xlink:href="#DejaVuSans-41"/>
     <use xlink:href="#DejaVuSans-76" x="62.533203"/>
     <use xlink:href="#DejaVuSans-65" x="121.712891"/>
     <use xlink:href="#DejaVuSans-72" x="183.236328"/>
     <use xlink:href="#DejaVuSans-61" x="224.349609"/>
     <use xlink:href="#DejaVuSans-67" x="285.628906"/>
     <use xlink:href="#DejaVuSans-65" x="349.105469"/>
     <use xlink:href="#DejaVuSans-20" x="410.628906"/>
     <use xlink:href="#DejaVuSans-49" x="442.416016"/>
     <use xlink:href="#DejaVuSans-6e" x="471.908203"/>
     <use xlink:href="#DejaVuSans-6e" x="535.287109"/>
     <use xlink:href="#DejaVuSans-65" x="598.666016"/>
     <use xlink:href="#DejaVuSans-72" x="660.189453"/>
     <use xlink:href="#DejaVuSans-20" x="701.302734"/>
     <use xlink:href="#DejaVuSans-54" x="733.089844"/>
     <use xlink:href="#DejaVuSans-65" x="777.173828"/>
     <use xlink:href="#DejaVuSans-78" x="836.947266"/>
     <use xlink:href="#DejaVuSans-74" x="896.126953"/>
     <use xlink:href="#DejaVuSans-20" x="935.335938"/>
     <use xlink:href="#DejaVuSans-44" x="967.123047"/>
     <use xlink:href="#DejaVuSans-69" x="1044.125"/>
     <use xlink:href="#DejaVuSans-44" x="1071.908203"/>
     <use xlink:href="#DejaVuSans-20" x="1148.910156"/>
     <use xlink:href="#DejaVuSans-62" x="1180.697266"/>
     <use xlink:href="#DejaVuSans-79" x="1244.173828"/>
     <use xlink:href="#DejaVuSans-20" x="1303.353516"/>
     <use xlink:href="#DejaVuSans-43" x="1335.140625"/>
     <use xlink:href="#DejaVuSans-61" x="1404.964844"/>
     <use xlink:href="#DejaVuSans-74" x="1466.244141"/>
     <use xlink:href="#DejaVuSans-65" x="1505.453125"/>
     <use xlink:href="#DejaVuSans-67" x="1566.976562"/>
     <use xlink:href="#DejaVuSans-6f" x="1630.453125"/>
     <use xlink:href="#DejaVuSans-72" x="1691.634766"/>
     <use xlink:href="#DejaVuSans-79" x="1732.748047"/>
    </g>
   </g>
  </g>
 </g>
 <defs>
  <clipPath id="pd9fb5e2226">
   <rect x="58.523438" y="22.318125" width="286.9" height="179.65"/>
  </clipPath>
 </defs>
</svg>
